<svg width="18" height="18" viewBox="0 0 18 18" fill="none" xmlns="http://www.w3.org/2000/svg">
<path d="M2.98031 3.78841V14.4108H1.36006C0.54993 14.4108 1.36006 17 1.36006 17H2.98031H5.08664H6.90942C6.90942 17 7.3955 13.8133 6.90942 14.4108C6.42335 15.0083 5.08664 14.4108 5.08664 14.4108V3.78841H6.90942C6.90942 3.78841 7.55753 0.402517 6.90942 1.26559C6.26132 2.12866 2.04866 2.06227 1.36006 1.26559C0.67145 0.468908 1.36006 3.78841 1.36006 3.78841H2.98031Z" fill="#CAC5FA"/>
<path d="M2.98031 14.4108V3.78841H1.36006C1.36006 3.78841 0.67145 0.468908 1.36006 1.26559C2.04866 2.06227 6.26132 2.12866 6.90942 1.26559C7.55753 0.402518 6.90942 3.78841 6.90942 3.78841H5.08664V14.4108C5.08664 14.4108 6.42335 15.0083 6.90942 14.4108C7.3955 13.8133 6.90942 17 6.90942 17H5.08664H2.98031H1.36006C1.36006 17 0.54993 14.4108 1.36006 14.4108M2.98031 14.4108C2.98031 14.4108 2.17018 14.4108 1.36006 14.4108M2.98031 14.4108H1.36006" stroke="black"/>
<path d="M16.7119 1H8.40811C8.40811 1 9.33975 2.39419 8.40811 3.6556C7.47646 4.91701 11.4461 3.6556 11.4461 3.6556C11.4461 3.6556 10.96 17.7967 12.0537 16.9336C13.1473 16.0705 12.0942 16.4025 13.0258 16.9336C13.9575 17.4647 13.5524 3.6556 13.5524 3.6556C13.5524 3.6556 16.0638 2.06224 16.7119 3.6556C17.36 5.24896 16.7119 1 16.7119 1Z" fill="#CAC5FA" stroke="black"/>
</svg>
