<svg width="16" height="16" viewBox="0 0 16 16" fill="none" xmlns="http://www.w3.org/2000/svg">
<rect x="0.5" y="0.5" width="15" height="15" rx="3.5" fill="#E0E0E0"/>
<rect x="0.5" y="0.5" width="15" height="15" rx="3.5" stroke="white"/>
<rect x="0.5" y="0.5" width="15" height="15" rx="3.5" stroke="black" stroke-opacity="0.2"/>
<path d="M11.7588 4.00252C11.7523 4.00432 11.7457 4.00702 11.7391 4.00972C11.6843 4.02502 11.6368 4.06372 11.6081 4.11772L7.32277 11.4179L4.37415 8.49497C4.32255 8.42298 4.23655 8.39148 4.15546 8.41488C4.07437 8.43828 4.01458 8.51297 4.0023 8.60386C3.99001 8.69476 4.02769 8.78475 4.09895 8.83335L7.22448 11.9435C7.27035 11.9876 7.33178 12.0074 7.39239 11.9975C7.453 11.9876 7.50624 11.9498 7.539 11.8931L11.9619 4.3625C12.0103 4.2869 12.0127 4.18701 11.9685 4.10872C11.9243 4.03042 11.8415 3.98903 11.7588 4.00252Z" fill="black" stroke="white"/>
</svg>
