<svg width="290" height="579" viewBox="0 0 290 579" fill="none" xmlns="http://www.w3.org/2000/svg">
<path d="M289.5 0C251.482 -3.32361e-06 213.837 7.48815 178.713 22.0369C143.589 36.5856 111.675 57.91 84.7926 84.7926C57.9101 111.675 36.5856 143.589 22.0369 178.713C7.48816 213.837 2.86325e-05 251.482 2.53089e-05 289.5C2.19853e-05 327.518 7.48815 365.163 22.0369 400.287C36.5856 435.411 57.91 467.325 84.7926 494.207C111.675 521.09 143.589 542.414 178.713 556.963C213.837 571.512 251.482 579 289.5 579L289.5 289.5L289.5 0Z" fill="#BBD7FD"/>
</svg>
