<svg width="64" height="64" viewBox="0 0 64 64" fill="none" xmlns="http://www.w3.org/2000/svg">
<path d="M28.0667 44.1336L46.9333 25.267L43.8667 22.267L28.0667 38.067L20.0667 30.067L17.0667 33.067L28.0667 44.1336ZM32.0001 58.667C28.3556 58.667 24.9112 57.967 21.6667 56.567C18.4223 55.167 15.5889 53.2559 13.1667 50.8336C10.7445 48.4114 8.83333 45.578 7.43337 42.3336C6.03337 39.0891 5.33337 35.6447 5.33337 32.0003C5.33337 28.3114 6.03337 24.8447 7.43337 21.6003C8.83333 18.3559 10.7445 15.5336 13.1667 13.1336C15.5889 10.7336 18.4223 8.83363 21.6667 7.43362C24.9112 6.03362 28.3556 5.33362 32.0001 5.33362C35.6889 5.33362 39.1556 6.03362 42.4001 7.43362C45.6445 8.83363 48.4667 10.7336 50.8667 13.1336C53.2667 15.5336 55.1667 18.3559 56.5667 21.6003C57.9667 24.8447 58.6667 28.3114 58.6667 32.0003C58.6667 35.6447 57.9667 39.0891 56.5667 42.3336C55.1667 45.578 53.2667 48.4114 50.8667 50.8336C48.4667 53.2559 45.6445 55.167 42.4001 56.567C39.1556 57.967 35.6889 58.667 32.0001 58.667ZM32.0001 54.667C38.3112 54.667 43.6667 52.4559 48.0667 48.0336C52.4667 43.6114 54.6667 38.267 54.6667 32.0003C54.6667 25.6891 52.4667 20.3336 48.0667 15.9336C43.6667 11.5336 38.3112 9.33363 32.0001 9.33363C25.7333 9.33363 20.3889 11.5336 15.9667 15.9336C11.5445 20.3336 9.33333 25.6891 9.33333 32.0003C9.33333 38.267 11.5445 43.6114 15.9667 48.0336C20.3889 52.4559 25.7333 54.667 32.0001 54.667Z" fill="#4353FF"/>
</svg>
