<svg width="716" height="192" viewBox="0 0 716 192" fill="none" xmlns="http://www.w3.org/2000/svg">
<path d="M1.00004 54.3652C1.00004 46.9329 0.556319 38.2299 6.82292 34.2338C24.8715 22.7247 94.5421 3.61032 356.5 0.5C639.598 -2.86133 699.795 22.5119 712.133 35.5679C715.913 39.5678 715 45.8367 715 51.34C715 58.0928 715 68.2248 715 79.0001C715 84.3959 710.161 86.727 703.231 87.2989C678.97 89.3012 655 103.817 655 128.161C655 156.09 624.121 174.199 598.92 162.157C540.575 134.278 445.473 96.144 356.5 93.0001C268.534 89.8917 175.737 128.716 118.112 158.537C93.1185 171.471 61 153.648 61 125.506C61 102.179 38.5564 87.0648 15.2348 86.5411C7.01441 86.3566 1.00004 84.3824 1.00004 79.0001C1.00004 70.3925 1.00004 61.2723 1.00004 54.3652Z" fill="white"/>
<path d="M256.436 68V44.7273H260.652V54.5795H271.436V44.7273H275.663V68H271.436V58.1136H260.652V68H256.436ZM285.089 68.3523C283.983 68.3523 282.987 68.1553 282.101 67.7614C281.222 67.3598 280.525 66.7689 280.01 65.9886C279.502 65.2083 279.249 64.2462 279.249 63.1023C279.249 62.1174 279.43 61.303 279.794 60.6591C280.158 60.0152 280.654 59.5 281.283 59.1136C281.911 58.7273 282.62 58.4356 283.408 58.2386C284.203 58.0341 285.025 57.8864 285.874 57.7955C286.896 57.6894 287.726 57.5947 288.362 57.5114C288.999 57.4205 289.461 57.2841 289.749 57.1023C290.044 56.9129 290.192 56.6212 290.192 56.2273V56.1591C290.192 55.303 289.938 54.6402 289.43 54.1705C288.923 53.7008 288.192 53.4659 287.237 53.4659C286.23 53.4659 285.43 53.6856 284.839 54.125C284.256 54.5644 283.862 55.0833 283.658 55.6818L279.817 55.1364C280.12 54.0758 280.62 53.1894 281.317 52.4773C282.014 51.7576 282.866 51.2197 283.874 50.8636C284.881 50.5 285.995 50.3182 287.214 50.3182C288.055 50.3182 288.893 50.4167 289.726 50.6136C290.559 50.8106 291.321 51.1364 292.01 51.5909C292.699 52.0379 293.252 52.6477 293.669 53.4205C294.093 54.1932 294.305 55.1591 294.305 56.3182V68H290.351V65.6023H290.214C289.964 66.0871 289.612 66.5417 289.158 66.9659C288.711 67.3826 288.146 67.7197 287.464 67.9773C286.79 68.2273 285.999 68.3523 285.089 68.3523ZM286.158 65.3295C286.983 65.3295 287.699 65.1667 288.305 64.8409C288.911 64.5076 289.377 64.0682 289.703 63.5227C290.036 62.9773 290.203 62.3826 290.203 61.7386V59.6818C290.074 59.7879 289.855 59.8864 289.544 59.9773C289.241 60.0682 288.9 60.1477 288.521 60.2159C288.143 60.2841 287.768 60.3447 287.396 60.3977C287.025 60.4508 286.703 60.4962 286.43 60.5341C285.817 60.6174 285.268 60.7538 284.783 60.9432C284.298 61.1326 283.915 61.3977 283.635 61.7386C283.355 62.072 283.214 62.5038 283.214 63.0341C283.214 63.7917 283.491 64.3636 284.044 64.75C284.597 65.1364 285.302 65.3295 286.158 65.3295ZM298.442 50.5455H302.408V64.6136H307.896V50.5455H311.862V64.6136H317.351V50.5455H321.317V68H298.442V50.5455ZM329.439 62.4318L336.428 50.5455H340.655V68H336.678V56.1023L329.712 68H325.473V50.5455H329.439V62.4318ZM357.839 68.3523C356.733 68.3523 355.737 68.1553 354.851 67.7614C353.972 67.3598 353.275 66.7689 352.76 65.9886C352.252 65.2083 351.999 64.2462 351.999 63.1023C351.999 62.1174 352.18 61.303 352.544 60.6591C352.908 60.0152 353.404 59.5 354.033 59.1136C354.661 58.7273 355.37 58.4356 356.158 58.2386C356.953 58.0341 357.775 57.8864 358.624 57.7955C359.646 57.6894 360.476 57.5947 361.112 57.5114C361.749 57.4205 362.211 57.2841 362.499 57.1023C362.794 56.9129 362.942 56.6212 362.942 56.2273V56.1591C362.942 55.303 362.688 54.6402 362.18 54.1705C361.673 53.7008 360.942 53.4659 359.987 53.4659C358.98 53.4659 358.18 53.6856 357.589 54.125C357.006 54.5644 356.612 55.0833 356.408 55.6818L352.567 55.1364C352.87 54.0758 353.37 53.1894 354.067 52.4773C354.764 51.7576 355.616 51.2197 356.624 50.8636C357.631 50.5 358.745 50.3182 359.964 50.3182C360.805 50.3182 361.643 50.4167 362.476 50.6136C363.309 50.8106 364.071 51.1364 364.76 51.5909C365.449 52.0379 366.002 52.6477 366.419 53.4205C366.843 54.1932 367.055 55.1591 367.055 56.3182V68H363.101V65.6023H362.964C362.714 66.0871 362.362 66.5417 361.908 66.9659C361.461 67.3826 360.896 67.7197 360.214 67.9773C359.54 68.2273 358.749 68.3523 357.839 68.3523ZM358.908 65.3295C359.733 65.3295 360.449 65.1667 361.055 64.8409C361.661 64.5076 362.127 64.0682 362.453 63.5227C362.786 62.9773 362.953 62.3826 362.953 61.7386V59.6818C362.824 59.7879 362.605 59.8864 362.294 59.9773C361.991 60.0682 361.65 60.1477 361.271 60.2159C360.893 60.2841 360.518 60.3447 360.146 60.3977C359.775 60.4508 359.453 60.4962 359.18 60.5341C358.567 60.6174 358.018 60.7538 357.533 60.9432C357.048 61.1326 356.665 61.3977 356.385 61.7386C356.105 62.072 355.964 62.5038 355.964 63.0341C355.964 63.7917 356.241 64.3636 356.794 64.75C357.347 65.1364 358.052 65.3295 358.908 65.3295ZM369.646 73.0682V64.6136H371.033C371.404 64.3258 371.714 63.9356 371.964 63.4432C372.214 62.9432 372.419 62.3561 372.578 61.6818C372.745 61 372.881 60.2386 372.987 59.3977C373.093 58.5492 373.188 57.6364 373.271 56.6591L373.771 50.5455H386.385V64.6136H389.089V73.0682H385.112V68H373.692V73.0682H369.646ZM375.26 64.6136H382.453V53.8636H377.339L377.067 56.6591C376.915 58.5076 376.714 60.0909 376.464 61.4091C376.214 62.7273 375.813 63.7955 375.26 64.6136ZM392.161 74.5455V50.5455H396.206V53.4318H396.445C396.657 53.0076 396.956 52.5568 397.342 52.0795C397.729 51.5947 398.251 51.1818 398.911 50.8409C399.57 50.4924 400.411 50.3182 401.433 50.3182C402.782 50.3182 403.998 50.6629 405.081 51.3523C406.172 52.0341 407.036 53.0455 407.672 54.3864C408.316 55.7197 408.638 57.3561 408.638 59.2955C408.638 61.2121 408.323 62.8409 407.695 64.1818C407.066 65.5227 406.21 66.5455 405.126 67.25C404.043 67.9545 402.816 68.3068 401.445 68.3068C400.445 68.3068 399.615 68.1402 398.956 67.8068C398.297 67.4735 397.767 67.072 397.365 66.6023C396.971 66.125 396.664 65.6742 396.445 65.25H396.274V74.5455H392.161ZM396.195 59.2727C396.195 60.4015 396.354 61.3902 396.672 62.2386C396.998 63.0871 397.464 63.75 398.07 64.2273C398.683 64.697 399.426 64.9318 400.297 64.9318C401.206 64.9318 401.967 64.6894 402.581 64.2045C403.195 63.7121 403.657 63.0417 403.967 62.1932C404.286 61.3371 404.445 60.3636 404.445 59.2727C404.445 58.1894 404.289 57.2273 403.979 56.3864C403.668 55.5455 403.206 54.8864 402.592 54.4091C401.979 53.9318 401.214 53.6932 400.297 53.6932C399.418 53.6932 398.672 53.9242 398.058 54.3864C397.445 54.8485 396.979 55.4962 396.661 56.3295C396.35 57.1629 396.195 58.1439 396.195 59.2727ZM419.888 68.3409C418.138 68.3409 416.626 67.9773 415.354 67.25C414.089 66.5152 413.115 65.4773 412.433 64.1364C411.751 62.7879 411.411 61.2008 411.411 59.375C411.411 57.5795 411.751 56.0038 412.433 54.6477C413.123 53.2841 414.085 52.2235 415.32 51.4659C416.554 50.7008 418.005 50.3182 419.672 50.3182C420.748 50.3182 421.763 50.4924 422.717 50.8409C423.679 51.1818 424.528 51.7121 425.263 52.4318C426.005 53.1515 426.589 54.0682 427.013 55.1818C427.437 56.2879 427.649 57.6061 427.649 59.1364V60.3977H413.342V57.625H423.706C423.698 56.8371 423.528 56.1364 423.195 55.5227C422.861 54.9015 422.395 54.4129 421.797 54.0568C421.206 53.7008 420.517 53.5227 419.729 53.5227C418.888 53.5227 418.149 53.7273 417.513 54.1364C416.876 54.5379 416.38 55.0682 416.024 55.7273C415.676 56.3788 415.498 57.0947 415.49 57.875V60.2955C415.49 61.3106 415.676 62.1818 416.047 62.9091C416.418 63.6288 416.937 64.1818 417.604 64.5682C418.27 64.947 419.051 65.1364 419.945 65.1364C420.543 65.1364 421.085 65.053 421.57 64.8864C422.054 64.7121 422.475 64.4583 422.831 64.125C423.187 63.7917 423.456 63.3788 423.638 62.8864L427.479 63.3182C427.236 64.3333 426.774 65.2197 426.092 65.9773C425.418 66.7273 424.554 67.3106 423.501 67.7273C422.448 68.1364 421.244 68.3409 419.888 68.3409ZM438.743 68.3409C437 68.3409 435.504 67.9583 434.254 67.1932C433.012 66.428 432.054 65.3712 431.379 64.0227C430.713 62.6667 430.379 61.1061 430.379 59.3409C430.379 57.5682 430.72 56.0038 431.402 54.6477C432.084 53.2841 433.046 52.2235 434.288 51.4659C435.538 50.7008 437.016 50.3182 438.72 50.3182C440.137 50.3182 441.391 50.5795 442.482 51.1023C443.58 51.6174 444.455 52.3485 445.107 53.2955C445.758 54.2348 446.129 55.3333 446.22 56.5909H442.288C442.129 55.75 441.75 55.0492 441.152 54.4886C440.561 53.9205 439.769 53.6364 438.777 53.6364C437.936 53.6364 437.197 53.8636 436.561 54.3182C435.925 54.7652 435.429 55.4091 435.072 56.25C434.724 57.0909 434.55 58.0985 434.55 59.2727C434.55 60.4621 434.724 61.4848 435.072 62.3409C435.421 63.1894 435.91 63.8447 436.538 64.3068C437.175 64.7614 437.921 64.9886 438.777 64.9886C439.383 64.9886 439.925 64.875 440.402 64.6477C440.887 64.4129 441.292 64.0758 441.618 63.6364C441.944 63.197 442.167 62.6629 442.288 62.0341H446.22C446.122 63.2689 445.758 64.3636 445.129 65.3182C444.5 66.2652 443.644 67.0076 442.561 67.5455C441.478 68.0758 440.205 68.3409 438.743 68.3409ZM454.621 68.3523C453.515 68.3523 452.518 68.1553 451.632 67.7614C450.753 67.3598 450.056 66.7689 449.541 65.9886C449.034 65.2083 448.78 64.2462 448.78 63.1023C448.78 62.1174 448.962 61.303 449.325 60.6591C449.689 60.0152 450.185 59.5 450.814 59.1136C451.443 58.7273 452.151 58.4356 452.939 58.2386C453.734 58.0341 454.556 57.8864 455.405 57.7955C456.428 57.6894 457.257 57.5947 457.893 57.5114C458.53 57.4205 458.992 57.2841 459.28 57.1023C459.575 56.9129 459.723 56.6212 459.723 56.2273V56.1591C459.723 55.303 459.469 54.6402 458.962 54.1705C458.454 53.7008 457.723 53.4659 456.768 53.4659C455.761 53.4659 454.962 53.6856 454.371 54.125C453.787 54.5644 453.393 55.0833 453.189 55.6818L449.348 55.1364C449.651 54.0758 450.151 53.1894 450.848 52.4773C451.545 51.7576 452.397 51.2197 453.405 50.8636C454.412 50.5 455.526 50.3182 456.746 50.3182C457.587 50.3182 458.424 50.4167 459.257 50.6136C460.09 50.8106 460.852 51.1364 461.541 51.5909C462.231 52.0379 462.784 52.6477 463.2 53.4205C463.625 54.1932 463.837 55.1591 463.837 56.3182V68H459.882V65.6023H459.746C459.496 66.0871 459.143 66.5417 458.689 66.9659C458.242 67.3826 457.678 67.7197 456.996 67.9773C456.321 68.2273 455.53 68.3523 454.621 68.3523ZM455.689 65.3295C456.515 65.3295 457.231 65.1667 457.837 64.8409C458.443 64.5076 458.909 64.0682 459.234 63.5227C459.568 62.9773 459.734 62.3826 459.734 61.7386V59.6818C459.606 59.7879 459.386 59.8864 459.075 59.9773C458.772 60.0682 458.431 60.1477 458.053 60.2159C457.674 60.2841 457.299 60.3447 456.928 60.3977C456.556 60.4508 456.234 60.4962 455.962 60.5341C455.348 60.6174 454.799 60.7538 454.314 60.9432C453.829 61.1326 453.446 61.3977 453.166 61.7386C452.886 62.072 452.746 62.5038 452.746 63.0341C452.746 63.7917 453.022 64.3636 453.575 64.75C454.128 65.1364 454.833 65.3295 455.689 65.3295Z" fill="black"/>
<path d="M71.6619 104.455C71.4716 104.455 71.2983 104.439 71.142 104.408C70.9858 104.379 70.8693 104.348 70.7926 104.314L71.0994 103.27C71.3324 103.332 71.5398 103.359 71.7216 103.351C71.9034 103.342 72.0639 103.274 72.2031 103.146C72.3452 103.018 72.4702 102.81 72.5781 102.52L72.7358 102.085L70.3409 95.4545H71.7045L73.3622 100.534H73.4304L75.0881 95.4545H76.456L73.7585 102.874C73.6335 103.214 73.4744 103.503 73.2812 103.739C73.0881 103.977 72.858 104.156 72.5909 104.276C72.3239 104.395 72.0142 104.455 71.6619 104.455ZM76.5987 102L76.5945 100.896H76.8288C77.0107 100.896 77.1626 100.858 77.2848 100.781C77.4098 100.702 77.5121 100.568 77.5916 100.381C77.6712 100.193 77.7322 99.9347 77.7749 99.6051C77.8175 99.2727 77.8487 98.8551 77.8686 98.3523L77.9837 95.4545H82.5518V102H81.3033V96.554H79.1641L79.0618 98.7784C79.0362 99.3182 78.9808 99.7898 78.8956 100.193C78.8132 100.597 78.6925 100.933 78.5334 101.203C78.3743 101.47 78.1697 101.67 77.9197 101.804C77.6697 101.935 77.3658 102 77.0078 102H76.5987ZM85.0906 102.081C84.8576 102.081 84.6573 101.999 84.4897 101.834C84.3221 101.666 84.2383 101.464 84.2383 101.229C84.2383 100.996 84.3221 100.797 84.4897 100.632C84.6573 100.464 84.8576 100.381 85.0906 100.381C85.3235 100.381 85.5238 100.464 85.6914 100.632C85.859 100.797 85.9428 100.996 85.9428 101.229C85.9428 101.385 85.9031 101.528 85.8235 101.659C85.7468 101.787 85.6445 101.889 85.5167 101.966C85.3888 102.043 85.2468 102.081 85.0906 102.081ZM94.5742 93.2727V102H93.2617V94.3977H89.1538V102H87.8413V93.2727H94.5742ZM97.2908 104.455C97.1005 104.455 96.9272 104.439 96.771 104.408C96.6147 104.379 96.4982 104.348 96.4215 104.314L96.7283 103.27C96.9613 103.332 97.1687 103.359 97.3505 103.351C97.5323 103.342 97.6928 103.274 97.832 103.146C97.9741 103.018 98.0991 102.81 98.207 102.52L98.3647 102.085L95.9698 95.4545H97.3335L98.9911 100.534H99.0593L100.717 95.4545H102.085L99.3874 102.874C99.2624 103.214 99.1033 103.503 98.9102 103.739C98.717 103.977 98.4869 104.156 98.2198 104.276C97.9528 104.395 97.6431 104.455 97.2908 104.455ZM103.282 95.4545H104.531V100.896H106.794V95.4545H108.042V100.896H110.305V95.4545H111.554V102H103.282V95.4545ZM113.255 102V95.4545H114.529V98.1989H115.143L117.303 95.4545H118.88L116.344 98.6378L118.91 102H117.329L115.356 99.3835H114.529V102H113.255ZM121.148 100.214L124.033 95.4545H125.405V102H124.157V97.2358L121.284 102H119.9V95.4545H121.148V100.214ZM131.554 98.1776V99.2812H128.009V98.1776H131.554ZM128.367 95.4545V102H127.118V95.4545H128.367ZM132.445 95.4545V102H131.201V95.4545H132.445ZM136.054 102.145C135.64 102.145 135.265 102.068 134.929 101.915C134.594 101.759 134.328 101.533 134.132 101.237C133.939 100.942 133.843 100.58 133.843 100.151C133.843 99.7812 133.914 99.4773 134.056 99.2386C134.198 99 134.39 98.8111 134.631 98.6719C134.873 98.5327 135.142 98.4276 135.441 98.3565C135.739 98.2855 136.043 98.2315 136.353 98.1946C136.745 98.1491 137.063 98.1122 137.307 98.0838C137.551 98.0526 137.729 98.0028 137.84 97.9347C137.951 97.8665 138.006 97.7557 138.006 97.6023V97.5724C138.006 97.2003 137.901 96.9119 137.691 96.7074C137.483 96.5028 137.174 96.4006 136.762 96.4006C136.333 96.4006 135.995 96.4957 135.748 96.6861C135.503 96.8736 135.334 97.0824 135.24 97.3125L134.043 97.0398C134.185 96.642 134.392 96.321 134.665 96.0767C134.941 95.8295 135.257 95.6506 135.615 95.5398C135.973 95.4261 136.35 95.3693 136.745 95.3693C137.006 95.3693 137.283 95.4006 137.576 95.4631C137.871 95.5227 138.147 95.6335 138.402 95.7955C138.661 95.9574 138.873 96.1889 139.037 96.4901C139.202 96.7884 139.284 97.1761 139.284 97.6534V102H138.04V101.105H137.989C137.907 101.27 137.783 101.432 137.618 101.591C137.453 101.75 137.242 101.882 136.983 101.987C136.725 102.092 136.415 102.145 136.054 102.145ZM136.331 101.122C136.684 101.122 136.985 101.053 137.235 100.913C137.488 100.774 137.679 100.592 137.81 100.368C137.944 100.141 138.01 99.8977 138.01 99.6392V98.7955C137.965 98.8409 137.877 98.8835 137.746 98.9233C137.618 98.9602 137.472 98.9929 137.307 99.0213C137.142 99.0469 136.982 99.071 136.826 99.0938C136.669 99.1136 136.539 99.1307 136.434 99.1449C136.186 99.1761 135.961 99.2287 135.756 99.3026C135.554 99.3764 135.392 99.483 135.27 99.6222C135.151 99.7585 135.091 99.9403 135.091 100.168C135.091 100.483 135.208 100.722 135.441 100.884C135.674 101.043 135.971 101.122 136.331 101.122ZM70.2173 119.888V116.896H70.75C70.8864 116.771 71.0014 116.622 71.0952 116.449C71.1918 116.276 71.2727 116.07 71.3381 115.831C71.4063 115.592 71.4631 115.314 71.5085 114.996C71.554 114.675 71.5938 114.308 71.6278 113.896L71.8324 111.455H76.2812V116.896H77.2869V119.888H76.0426V118H71.4787V119.888H70.2173ZM72.1136 116.896H75.0369V112.545H72.9744L72.8381 113.896C72.7727 114.584 72.6903 115.18 72.5909 115.686C72.4915 116.189 72.3324 116.592 72.1136 116.896ZM79.3718 118.081C79.1388 118.081 78.9386 117.999 78.771 117.834C78.6033 117.666 78.5195 117.464 78.5195 117.229C78.5195 116.996 78.6033 116.797 78.771 116.632C78.9386 116.464 79.1388 116.381 79.3718 116.381C79.6048 116.381 79.805 116.464 79.9727 116.632C80.1403 116.797 80.2241 116.996 80.2241 117.229C80.2241 117.385 80.1843 117.528 80.1048 117.659C80.0281 117.787 79.9258 117.889 79.7979 117.966C79.6701 118.043 79.5281 118.081 79.3718 118.081ZM87.2106 118L84.2788 114.088H83.3498V118H82.033V109.273H83.3498V112.959H83.7802L87.0785 109.273H88.685L85.195 113.18L88.8171 118H87.2106ZM92.2113 118.132C91.5977 118.132 91.0621 117.991 90.6048 117.71C90.1474 117.429 89.7923 117.036 89.5394 116.53C89.2866 116.024 89.1602 115.433 89.1602 114.757C89.1602 114.078 89.2866 113.484 89.5394 112.976C89.7923 112.467 90.1474 112.072 90.6048 111.791C91.0621 111.51 91.5977 111.369 92.2113 111.369C92.8249 111.369 93.3604 111.51 93.8178 111.791C94.2752 112.072 94.6303 112.467 94.8832 112.976C95.136 113.484 95.2624 114.078 95.2624 114.757C95.2624 115.433 95.136 116.024 94.8832 116.53C94.6303 117.036 94.2752 117.429 93.8178 117.71C93.3604 117.991 92.8249 118.132 92.2113 118.132ZM92.2156 117.062C92.6133 117.062 92.9428 116.957 93.2042 116.747C93.4656 116.537 93.6587 116.257 93.7837 115.908C93.9116 115.558 93.9755 115.173 93.9755 114.753C93.9755 114.335 93.9116 113.952 93.7837 113.602C93.6587 113.25 93.4656 112.967 93.2042 112.754C92.9428 112.541 92.6133 112.435 92.2156 112.435C91.815 112.435 91.4826 112.541 91.2184 112.754C90.957 112.967 90.7624 113.25 90.6346 113.602C90.5096 113.952 90.4471 114.335 90.4471 114.753C90.4471 115.173 90.5096 115.558 90.6346 115.908C90.7624 116.257 90.957 116.537 91.2184 116.747C91.4826 116.957 91.815 117.062 92.2156 117.062ZM96.169 118L96.1648 116.896H96.3991C96.581 116.896 96.733 116.858 96.8551 116.781C96.9801 116.702 97.0824 116.568 97.1619 116.381C97.2415 116.193 97.3026 115.935 97.3452 115.605C97.3878 115.273 97.419 114.855 97.4389 114.352L97.554 111.455H102.122V118H100.874V112.554H98.7344L98.6321 114.778C98.6065 115.318 98.5511 115.79 98.4659 116.193C98.3835 116.597 98.2628 116.933 98.1037 117.203C97.9446 117.47 97.7401 117.67 97.4901 117.804C97.2401 117.935 96.9361 118 96.5781 118H96.169ZM106.578 118.132C105.965 118.132 105.429 117.991 104.972 117.71C104.515 117.429 104.159 117.036 103.907 116.53C103.654 116.024 103.527 115.433 103.527 114.757C103.527 114.078 103.654 113.484 103.907 112.976C104.159 112.467 104.515 112.072 104.972 111.791C105.429 111.51 105.965 111.369 106.578 111.369C107.192 111.369 107.728 111.51 108.185 111.791C108.642 112.072 108.998 112.467 109.25 112.976C109.503 113.484 109.63 114.078 109.63 114.757C109.63 115.433 109.503 116.024 109.25 116.53C108.998 117.036 108.642 117.429 108.185 117.71C107.728 117.991 107.192 118.132 106.578 118.132ZM106.583 117.062C106.98 117.062 107.31 116.957 107.571 116.747C107.833 116.537 108.026 116.257 108.151 115.908C108.279 115.558 108.343 115.173 108.343 114.753C108.343 114.335 108.279 113.952 108.151 113.602C108.026 113.25 107.833 112.967 107.571 112.754C107.31 112.541 106.98 112.435 106.583 112.435C106.182 112.435 105.85 112.541 105.586 112.754C105.324 112.967 105.13 113.25 105.002 113.602C104.877 113.952 104.814 114.335 104.814 114.753C104.814 115.173 104.877 115.558 105.002 115.908C105.13 116.257 105.324 116.537 105.586 116.747C105.85 116.957 106.182 117.062 106.583 117.062ZM110.263 112.554V111.455H115.786V112.554H113.651V118H112.407V112.554H110.263ZM117.939 120.455C117.749 120.455 117.576 120.439 117.419 120.408C117.263 120.379 117.147 120.348 117.07 120.314L117.377 119.27C117.61 119.332 117.817 119.359 117.999 119.351C118.181 119.342 118.341 119.274 118.48 119.146C118.623 119.018 118.748 118.81 118.855 118.52L119.013 118.085L116.618 111.455H117.982L119.64 116.534H119.708L121.365 111.455H122.733L120.036 118.874C119.911 119.214 119.752 119.503 119.559 119.739C119.365 119.977 119.135 120.156 118.868 120.276C118.601 120.395 118.292 120.455 117.939 120.455ZM123.931 111.455H125.179V116.896H127.442V111.455H128.691V116.896H130.953V111.455H132.202V118H123.931V111.455ZM133.903 118V111.455H135.178V114.199H135.791L137.952 111.455H139.528L136.993 114.638L139.558 118H137.977L136.004 115.384H135.178V118H133.903ZM141.797 116.214L144.681 111.455H146.054V118H144.805V113.236L141.933 118H140.548V111.455H141.797V116.214ZM152.203 114.178V115.281H148.657V114.178H152.203ZM149.015 111.455V118H147.767V111.455H149.015ZM153.093 111.455V118H151.849V111.455H153.093ZM156.703 118.145C156.288 118.145 155.913 118.068 155.578 117.915C155.243 117.759 154.977 117.533 154.781 117.237C154.588 116.942 154.491 116.58 154.491 116.151C154.491 115.781 154.562 115.477 154.704 115.239C154.846 115 155.038 114.811 155.279 114.672C155.521 114.533 155.791 114.428 156.089 114.357C156.387 114.286 156.691 114.232 157.001 114.195C157.393 114.149 157.711 114.112 157.956 114.084C158.2 114.053 158.377 114.003 158.488 113.935C158.599 113.866 158.654 113.756 158.654 113.602V113.572C158.654 113.2 158.549 112.912 158.339 112.707C158.132 112.503 157.822 112.401 157.41 112.401C156.981 112.401 156.643 112.496 156.396 112.686C156.152 112.874 155.983 113.082 155.889 113.312L154.691 113.04C154.833 112.642 155.041 112.321 155.314 112.077C155.589 111.83 155.906 111.651 156.264 111.54C156.622 111.426 156.998 111.369 157.393 111.369C157.654 111.369 157.931 111.401 158.224 111.463C158.52 111.523 158.795 111.634 159.051 111.795C159.309 111.957 159.521 112.189 159.686 112.49C159.85 112.788 159.933 113.176 159.933 113.653V118H158.689V117.105H158.637C158.555 117.27 158.431 117.432 158.267 117.591C158.102 117.75 157.89 117.882 157.632 117.987C157.373 118.092 157.064 118.145 156.703 118.145ZM156.98 117.122C157.332 117.122 157.633 117.053 157.883 116.913C158.136 116.774 158.328 116.592 158.458 116.368C158.592 116.141 158.659 115.898 158.659 115.639V114.795C158.613 114.841 158.525 114.884 158.395 114.923C158.267 114.96 158.12 114.993 157.956 115.021C157.791 115.047 157.63 115.071 157.474 115.094C157.318 115.114 157.187 115.131 157.082 115.145C156.835 115.176 156.609 115.229 156.404 115.303C156.203 115.376 156.041 115.483 155.919 115.622C155.799 115.759 155.74 115.94 155.74 116.168C155.74 116.483 155.856 116.722 156.089 116.884C156.322 117.043 156.619 117.122 156.98 117.122ZM164.806 118V111.455H166.08V114.199H166.694L168.854 111.455H170.431L167.895 114.638L170.461 118H168.88L166.907 115.384H166.08V118H164.806ZM172.29 118.081C172.057 118.081 171.857 117.999 171.689 117.834C171.521 117.666 171.438 117.464 171.438 117.229C171.438 116.996 171.521 116.797 171.689 116.632C171.857 116.464 172.057 116.381 172.29 116.381C172.523 116.381 172.723 116.464 172.891 116.632C173.058 116.797 173.142 116.996 173.142 117.229C173.142 117.385 173.102 117.528 173.023 117.659C172.946 117.787 172.844 117.889 172.716 117.966C172.588 118.043 172.446 118.081 172.29 118.081ZM174.832 118V117.045L177.785 113.986C178.1 113.653 178.36 113.362 178.565 113.112C178.772 112.859 178.927 112.619 179.029 112.392C179.131 112.165 179.183 111.923 179.183 111.668C179.183 111.378 179.114 111.128 178.978 110.918C178.842 110.705 178.656 110.541 178.42 110.428C178.184 110.311 177.918 110.253 177.623 110.253C177.31 110.253 177.038 110.317 176.805 110.445C176.572 110.572 176.393 110.753 176.268 110.986C176.143 111.219 176.08 111.491 176.08 111.804H174.823C174.823 111.273 174.945 110.808 175.19 110.411C175.434 110.013 175.769 109.705 176.195 109.486C176.621 109.264 177.106 109.153 177.648 109.153C178.197 109.153 178.68 109.263 179.097 109.482C179.518 109.697 179.846 109.993 180.082 110.368C180.317 110.74 180.435 111.161 180.435 111.629C180.435 111.953 180.374 112.27 180.252 112.58C180.133 112.889 179.924 113.234 179.626 113.615C179.327 113.993 178.913 114.452 178.381 114.991L176.647 116.807V116.871H180.576V118H174.832ZM185.229 118.119C184.644 118.119 184.121 118.018 183.661 117.817C183.204 117.615 182.842 117.335 182.575 116.977C182.31 116.616 182.168 116.199 182.148 115.724H183.487C183.504 115.983 183.59 116.207 183.746 116.398C183.906 116.585 184.113 116.73 184.369 116.832C184.624 116.935 184.908 116.986 185.221 116.986C185.565 116.986 185.869 116.926 186.133 116.807C186.4 116.687 186.609 116.521 186.759 116.308C186.91 116.092 186.985 115.844 186.985 115.562C186.985 115.27 186.91 115.013 186.759 114.791C186.612 114.567 186.394 114.391 186.107 114.263C185.823 114.135 185.479 114.071 185.076 114.071H184.339V112.997H185.076C185.4 112.997 185.684 112.939 185.928 112.822C186.175 112.706 186.369 112.544 186.508 112.337C186.647 112.126 186.717 111.881 186.717 111.599C186.717 111.33 186.656 111.095 186.533 110.896C186.414 110.695 186.244 110.537 186.022 110.423C185.803 110.31 185.545 110.253 185.246 110.253C184.962 110.253 184.697 110.305 184.45 110.411C184.205 110.513 184.006 110.661 183.853 110.854C183.7 111.044 183.617 111.273 183.606 111.54H182.332C182.346 111.068 182.485 110.653 182.749 110.295C183.016 109.937 183.369 109.658 183.806 109.456C184.244 109.254 184.729 109.153 185.263 109.153C185.823 109.153 186.306 109.263 186.712 109.482C187.121 109.697 187.437 109.986 187.658 110.347C187.883 110.707 187.994 111.102 187.991 111.531C187.994 112.02 187.857 112.435 187.582 112.776C187.309 113.116 186.945 113.345 186.491 113.462V113.53C187.07 113.618 187.519 113.848 187.837 114.22C188.158 114.592 188.317 115.054 188.315 115.605C188.317 116.085 188.184 116.516 187.914 116.896C187.647 117.277 187.282 117.577 186.819 117.795C186.356 118.011 185.826 118.119 185.229 118.119ZM70.8565 134V127.455H72.1307V130.199H72.7443L74.9048 127.455H76.4815L73.946 130.638L76.5114 134H74.9304L72.9574 131.384H72.1307V134H70.8565ZM79.9886 134.132C79.375 134.132 78.8395 133.991 78.3821 133.71C77.9247 133.429 77.5696 133.036 77.3168 132.53C77.0639 132.024 76.9375 131.433 76.9375 130.757C76.9375 130.078 77.0639 129.484 77.3168 128.976C77.5696 128.467 77.9247 128.072 78.3821 127.791C78.8395 127.51 79.375 127.369 79.9886 127.369C80.6023 127.369 81.1378 127.51 81.5952 127.791C82.0526 128.072 82.4077 128.467 82.6605 128.976C82.9134 129.484 83.0398 130.078 83.0398 130.757C83.0398 131.433 82.9134 132.024 82.6605 132.53C82.4077 133.036 82.0526 133.429 81.5952 133.71C81.1378 133.991 80.6023 134.132 79.9886 134.132ZM79.9929 133.062C80.3906 133.062 80.7202 132.957 80.9815 132.747C81.2429 132.537 81.4361 132.257 81.5611 131.908C81.6889 131.558 81.7528 131.173 81.7528 130.753C81.7528 130.335 81.6889 129.952 81.5611 129.602C81.4361 129.25 81.2429 128.967 80.9815 128.754C80.7202 128.541 80.3906 128.435 79.9929 128.435C79.5923 128.435 79.2599 128.541 78.9957 128.754C78.7344 128.967 78.5398 129.25 78.4119 129.602C78.2869 129.952 78.2244 130.335 78.2244 130.753C78.2244 131.173 78.2869 131.558 78.4119 131.908C78.5398 132.257 78.7344 132.537 78.9957 132.747C79.2599 132.957 79.5923 133.062 79.9929 133.062ZM84.462 136.455V127.455H85.7063V128.516H85.8129C85.8867 128.379 85.9933 128.222 86.1325 128.043C86.2717 127.864 86.4648 127.707 86.712 127.574C86.9592 127.438 87.2859 127.369 87.6921 127.369C88.2205 127.369 88.6921 127.503 89.1069 127.77C89.5217 128.037 89.8469 128.422 90.0827 128.925C90.3214 129.428 90.4407 130.033 90.4407 130.74C90.4407 131.447 90.3228 132.054 90.087 132.56C89.8512 133.062 89.5273 133.45 89.1154 133.723C88.7035 133.993 88.2333 134.128 87.7049 134.128C87.3072 134.128 86.9819 134.061 86.729 133.928C86.479 133.794 86.283 133.638 86.141 133.459C85.9989 133.28 85.8896 133.121 85.8129 132.982H85.7362V136.455H84.462ZM85.7106 130.727C85.7106 131.187 85.7773 131.591 85.9109 131.938C86.0444 132.284 86.2376 132.555 86.4904 132.751C86.7433 132.945 87.0529 133.041 87.4194 133.041C87.8001 133.041 88.1183 132.94 88.3739 132.739C88.6296 132.534 88.8228 132.257 88.9535 131.908C89.087 131.558 89.1538 131.165 89.1538 130.727C89.1538 130.295 89.0884 129.908 88.9577 129.564C88.8299 129.22 88.6367 128.949 88.3782 128.75C88.1225 128.551 87.8029 128.452 87.4194 128.452C87.0501 128.452 86.7376 128.547 86.4819 128.737C86.229 128.928 86.0373 129.193 85.9066 129.534C85.7759 129.875 85.7106 130.273 85.7106 130.727ZM91.8683 134V127.455H97.2077V134H95.9592V128.554H93.1083V134H91.8683ZM99.4822 136.455C99.2919 136.455 99.1186 136.439 98.9624 136.408C98.8061 136.379 98.6896 136.348 98.6129 136.314L98.9197 135.27C99.1527 135.332 99.3601 135.359 99.5419 135.351C99.7237 135.342 99.8842 135.274 100.023 135.146C100.165 135.018 100.29 134.81 100.398 134.52L100.556 134.085L98.1612 127.455H99.5249L101.183 132.534H101.251L102.908 127.455H104.276L101.579 134.874C101.454 135.214 101.295 135.503 101.102 135.739C100.908 135.977 100.678 136.156 100.411 136.276C100.144 136.395 99.8345 136.455 99.4822 136.455ZM108.008 134.132C107.375 134.132 106.829 133.989 106.372 133.702C105.917 133.412 105.568 133.013 105.324 132.504C105.079 131.996 104.957 131.413 104.957 130.757C104.957 130.092 105.082 129.506 105.332 128.997C105.582 128.486 105.934 128.087 106.389 127.8C106.843 127.513 107.379 127.369 107.995 127.369C108.493 127.369 108.936 127.462 109.325 127.646C109.714 127.828 110.028 128.084 110.267 128.413C110.508 128.743 110.652 129.128 110.697 129.568H109.457C109.389 129.261 109.233 128.997 108.988 128.776C108.747 128.554 108.423 128.443 108.017 128.443C107.662 128.443 107.35 128.537 107.083 128.724C106.819 128.909 106.613 129.173 106.466 129.517C106.318 129.858 106.244 130.261 106.244 130.727C106.244 131.205 106.316 131.616 106.461 131.963C106.606 132.31 106.811 132.578 107.075 132.768C107.342 132.959 107.656 133.054 108.017 133.054C108.258 133.054 108.477 133.01 108.673 132.922C108.872 132.831 109.038 132.702 109.172 132.534C109.308 132.366 109.403 132.165 109.457 131.929H110.697C110.652 132.352 110.514 132.73 110.284 133.062C110.054 133.395 109.745 133.656 109.359 133.847C108.975 134.037 108.525 134.132 108.008 134.132ZM118.529 125.273V134H117.208V126.594H117.157L115.069 127.957V126.696L117.247 125.273H118.529Z" fill="#2F3040" fill-opacity="0.72"/>
<path d="M580.537 104.455C580.347 104.455 580.173 104.439 580.017 104.408C579.861 104.379 579.744 104.348 579.668 104.314L579.974 103.27C580.207 103.332 580.415 103.359 580.597 103.351C580.778 103.342 580.939 103.274 581.078 103.146C581.22 103.018 581.345 102.81 581.453 102.52L581.611 102.085L579.216 95.4545H580.58L582.237 100.534H582.305L583.963 95.4545H585.331L582.634 102.874C582.509 103.214 582.349 103.503 582.156 103.739C581.963 103.977 581.733 104.156 581.466 104.276C581.199 104.395 580.889 104.455 580.537 104.455ZM585.474 102L585.469 100.896H585.704C585.886 100.896 586.038 100.858 586.16 100.781C586.285 100.702 586.387 100.568 586.467 100.381C586.546 100.193 586.607 99.9347 586.65 99.6051C586.692 99.2727 586.724 98.8551 586.744 98.3523L586.859 95.4545H591.427V102H590.178V96.554H588.039L587.937 98.7784C587.911 99.3182 587.856 99.7898 587.771 100.193C587.688 100.597 587.567 100.933 587.408 101.203C587.249 101.47 587.045 101.67 586.795 101.804C586.545 101.935 586.241 102 585.883 102H585.474ZM593.966 102.081C593.733 102.081 593.532 101.999 593.365 101.834C593.197 101.666 593.113 101.464 593.113 101.229C593.113 100.996 593.197 100.797 593.365 100.632C593.532 100.464 593.733 100.381 593.966 100.381C594.199 100.381 594.399 100.464 594.566 100.632C594.734 100.797 594.818 100.996 594.818 101.229C594.818 101.385 594.778 101.528 594.699 101.659C594.622 101.787 594.52 101.889 594.392 101.966C594.264 102.043 594.122 102.081 593.966 102.081ZM603.449 93.2727V102H602.137V94.3977H598.029V102H596.716V93.2727H603.449ZM606.166 104.455C605.975 104.455 605.802 104.439 605.646 104.408C605.49 104.379 605.373 104.348 605.297 104.314L605.603 103.27C605.836 103.332 606.044 103.359 606.225 103.351C606.407 103.342 606.568 103.274 606.707 103.146C606.849 103.018 606.974 102.81 607.082 102.52L607.24 102.085L604.845 95.4545H606.208L607.866 100.534H607.934L609.592 95.4545H610.96L608.262 102.874C608.137 103.214 607.978 103.503 607.785 103.739C607.592 103.977 607.362 104.156 607.095 104.276C606.828 104.395 606.518 104.455 606.166 104.455ZM612.157 95.4545H613.406V100.896H615.669V95.4545H616.917V100.896H619.18V95.4545H620.429V102H612.157V95.4545ZM622.13 102V95.4545H623.404V98.1989H624.018L626.178 95.4545H627.755L625.219 98.6378L627.785 102H626.204L624.231 99.3835H623.404V102H622.13ZM630.023 100.214L632.908 95.4545H634.28V102H633.032V97.2358L630.159 102H628.775V95.4545H630.023V100.214ZM640.429 98.1776V99.2812H636.884V98.1776H640.429ZM637.242 95.4545V102H635.993V95.4545H637.242ZM641.32 95.4545V102H640.076V95.4545H641.32ZM644.929 102.145C644.515 102.145 644.14 102.068 643.804 101.915C643.469 101.759 643.203 101.533 643.007 101.237C642.814 100.942 642.718 100.58 642.718 100.151C642.718 99.7812 642.789 99.4773 642.931 99.2386C643.073 99 643.265 98.8111 643.506 98.6719C643.748 98.5327 644.017 98.4276 644.316 98.3565C644.614 98.2855 644.918 98.2315 645.228 98.1946C645.62 98.1491 645.938 98.1122 646.182 98.0838C646.426 98.0526 646.604 98.0028 646.715 97.9347C646.826 97.8665 646.881 97.7557 646.881 97.6023V97.5724C646.881 97.2003 646.776 96.9119 646.566 96.7074C646.358 96.5028 646.049 96.4006 645.637 96.4006C645.208 96.4006 644.87 96.4957 644.623 96.6861C644.378 96.8736 644.209 97.0824 644.115 97.3125L642.918 97.0398C643.06 96.642 643.267 96.321 643.54 96.0767C643.816 95.8295 644.132 95.6506 644.49 95.5398C644.848 95.4261 645.225 95.3693 645.62 95.3693C645.881 95.3693 646.158 95.4006 646.451 95.4631C646.746 95.5227 647.022 95.6335 647.277 95.7955C647.536 95.9574 647.748 96.1889 647.912 96.4901C648.077 96.7884 648.159 97.1761 648.159 97.6534V102H646.915V101.105H646.864C646.782 101.27 646.658 101.432 646.493 101.591C646.328 101.75 646.117 101.882 645.858 101.987C645.6 102.092 645.29 102.145 644.929 102.145ZM645.206 101.122C645.559 101.122 645.86 101.053 646.11 100.913C646.363 100.774 646.554 100.592 646.685 100.368C646.819 100.141 646.885 99.8977 646.885 99.6392V98.7955C646.84 98.8409 646.752 98.8835 646.621 98.9233C646.493 98.9602 646.347 98.9929 646.182 99.0213C646.017 99.0469 645.857 99.071 645.701 99.0938C645.544 99.1136 645.414 99.1307 645.309 99.1449C645.061 99.1761 644.836 99.2287 644.631 99.3026C644.429 99.3764 644.267 99.483 644.145 99.6222C644.026 99.7585 643.966 99.9403 643.966 100.168C643.966 100.483 644.083 100.722 644.316 100.884C644.549 101.043 644.846 101.122 645.206 101.122ZM530.131 119.888V116.896H530.664C530.8 116.771 530.915 116.622 531.009 116.449C531.106 116.276 531.187 116.07 531.252 115.831C531.32 115.592 531.377 115.314 531.423 114.996C531.468 114.675 531.508 114.308 531.542 113.896L531.746 111.455H536.195V116.896H537.201V119.888H535.957V118H531.393V119.888H530.131ZM532.028 116.896H534.951V112.545H532.888L532.752 113.896C532.687 114.584 532.604 115.18 532.505 115.686C532.406 116.189 532.246 116.592 532.028 116.896ZM539.286 118.081C539.053 118.081 538.853 117.999 538.685 117.834C538.517 117.666 538.434 117.464 538.434 117.229C538.434 116.996 538.517 116.797 538.685 116.632C538.853 116.464 539.053 116.381 539.286 116.381C539.519 116.381 539.719 116.464 539.887 116.632C540.054 116.797 540.138 116.996 540.138 117.229C540.138 117.385 540.098 117.528 540.019 117.659C539.942 117.787 539.84 117.889 539.712 117.966C539.584 118.043 539.442 118.081 539.286 118.081ZM547.125 118L544.193 114.088H543.264V118H541.947V109.273H543.264V112.959H543.694L546.993 109.273H548.599L545.109 113.18L548.731 118H547.125ZM552.125 118.132C551.512 118.132 550.976 117.991 550.519 117.71C550.061 117.429 549.706 117.036 549.453 116.53C549.201 116.024 549.074 115.433 549.074 114.757C549.074 114.078 549.201 113.484 549.453 112.976C549.706 112.467 550.061 112.072 550.519 111.791C550.976 111.51 551.512 111.369 552.125 111.369C552.739 111.369 553.275 111.51 553.732 111.791C554.189 112.072 554.544 112.467 554.797 112.976C555.05 113.484 555.176 114.078 555.176 114.757C555.176 115.433 555.05 116.024 554.797 116.53C554.544 117.036 554.189 117.429 553.732 117.71C553.275 117.991 552.739 118.132 552.125 118.132ZM552.13 117.062C552.527 117.062 552.857 116.957 553.118 116.747C553.38 116.537 553.573 116.257 553.698 115.908C553.826 115.558 553.89 115.173 553.89 114.753C553.89 114.335 553.826 113.952 553.698 113.602C553.573 113.25 553.38 112.967 553.118 112.754C552.857 112.541 552.527 112.435 552.13 112.435C551.729 112.435 551.397 112.541 551.132 112.754C550.871 112.967 550.676 113.25 550.549 113.602C550.424 113.952 550.361 114.335 550.361 114.753C550.361 115.173 550.424 115.558 550.549 115.908C550.676 116.257 550.871 116.537 551.132 116.747C551.397 116.957 551.729 117.062 552.13 117.062ZM556.083 118L556.079 116.896H556.313C556.495 116.896 556.647 116.858 556.769 116.781C556.894 116.702 556.996 116.568 557.076 116.381C557.156 116.193 557.217 115.935 557.259 115.605C557.302 115.273 557.333 114.855 557.353 114.352L557.468 111.455H562.036V118H560.788V112.554H558.648L558.546 114.778C558.521 115.318 558.465 115.79 558.38 116.193C558.298 116.597 558.177 116.933 558.018 117.203C557.859 117.47 557.654 117.67 557.404 117.804C557.154 117.935 556.85 118 556.492 118H556.083ZM566.493 118.132C565.879 118.132 565.343 117.991 564.886 117.71C564.429 117.429 564.074 117.036 563.821 116.53C563.568 116.024 563.441 115.433 563.441 114.757C563.441 114.078 563.568 113.484 563.821 112.976C564.074 112.467 564.429 112.072 564.886 111.791C565.343 111.51 565.879 111.369 566.493 111.369C567.106 111.369 567.642 111.51 568.099 111.791C568.556 112.072 568.912 112.467 569.164 112.976C569.417 113.484 569.544 114.078 569.544 114.757C569.544 115.433 569.417 116.024 569.164 116.53C568.912 117.036 568.556 117.429 568.099 117.71C567.642 117.991 567.106 118.132 566.493 118.132ZM566.497 117.062C566.895 117.062 567.224 116.957 567.485 116.747C567.747 116.537 567.94 116.257 568.065 115.908C568.193 115.558 568.257 115.173 568.257 114.753C568.257 114.335 568.193 113.952 568.065 113.602C567.94 113.25 567.747 112.967 567.485 112.754C567.224 112.541 566.895 112.435 566.497 112.435C566.096 112.435 565.764 112.541 565.5 112.754C565.238 112.967 565.044 113.25 564.916 113.602C564.791 113.952 564.728 114.335 564.728 114.753C564.728 115.173 564.791 115.558 564.916 115.908C565.044 116.257 565.238 116.537 565.5 116.747C565.764 116.957 566.096 117.062 566.497 117.062ZM570.178 112.554V111.455H575.7V112.554H573.565V118H572.321V112.554H570.178ZM577.853 120.455C577.663 120.455 577.49 120.439 577.333 120.408C577.177 120.379 577.061 120.348 576.984 120.314L577.291 119.27C577.524 119.332 577.731 119.359 577.913 119.351C578.095 119.342 578.255 119.274 578.395 119.146C578.537 119.018 578.662 118.81 578.77 118.52L578.927 118.085L576.532 111.455H577.896L579.554 116.534H579.622L581.279 111.455H582.647L579.95 118.874C579.825 119.214 579.666 119.503 579.473 119.739C579.279 119.977 579.049 120.156 578.782 120.276C578.515 120.395 578.206 120.455 577.853 120.455ZM583.845 111.455H585.093V116.896H587.356V111.455H588.605V116.896H590.868V111.455H592.116V118H583.845V111.455ZM593.817 118V111.455H595.092V114.199H595.705L597.866 111.455H599.442L596.907 114.638L599.472 118H597.891L595.918 115.384H595.092V118H593.817ZM601.711 116.214L604.596 111.455H605.968V118H604.719V113.236L601.847 118H600.462V111.455H601.711V116.214ZM612.117 114.178V115.281H608.571V114.178H612.117ZM608.929 111.455V118H607.681V111.455H608.929ZM613.007 111.455V118H611.763V111.455H613.007ZM616.617 118.145C616.202 118.145 615.827 118.068 615.492 117.915C615.157 117.759 614.891 117.533 614.695 117.237C614.502 116.942 614.405 116.58 614.405 116.151C614.405 115.781 614.476 115.477 614.618 115.239C614.76 115 614.952 114.811 615.194 114.672C615.435 114.533 615.705 114.428 616.003 114.357C616.301 114.286 616.605 114.232 616.915 114.195C617.307 114.149 617.625 114.112 617.87 114.084C618.114 114.053 618.292 114.003 618.402 113.935C618.513 113.866 618.569 113.756 618.569 113.602V113.572C618.569 113.2 618.463 112.912 618.253 112.707C618.046 112.503 617.736 112.401 617.324 112.401C616.895 112.401 616.557 112.496 616.31 112.686C616.066 112.874 615.897 113.082 615.803 113.312L614.605 113.04C614.748 112.642 614.955 112.321 615.228 112.077C615.503 111.83 615.82 111.651 616.178 111.54C616.536 111.426 616.912 111.369 617.307 111.369C617.569 111.369 617.846 111.401 618.138 111.463C618.434 111.523 618.709 111.634 618.965 111.795C619.223 111.957 619.435 112.189 619.6 112.49C619.765 112.788 619.847 113.176 619.847 113.653V118H618.603V117.105H618.551C618.469 117.27 618.346 117.432 618.181 117.591C618.016 117.75 617.804 117.882 617.546 117.987C617.287 118.092 616.978 118.145 616.617 118.145ZM616.894 117.122C617.246 117.122 617.547 117.053 617.797 116.913C618.05 116.774 618.242 116.592 618.373 116.368C618.506 116.141 618.573 115.898 618.573 115.639V114.795C618.527 114.841 618.439 114.884 618.309 114.923C618.181 114.96 618.034 114.993 617.87 115.021C617.705 115.047 617.544 115.071 617.388 115.094C617.232 115.114 617.101 115.131 616.996 115.145C616.749 115.176 616.523 115.229 616.319 115.303C616.117 115.376 615.955 115.483 615.833 115.622C615.713 115.759 615.654 115.94 615.654 116.168C615.654 116.483 615.77 116.722 616.003 116.884C616.236 117.043 616.533 117.122 616.894 117.122ZM624.72 118V111.455H625.994V114.199H626.608L628.768 111.455H630.345L627.809 114.638L630.375 118H628.794L626.821 115.384H625.994V118H624.72ZM632.204 118.081C631.971 118.081 631.771 117.999 631.603 117.834C631.435 117.666 631.352 117.464 631.352 117.229C631.352 116.996 631.435 116.797 631.603 116.632C631.771 116.464 631.971 116.381 632.204 116.381C632.437 116.381 632.637 116.464 632.805 116.632C632.972 116.797 633.056 116.996 633.056 117.229C633.056 117.385 633.016 117.528 632.937 117.659C632.86 117.787 632.758 117.889 632.63 117.966C632.502 118.043 632.36 118.081 632.204 118.081ZM634.746 118V117.045L637.699 113.986C638.014 113.653 638.274 113.362 638.479 113.112C638.686 112.859 638.841 112.619 638.943 112.392C639.045 112.165 639.097 111.923 639.097 111.668C639.097 111.378 639.028 111.128 638.892 110.918C638.756 110.705 638.57 110.541 638.334 110.428C638.098 110.311 637.832 110.253 637.537 110.253C637.224 110.253 636.952 110.317 636.719 110.445C636.486 110.572 636.307 110.753 636.182 110.986C636.057 111.219 635.994 111.491 635.994 111.804H634.737C634.737 111.273 634.859 110.808 635.104 110.411C635.348 110.013 635.683 109.705 636.109 109.486C636.536 109.264 637.02 109.153 637.562 109.153C638.111 109.153 638.594 109.263 639.011 109.482C639.432 109.697 639.76 109.993 639.996 110.368C640.232 110.74 640.349 111.161 640.349 111.629C640.349 111.953 640.288 112.27 640.166 112.58C640.047 112.889 639.838 113.234 639.54 113.615C639.241 113.993 638.827 114.452 638.295 114.991L636.561 116.807V116.871H640.49V118H634.746ZM645.143 118.119C644.558 118.119 644.036 118.018 643.575 117.817C643.118 117.615 642.756 117.335 642.489 116.977C642.224 116.616 642.082 116.199 642.062 115.724H643.401C643.418 115.983 643.504 116.207 643.661 116.398C643.82 116.585 644.027 116.73 644.283 116.832C644.538 116.935 644.822 116.986 645.135 116.986C645.479 116.986 645.783 116.926 646.047 116.807C646.314 116.687 646.523 116.521 646.673 116.308C646.824 116.092 646.899 115.844 646.899 115.562C646.899 115.27 646.824 115.013 646.673 114.791C646.526 114.567 646.308 114.391 646.021 114.263C645.737 114.135 645.393 114.071 644.99 114.071H644.253V112.997H644.99C645.314 112.997 645.598 112.939 645.842 112.822C646.089 112.706 646.283 112.544 646.422 112.337C646.561 112.126 646.631 111.881 646.631 111.599C646.631 111.33 646.57 111.095 646.447 110.896C646.328 110.695 646.158 110.537 645.936 110.423C645.717 110.31 645.459 110.253 645.161 110.253C644.876 110.253 644.611 110.305 644.364 110.411C644.119 110.513 643.92 110.661 643.767 110.854C643.614 111.044 643.531 111.273 643.52 111.54H642.246C642.26 111.068 642.399 110.653 642.663 110.295C642.93 109.937 643.283 109.658 643.72 109.456C644.158 109.254 644.643 109.153 645.178 109.153C645.737 109.153 646.22 109.263 646.626 109.482C647.036 109.697 647.351 109.986 647.572 110.347C647.797 110.707 647.908 111.102 647.905 111.531C647.908 112.02 647.771 112.435 647.496 112.776C647.223 113.116 646.859 113.345 646.405 113.462V113.53C646.984 113.618 647.433 113.848 647.751 114.22C648.072 114.592 648.232 115.054 648.229 115.605C648.232 116.085 648.098 116.516 647.828 116.896C647.561 117.277 647.196 117.577 646.733 117.795C646.27 118.011 645.74 118.119 645.143 118.119ZM599.806 134V127.455H601.08V130.199H601.694L603.854 127.455H605.431L602.895 130.638L605.461 134H603.88L601.907 131.384H601.08V134H599.806ZM608.938 134.132C608.324 134.132 607.789 133.991 607.331 133.71C606.874 133.429 606.519 133.036 606.266 132.53C606.013 132.024 605.887 131.433 605.887 130.757C605.887 130.078 606.013 129.484 606.266 128.976C606.519 128.467 606.874 128.072 607.331 127.791C607.789 127.51 608.324 127.369 608.938 127.369C609.551 127.369 610.087 127.51 610.544 127.791C611.002 128.072 611.357 128.467 611.61 128.976C611.863 129.484 611.989 130.078 611.989 130.757C611.989 131.433 611.863 132.024 611.61 132.53C611.357 133.036 611.002 133.429 610.544 133.71C610.087 133.991 609.551 134.132 608.938 134.132ZM608.942 133.062C609.34 133.062 609.669 132.957 609.931 132.747C610.192 132.537 610.385 132.257 610.51 131.908C610.638 131.558 610.702 131.173 610.702 130.753C610.702 130.335 610.638 129.952 610.51 129.602C610.385 129.25 610.192 128.967 609.931 128.754C609.669 128.541 609.34 128.435 608.942 128.435C608.542 128.435 608.209 128.541 607.945 128.754C607.684 128.967 607.489 129.25 607.361 129.602C607.236 129.952 607.174 130.335 607.174 130.753C607.174 131.173 607.236 131.558 607.361 131.908C607.489 132.257 607.684 132.537 607.945 132.747C608.209 132.957 608.542 133.062 608.942 133.062ZM613.411 136.455V127.455H614.656V128.516H614.762C614.836 128.379 614.942 128.222 615.082 128.043C615.221 127.864 615.414 127.707 615.661 127.574C615.908 127.438 616.235 127.369 616.641 127.369C617.17 127.369 617.641 127.503 618.056 127.77C618.471 128.037 618.796 128.422 619.032 128.925C619.271 129.428 619.39 130.033 619.39 130.74C619.39 131.447 619.272 132.054 619.036 132.56C618.8 133.062 618.477 133.45 618.065 133.723C617.653 133.993 617.183 134.128 616.654 134.128C616.256 134.128 615.931 134.061 615.678 133.928C615.428 133.794 615.232 133.638 615.09 133.459C614.948 133.28 614.839 133.121 614.762 132.982H614.685V136.455H613.411ZM614.66 130.727C614.66 131.187 614.727 131.591 614.86 131.938C614.994 132.284 615.187 132.555 615.44 132.751C615.692 132.945 616.002 133.041 616.369 133.041C616.749 133.041 617.067 132.94 617.323 132.739C617.579 132.534 617.772 132.257 617.903 131.908C618.036 131.558 618.103 131.165 618.103 130.727C618.103 130.295 618.038 129.908 617.907 129.564C617.779 129.22 617.586 128.949 617.327 128.75C617.072 128.551 616.752 128.452 616.369 128.452C615.999 128.452 615.687 128.547 615.431 128.737C615.178 128.928 614.987 129.193 614.856 129.534C614.725 129.875 614.66 130.273 614.66 130.727ZM620.817 134V127.455H626.157V134H624.908V128.554H622.058V134H620.817ZM628.431 136.455C628.241 136.455 628.068 136.439 627.912 136.408C627.755 136.379 627.639 136.348 627.562 136.314L627.869 135.27C628.102 135.332 628.309 135.359 628.491 135.351C628.673 135.342 628.833 135.274 628.973 135.146C629.115 135.018 629.24 134.81 629.348 134.52L629.505 134.085L627.11 127.455H628.474L630.132 132.534H630.2L631.858 127.455H633.225L630.528 134.874C630.403 135.214 630.244 135.503 630.051 135.739C629.858 135.977 629.627 136.156 629.36 136.276C629.093 136.395 628.784 136.455 628.431 136.455ZM636.957 134.132C636.324 134.132 635.778 133.989 635.321 133.702C634.866 133.412 634.517 133.013 634.273 132.504C634.028 131.996 633.906 131.413 633.906 130.757C633.906 130.092 634.031 129.506 634.281 128.997C634.531 128.486 634.884 128.087 635.338 127.8C635.793 127.513 636.328 127.369 636.945 127.369C637.442 127.369 637.885 127.462 638.274 127.646C638.663 127.828 638.977 128.084 639.216 128.413C639.457 128.743 639.601 129.128 639.646 129.568H638.406C638.338 129.261 638.182 128.997 637.938 128.776C637.696 128.554 637.372 128.443 636.966 128.443C636.611 128.443 636.3 128.537 636.033 128.724C635.768 128.909 635.563 129.173 635.415 129.517C635.267 129.858 635.193 130.261 635.193 130.727C635.193 131.205 635.266 131.616 635.411 131.963C635.555 132.31 635.76 132.578 636.024 132.768C636.291 132.959 636.605 133.054 636.966 133.054C637.207 133.054 637.426 133.01 637.622 132.922C637.821 132.831 637.987 132.702 638.121 132.534C638.257 132.366 638.352 132.165 638.406 131.929H639.646C639.601 132.352 639.463 132.73 639.233 133.062C639.003 133.395 638.695 133.656 638.308 133.847C637.925 134.037 637.474 134.132 636.957 134.132ZM647.479 125.273V134H646.158V126.594H646.107L644.018 127.957V126.696L646.196 125.273H647.479Z" fill="#2F3040" fill-opacity="0.72"/>
</svg>
