<svg width="149" height="24" viewBox="0 0 149 24" fill="none" xmlns="http://www.w3.org/2000/svg">
<path d="M6.86523 12.9121H7.86328C7.86328 13.6276 7.6582 14.1654 7.24805 14.5254C6.84245 14.8809 6.29102 15.0586 5.59375 15.0586C5.11068 15.0586 4.69141 14.9469 4.33594 14.7236C3.98503 14.5003 3.71159 14.1904 3.51562 13.7939C3.32422 13.3975 3.22852 12.9372 3.22852 12.4131V11.627C3.22852 11.1029 3.32422 10.6426 3.51562 10.2461C3.71159 9.84961 3.98503 9.53971 4.33594 9.31641C4.69141 9.0931 5.11068 8.98145 5.59375 8.98145C6.29102 8.98145 6.84473 9.15918 7.25488 9.51465C7.66504 9.87012 7.87012 10.4056 7.87012 11.1211H6.87207C6.87207 10.6699 6.7627 10.3464 6.54395 10.1504C6.32975 9.95443 6.01302 9.85645 5.59375 9.85645C5.29297 9.85645 5.04004 9.93164 4.83496 10.082C4.62988 10.2324 4.47493 10.4421 4.37012 10.7109C4.2653 10.9753 4.21289 11.2783 4.21289 11.6201V12.4131C4.21289 12.7594 4.2653 13.0671 4.37012 13.3359C4.47493 13.6003 4.62988 13.8076 4.83496 13.958C5.04004 14.1084 5.29297 14.1836 5.59375 14.1836C6.01302 14.1836 6.32975 14.0856 6.54395 13.8896C6.75814 13.6937 6.86523 13.3678 6.86523 12.9121ZM1.62207 12.0166C1.62207 12.6227 1.72689 13.1878 1.93652 13.7119C2.14616 14.236 2.43783 14.694 2.81152 15.0859C3.18522 15.4779 3.61816 15.7832 4.11035 16.002C4.60254 16.2207 5.12891 16.3301 5.68945 16.3301C6.25 16.3301 6.77409 16.2207 7.26172 16.002C7.75391 15.7832 8.18457 15.4779 8.55371 15.0859C8.92741 14.694 9.21908 14.236 9.42871 13.7119C9.63835 13.1878 9.74316 12.6227 9.74316 12.0166C9.74316 11.4059 9.63835 10.8408 9.42871 10.3213C9.21908 9.80176 8.92741 9.34831 8.55371 8.96094C8.18457 8.56901 7.75391 8.26595 7.26172 8.05176C6.77409 7.83301 6.25 7.72363 5.68945 7.72363C5.12891 7.72363 4.60254 7.83301 4.11035 8.05176C3.61816 8.26595 3.18522 8.56901 2.81152 8.96094C2.43783 9.34831 2.14616 9.80176 1.93652 10.3213C1.72689 10.8408 1.62207 11.4059 1.62207 12.0166ZM0.835938 12.0166C0.835938 11.292 0.961263 10.6198 1.21191 10C1.46257 9.38021 1.8112 8.84017 2.25781 8.37988C2.70443 7.91504 3.2194 7.55501 3.80273 7.2998C4.39062 7.04004 5.01953 6.91016 5.68945 6.91016C6.35938 6.91016 6.986 7.04004 7.56934 7.2998C8.15723 7.55501 8.6722 7.91504 9.11426 8.37988C9.56087 8.84017 9.90951 9.38021 10.1602 10C10.4108 10.6198 10.5361 11.292 10.5361 12.0166C10.5361 12.7412 10.4108 13.4134 10.1602 14.0332C9.90951 14.653 9.56087 15.1976 9.11426 15.667C8.6722 16.1318 8.15723 16.4941 7.56934 16.7539C6.986 17.0137 6.35938 17.1436 5.68945 17.1436C5.01953 17.1436 4.39062 17.0137 3.80273 16.7539C3.2194 16.4941 2.70443 16.1318 2.25781 15.667C1.8112 15.1976 1.46257 14.653 1.21191 14.0332C0.961263 13.4134 0.835938 12.7412 0.835938 12.0166ZM18.5615 15.9609V17H12.0469V16.0908L15.3076 12.4609C15.7087 12.0143 16.0186 11.6361 16.2373 11.3262C16.4606 11.0117 16.6156 10.7314 16.7021 10.4854C16.7933 10.2347 16.8389 9.97949 16.8389 9.71973C16.8389 9.3916 16.7705 9.09538 16.6338 8.83105C16.5016 8.56217 16.3057 8.34798 16.0459 8.18848C15.7861 8.02897 15.4717 7.94922 15.1025 7.94922C14.6605 7.94922 14.2913 8.03581 13.9951 8.20898C13.7035 8.3776 13.4847 8.61458 13.3389 8.91992C13.193 9.22526 13.1201 9.57617 13.1201 9.97266H11.8555C11.8555 9.41211 11.9785 8.89941 12.2246 8.43457C12.4707 7.96973 12.8353 7.60059 13.3184 7.32715C13.8014 7.04915 14.3962 6.91016 15.1025 6.91016C15.7314 6.91016 16.2692 7.02181 16.7158 7.24512C17.1624 7.46387 17.5042 7.77376 17.7412 8.1748C17.9827 8.57129 18.1035 9.03613 18.1035 9.56934C18.1035 9.861 18.0534 10.1572 17.9531 10.458C17.8574 10.7542 17.723 11.0505 17.5498 11.3467C17.3812 11.6429 17.1829 11.9346 16.9551 12.2217C16.7318 12.5088 16.4925 12.7913 16.2373 13.0693L13.5713 15.9609H18.5615ZM26.2998 11.2305V12.748C26.2998 13.5638 26.2269 14.252 26.0811 14.8125C25.9352 15.373 25.7256 15.8242 25.4521 16.166C25.1787 16.5078 24.8483 16.7562 24.4609 16.9111C24.0781 17.0615 23.6452 17.1367 23.1621 17.1367C22.7793 17.1367 22.4261 17.0889 22.1025 16.9932C21.779 16.8975 21.4873 16.7448 21.2275 16.5352C20.9723 16.321 20.7536 16.043 20.5713 15.7012C20.389 15.3594 20.25 14.9447 20.1543 14.457C20.0586 13.9694 20.0107 13.3997 20.0107 12.748V11.2305C20.0107 10.4147 20.0837 9.73112 20.2295 9.17969C20.3799 8.62826 20.5918 8.1862 20.8652 7.85352C21.1387 7.51628 21.4668 7.27474 21.8496 7.12891C22.237 6.98307 22.6699 6.91016 23.1484 6.91016C23.5358 6.91016 23.8913 6.95801 24.2148 7.05371C24.543 7.14486 24.8346 7.29297 25.0898 7.49805C25.3451 7.69857 25.5615 7.96745 25.7393 8.30469C25.9215 8.63737 26.0605 9.04525 26.1562 9.52832C26.252 10.0114 26.2998 10.5788 26.2998 11.2305ZM25.0283 12.9531V11.0186C25.0283 10.5719 25.001 10.18 24.9463 9.84277C24.8962 9.50098 24.821 9.20931 24.7207 8.96777C24.6204 8.72624 24.4928 8.53027 24.3379 8.37988C24.1875 8.22949 24.012 8.12012 23.8115 8.05176C23.6156 7.97884 23.3945 7.94238 23.1484 7.94238C22.8477 7.94238 22.5811 7.99935 22.3486 8.11328C22.1162 8.22266 21.9202 8.39811 21.7607 8.63965C21.6058 8.88118 21.4873 9.19792 21.4053 9.58984C21.3232 9.98177 21.2822 10.458 21.2822 11.0186V12.9531C21.2822 13.3997 21.3073 13.7939 21.3574 14.1357C21.4121 14.4775 21.4919 14.7738 21.5967 15.0244C21.7015 15.2705 21.8291 15.4733 21.9795 15.6328C22.1299 15.7923 22.3031 15.9108 22.499 15.9883C22.6995 16.0612 22.9206 16.0977 23.1621 16.0977C23.472 16.0977 23.7432 16.0384 23.9756 15.9199C24.208 15.8014 24.4017 15.6169 24.5566 15.3662C24.7161 15.111 24.8346 14.7852 24.9121 14.3887C24.9896 13.9876 25.0283 13.5091 25.0283 12.9531ZM34.585 15.9609V17H28.0703V16.0908L31.3311 12.4609C31.7321 12.0143 32.042 11.6361 32.2607 11.3262C32.484 11.0117 32.639 10.7314 32.7256 10.4854C32.8167 10.2347 32.8623 9.97949 32.8623 9.71973C32.8623 9.3916 32.7939 9.09538 32.6572 8.83105C32.5251 8.56217 32.3291 8.34798 32.0693 8.18848C31.8096 8.02897 31.4951 7.94922 31.126 7.94922C30.6839 7.94922 30.3148 8.03581 30.0186 8.20898C29.7269 8.3776 29.5081 8.61458 29.3623 8.91992C29.2165 9.22526 29.1436 9.57617 29.1436 9.97266H27.8789C27.8789 9.41211 28.002 8.89941 28.248 8.43457C28.4941 7.96973 28.8587 7.60059 29.3418 7.32715C29.8249 7.04915 30.4196 6.91016 31.126 6.91016C31.7549 6.91016 32.2926 7.02181 32.7393 7.24512C33.1859 7.46387 33.5277 7.77376 33.7646 8.1748C34.0062 8.57129 34.127 9.03613 34.127 9.56934C34.127 9.861 34.0768 10.1572 33.9766 10.458C33.8809 10.7542 33.7464 11.0505 33.5732 11.3467C33.4046 11.6429 33.2064 11.9346 32.9785 12.2217C32.7552 12.5088 32.516 12.7913 32.2607 13.0693L29.5947 15.9609H34.585ZM37.7842 11.4014H38.6865C39.1286 11.4014 39.4932 11.3285 39.7803 11.1826C40.0719 11.0322 40.2884 10.8294 40.4297 10.5742C40.5755 10.3145 40.6484 10.0228 40.6484 9.69922C40.6484 9.31641 40.5846 8.99512 40.457 8.73535C40.3294 8.47559 40.138 8.27962 39.8828 8.14746C39.6276 8.0153 39.304 7.94922 38.9121 7.94922C38.5566 7.94922 38.2422 8.01986 37.9688 8.16113C37.6999 8.29785 37.488 8.49382 37.333 8.74902C37.1826 9.00423 37.1074 9.30501 37.1074 9.65137H35.8428C35.8428 9.14551 35.9704 8.68522 36.2256 8.27051C36.4808 7.85579 36.8385 7.52539 37.2988 7.2793C37.7637 7.0332 38.3014 6.91016 38.9121 6.91016C39.5137 6.91016 40.04 7.01725 40.4912 7.23145C40.9424 7.44108 41.2933 7.75553 41.5439 8.1748C41.7946 8.58952 41.9199 9.10677 41.9199 9.72656C41.9199 9.97721 41.8607 10.2461 41.7422 10.5332C41.6283 10.8158 41.4482 11.0801 41.2021 11.3262C40.9606 11.5723 40.6462 11.7751 40.2588 11.9346C39.8714 12.0895 39.4066 12.167 38.8643 12.167H37.7842V11.4014ZM37.7842 12.4404V11.6816H38.8643C39.4977 11.6816 40.0218 11.7568 40.4365 11.9072C40.8512 12.0576 41.1771 12.2581 41.4141 12.5088C41.6556 12.7594 41.8242 13.0352 41.9199 13.3359C42.0202 13.6322 42.0703 13.9284 42.0703 14.2246C42.0703 14.6895 41.9906 15.1019 41.8311 15.4619C41.6761 15.8219 41.4551 16.1273 41.168 16.3779C40.8854 16.6286 40.5527 16.8177 40.1699 16.9453C39.7871 17.0729 39.3701 17.1367 38.9189 17.1367C38.486 17.1367 38.0781 17.0752 37.6953 16.9521C37.3171 16.8291 36.9821 16.6514 36.6904 16.4189C36.3988 16.182 36.1709 15.8926 36.0068 15.5508C35.8428 15.2044 35.7607 14.8102 35.7607 14.3682H37.0254C37.0254 14.7145 37.1006 15.0176 37.251 15.2773C37.4059 15.5371 37.6247 15.7399 37.9072 15.8857C38.1943 16.027 38.5316 16.0977 38.9189 16.0977C39.3063 16.0977 39.639 16.0316 39.917 15.8994C40.1995 15.7627 40.416 15.5576 40.5664 15.2842C40.7214 15.0107 40.7988 14.6667 40.7988 14.252C40.7988 13.8372 40.7122 13.4977 40.5391 13.2334C40.3659 12.9645 40.1198 12.7663 39.8008 12.6387C39.4863 12.5065 39.1149 12.4404 38.6865 12.4404H37.7842ZM48.6807 7.04688V18.8457H47.6621V7.04688H48.6807ZM54.9219 7.04688H56.2002L59.4609 15.1611L62.7148 7.04688H64L59.9531 17H58.9551L54.9219 7.04688ZM54.5049 7.04688H55.6328L55.8174 13.1172V17H54.5049V7.04688ZM63.2822 7.04688H64.4102V17H63.0977V13.1172L63.2822 7.04688ZM70.5352 7.92871L67.2402 17H65.8936L69.6875 7.04688H70.5557L70.5352 7.92871ZM73.2969 17L69.9951 7.92871L69.9746 7.04688H70.8428L74.6504 17H73.2969ZM73.126 13.3154V14.3955H67.5342V13.3154H73.126ZM78.6768 17H76.5986L76.6123 15.9268H78.6768C79.3877 15.9268 79.9801 15.7786 80.4541 15.4824C80.9281 15.1816 81.2835 14.7624 81.5205 14.2246C81.762 13.6823 81.8828 13.0488 81.8828 12.3242V11.7158C81.8828 11.1462 81.8145 10.6403 81.6777 10.1982C81.541 9.75163 81.3405 9.37565 81.0762 9.07031C80.8118 8.76042 80.4883 8.52572 80.1055 8.36621C79.7272 8.20671 79.292 8.12695 78.7998 8.12695H76.5576V7.04688H78.7998C79.4515 7.04688 80.0462 7.15625 80.584 7.375C81.1217 7.58919 81.5843 7.90137 81.9717 8.31152C82.3636 8.71712 82.6644 9.20931 82.874 9.78809C83.0837 10.3623 83.1885 11.0094 83.1885 11.7295V12.3242C83.1885 13.0443 83.0837 13.6937 82.874 14.2725C82.6644 14.8467 82.3613 15.3366 81.9648 15.7422C81.5729 16.1478 81.099 16.46 80.543 16.6787C79.9915 16.8929 79.3695 17 78.6768 17ZM77.3027 7.04688V17H75.9834V7.04688H77.3027ZM86.2441 11.0254V19.8438H84.9727V9.60352H86.1348L86.2441 11.0254ZM91.2275 13.2402V13.3838C91.2275 13.9215 91.1637 14.4206 91.0361 14.8809C90.9085 15.3366 90.7217 15.7331 90.4756 16.0703C90.234 16.4076 89.9355 16.6696 89.5801 16.8564C89.2246 17.0433 88.8167 17.1367 88.3564 17.1367C87.887 17.1367 87.4723 17.0592 87.1123 16.9043C86.7523 16.7493 86.4469 16.5238 86.1963 16.2275C85.9456 15.9313 85.7451 15.5758 85.5947 15.1611C85.4489 14.7464 85.3486 14.2793 85.2939 13.7598V12.9941C85.3486 12.4473 85.4512 11.9574 85.6016 11.5244C85.752 11.0915 85.9502 10.7223 86.1963 10.417C86.4469 10.1071 86.75 9.8724 87.1055 9.71289C87.4609 9.54883 87.8711 9.4668 88.3359 9.4668C88.8008 9.4668 89.2132 9.55794 89.5732 9.74023C89.9333 9.91797 90.2363 10.1732 90.4824 10.5059C90.7285 10.8385 90.9131 11.2373 91.0361 11.7021C91.1637 12.1624 91.2275 12.6751 91.2275 13.2402ZM89.9561 13.3838V13.2402C89.9561 12.8711 89.9173 12.5247 89.8398 12.2012C89.7624 11.873 89.6416 11.5859 89.4775 11.3398C89.318 11.0892 89.113 10.8932 88.8623 10.752C88.6117 10.6061 88.3132 10.5332 87.9668 10.5332C87.6478 10.5332 87.3698 10.5879 87.1328 10.6973C86.9004 10.8066 86.7021 10.9548 86.5381 11.1416C86.374 11.3239 86.2396 11.5335 86.1348 11.7705C86.0345 12.0029 85.9593 12.2445 85.9092 12.4951V14.2656C86.0003 14.5846 86.1279 14.8854 86.292 15.168C86.4561 15.446 86.6748 15.6715 86.9482 15.8447C87.2217 16.0133 87.5658 16.0977 87.9805 16.0977C88.3223 16.0977 88.6162 16.027 88.8623 15.8857C89.113 15.7399 89.318 15.5417 89.4775 15.291C89.6416 15.0404 89.7624 14.7533 89.8398 14.4297C89.9173 14.1016 89.9561 13.7529 89.9561 13.3838ZM94.1055 10.7656V17H92.8408V9.60352H94.0713L94.1055 10.7656ZM96.416 9.5625L96.4092 10.7383C96.3044 10.7155 96.2041 10.7018 96.1084 10.6973C96.0173 10.6882 95.9124 10.6836 95.7939 10.6836C95.5023 10.6836 95.2448 10.7292 95.0215 10.8203C94.7982 10.9115 94.609 11.0391 94.4541 11.2031C94.2992 11.3672 94.1761 11.5632 94.085 11.791C93.9984 12.0143 93.9414 12.2604 93.9141 12.5293L93.5586 12.7344C93.5586 12.2878 93.6019 11.8685 93.6885 11.4766C93.7796 11.0846 93.9186 10.7383 94.1055 10.4375C94.2923 10.1322 94.5293 9.89518 94.8164 9.72656C95.1081 9.55339 95.4544 9.4668 95.8555 9.4668C95.9466 9.4668 96.0514 9.47819 96.1699 9.50098C96.2884 9.51921 96.3704 9.53971 96.416 9.5625ZM97.1133 13.3838V13.2266C97.1133 12.6934 97.1908 12.1989 97.3457 11.7432C97.5007 11.2829 97.724 10.8841 98.0156 10.5469C98.3073 10.2051 98.6605 9.94076 99.0752 9.75391C99.4899 9.5625 99.9548 9.4668 100.47 9.4668C100.989 9.4668 101.456 9.5625 101.871 9.75391C102.29 9.94076 102.646 10.2051 102.938 10.5469C103.234 10.8841 103.459 11.2829 103.614 11.7432C103.769 12.1989 103.847 12.6934 103.847 13.2266V13.3838C103.847 13.917 103.769 14.4115 103.614 14.8672C103.459 15.3229 103.234 15.7217 102.938 16.0635C102.646 16.4007 102.293 16.665 101.878 16.8564C101.468 17.0433 101.003 17.1367 100.483 17.1367C99.9639 17.1367 99.4967 17.0433 99.082 16.8564C98.6673 16.665 98.3118 16.4007 98.0156 16.0635C97.724 15.7217 97.5007 15.3229 97.3457 14.8672C97.1908 14.4115 97.1133 13.917 97.1133 13.3838ZM98.3779 13.2266V13.3838C98.3779 13.7529 98.4212 14.1016 98.5078 14.4297C98.5944 14.7533 98.7243 15.0404 98.8975 15.291C99.0752 15.5417 99.2962 15.7399 99.5605 15.8857C99.8249 16.027 100.132 16.0977 100.483 16.0977C100.83 16.0977 101.133 16.027 101.393 15.8857C101.657 15.7399 101.876 15.5417 102.049 15.291C102.222 15.0404 102.352 14.7533 102.438 14.4297C102.53 14.1016 102.575 13.7529 102.575 13.3838V13.2266C102.575 12.862 102.53 12.5179 102.438 12.1943C102.352 11.8662 102.22 11.5768 102.042 11.3262C101.869 11.071 101.65 10.8704 101.386 10.7246C101.126 10.5788 100.821 10.5059 100.47 10.5059C100.123 10.5059 99.818 10.5788 99.5537 10.7246C99.2939 10.8704 99.0752 11.071 98.8975 11.3262C98.7243 11.5768 98.5944 11.8662 98.5078 12.1943C98.4212 12.5179 98.3779 12.862 98.3779 13.2266ZM105.467 9.60352H106.738V17.8818C106.738 18.333 106.665 18.7158 106.52 19.0303C106.378 19.3447 106.164 19.5817 105.877 19.7412C105.594 19.9053 105.237 19.9873 104.804 19.9873C104.69 19.9873 104.558 19.9759 104.407 19.9531C104.252 19.9303 104.122 19.903 104.018 19.8711L104.024 18.8525C104.111 18.8708 104.209 18.8844 104.318 18.8936C104.428 18.9072 104.523 18.9141 104.605 18.9141C104.792 18.9141 104.95 18.8799 105.077 18.8115C105.205 18.7432 105.3 18.6338 105.364 18.4834C105.433 18.333 105.467 18.1325 105.467 17.8818V9.60352ZM105.337 7.6416C105.337 7.43652 105.401 7.26335 105.528 7.12207C105.656 6.98079 105.84 6.91016 106.082 6.91016C106.328 6.91016 106.515 6.98079 106.643 7.12207C106.77 7.26335 106.834 7.43652 106.834 7.6416C106.834 7.83757 106.77 8.00618 106.643 8.14746C106.515 8.28418 106.328 8.35254 106.082 8.35254C105.84 8.35254 105.656 8.28418 105.528 8.14746C105.401 8.00618 105.337 7.83757 105.337 7.6416ZM111.852 17.1367C111.337 17.1367 110.869 17.0501 110.45 16.877C110.035 16.6992 109.678 16.4508 109.377 16.1318C109.081 15.8128 108.853 15.4346 108.693 14.9971C108.534 14.5596 108.454 14.0811 108.454 13.5615V13.2744C108.454 12.6729 108.543 12.1374 108.721 11.668C108.898 11.194 109.14 10.793 109.445 10.4648C109.751 10.1367 110.097 9.88835 110.484 9.71973C110.872 9.55111 111.273 9.4668 111.688 9.4668C112.216 9.4668 112.672 9.55794 113.055 9.74023C113.442 9.92253 113.759 10.1777 114.005 10.5059C114.251 10.8294 114.433 11.2122 114.552 11.6543C114.67 12.0918 114.729 12.5703 114.729 13.0898V13.6572H109.206V12.625H113.465V12.5293C113.447 12.2012 113.378 11.8822 113.26 11.5723C113.146 11.2624 112.964 11.0072 112.713 10.8066C112.462 10.6061 112.12 10.5059 111.688 10.5059C111.4 10.5059 111.136 10.5674 110.895 10.6904C110.653 10.8089 110.446 10.9867 110.272 11.2236C110.099 11.4606 109.965 11.75 109.869 12.0918C109.773 12.4336 109.726 12.8278 109.726 13.2744V13.5615C109.726 13.9124 109.773 14.2428 109.869 14.5527C109.969 14.8581 110.113 15.127 110.3 15.3594C110.491 15.5918 110.721 15.7741 110.99 15.9062C111.264 16.0384 111.574 16.1045 111.92 16.1045C112.367 16.1045 112.745 16.0133 113.055 15.8311C113.365 15.6488 113.636 15.4049 113.868 15.0996L114.634 15.708C114.474 15.9495 114.271 16.1797 114.025 16.3984C113.779 16.6172 113.476 16.7949 113.116 16.9316C112.761 17.0684 112.339 17.1367 111.852 17.1367ZM119.166 16.0977C119.467 16.0977 119.745 16.0361 120 15.9131C120.255 15.79 120.465 15.6214 120.629 15.4072C120.793 15.1885 120.886 14.9401 120.909 14.6621H122.112C122.09 15.0996 121.941 15.5075 121.668 15.8857C121.399 16.2594 121.046 16.5625 120.608 16.7949C120.171 17.0228 119.69 17.1367 119.166 17.1367C118.61 17.1367 118.125 17.0387 117.71 16.8428C117.3 16.6468 116.958 16.3779 116.685 16.0361C116.416 15.6943 116.213 15.3024 116.076 14.8604C115.944 14.4137 115.878 13.9421 115.878 13.4453V13.1582C115.878 12.6615 115.944 12.1921 116.076 11.75C116.213 11.3034 116.416 10.9092 116.685 10.5674C116.958 10.2256 117.3 9.95671 117.71 9.76074C118.125 9.56478 118.61 9.4668 119.166 9.4668C119.745 9.4668 120.251 9.58529 120.684 9.82227C121.117 10.0547 121.456 10.3737 121.702 10.7793C121.953 11.1803 122.09 11.6361 122.112 12.1465H120.909C120.886 11.8411 120.8 11.5654 120.649 11.3193C120.504 11.0732 120.303 10.8773 120.048 10.7314C119.797 10.5811 119.503 10.5059 119.166 10.5059C118.779 10.5059 118.453 10.5833 118.188 10.7383C117.929 10.8887 117.721 11.0938 117.566 11.3535C117.416 11.6087 117.307 11.8936 117.238 12.208C117.174 12.5179 117.143 12.8346 117.143 13.1582V13.4453C117.143 13.7689 117.174 14.0879 117.238 14.4023C117.302 14.7168 117.409 15.0016 117.56 15.2568C117.715 15.512 117.922 15.7171 118.182 15.8721C118.446 16.0225 118.774 16.0977 119.166 16.0977ZM126.631 9.60352V10.5742H122.632V9.60352H126.631ZM123.985 7.80566H125.25V15.168C125.25 15.4186 125.289 15.6077 125.366 15.7354C125.444 15.863 125.544 15.9473 125.667 15.9883C125.79 16.0293 125.922 16.0498 126.063 16.0498C126.168 16.0498 126.278 16.0407 126.392 16.0225C126.51 15.9997 126.599 15.9814 126.658 15.9678L126.665 17C126.565 17.0319 126.433 17.0615 126.269 17.0889C126.109 17.1208 125.915 17.1367 125.688 17.1367C125.378 17.1367 125.093 17.0752 124.833 16.9521C124.573 16.8291 124.366 16.624 124.211 16.3369C124.061 16.0452 123.985 15.6533 123.985 15.1611V7.80566ZM128.135 16.3301C128.135 16.1159 128.201 15.9359 128.333 15.79C128.47 15.6396 128.666 15.5645 128.921 15.5645C129.176 15.5645 129.37 15.6396 129.502 15.79C129.639 15.9359 129.707 16.1159 129.707 16.3301C129.707 16.5397 129.639 16.7174 129.502 16.8633C129.37 17.0091 129.176 17.082 128.921 17.082C128.666 17.082 128.47 17.0091 128.333 16.8633C128.201 16.7174 128.135 16.5397 128.135 16.3301ZM134.875 17.1367C134.36 17.1367 133.893 17.0501 133.474 16.877C133.059 16.6992 132.701 16.4508 132.4 16.1318C132.104 15.8128 131.876 15.4346 131.717 14.9971C131.557 14.5596 131.478 14.0811 131.478 13.5615V13.2744C131.478 12.6729 131.566 12.1374 131.744 11.668C131.922 11.194 132.163 10.793 132.469 10.4648C132.774 10.1367 133.12 9.88835 133.508 9.71973C133.895 9.55111 134.296 9.4668 134.711 9.4668C135.24 9.4668 135.695 9.55794 136.078 9.74023C136.465 9.92253 136.782 10.1777 137.028 10.5059C137.274 10.8294 137.457 11.2122 137.575 11.6543C137.694 12.0918 137.753 12.5703 137.753 13.0898V13.6572H132.229V12.625H136.488V12.5293C136.47 12.2012 136.402 11.8822 136.283 11.5723C136.169 11.2624 135.987 11.0072 135.736 10.8066C135.486 10.6061 135.144 10.5059 134.711 10.5059C134.424 10.5059 134.16 10.5674 133.918 10.6904C133.676 10.8089 133.469 10.9867 133.296 11.2236C133.123 11.4606 132.988 11.75 132.893 12.0918C132.797 12.4336 132.749 12.8278 132.749 13.2744V13.5615C132.749 13.9124 132.797 14.2428 132.893 14.5527C132.993 14.8581 133.136 15.127 133.323 15.3594C133.515 15.5918 133.745 15.7741 134.014 15.9062C134.287 16.0384 134.597 16.1045 134.943 16.1045C135.39 16.1045 135.768 16.0133 136.078 15.8311C136.388 15.6488 136.659 15.4049 136.892 15.0996L137.657 15.708C137.498 15.9495 137.295 16.1797 137.049 16.3984C136.803 16.6172 136.5 16.7949 136.14 16.9316C135.784 17.0684 135.363 17.1367 134.875 17.1367ZM141.103 15.6875L143.003 9.60352H143.837L143.673 10.8135L141.738 17H140.925L141.103 15.6875ZM139.824 9.60352L141.444 15.7559L141.561 17H140.706L138.56 9.60352H139.824ZM145.655 15.708L147.2 9.60352H148.458L146.312 17H145.464L145.655 15.708ZM144.021 9.60352L145.881 15.585L146.093 17H145.286L143.297 10.7998L143.133 9.60352H144.021Z" fill="#F2F4FC" fill-opacity="0.64"/>
</svg>
