<svg width="479" height="358" viewBox="0 0 479 358" fill="none" xmlns="http://www.w3.org/2000/svg">
<path d="M220.256 52.7231L0.796997 190.534L220.256 328.344L439.728 190.534L220.256 52.7231Z" fill="white"/>
<g opacity="0.25">
<path d="M130.857 183.547C131.393 183.547 131.826 183.075 131.826 182.492C131.826 181.911 131.393 181.438 130.857 181.438C130.322 181.438 129.888 181.911 129.888 182.492C129.888 183.075 130.322 183.547 130.857 183.547Z" fill="#040919"/>
<path d="M141.989 190.534C142.524 190.534 142.958 190.062 142.958 189.48C142.958 188.897 142.524 188.426 141.989 188.426C141.453 188.426 141.02 188.897 141.02 189.48C141.02 190.062 141.453 190.534 141.989 190.534Z" fill="#040919"/>
<path d="M130.857 197.521C131.393 197.521 131.826 197.049 131.826 196.467C131.826 195.884 131.393 195.413 130.857 195.413C130.322 195.413 129.888 195.884 129.888 196.467C129.888 197.049 130.322 197.521 130.857 197.521Z" fill="#040919"/>
<path d="M153.12 197.521C153.655 197.521 154.089 197.049 154.089 196.467C154.089 195.884 153.655 195.413 153.12 195.413C152.585 195.413 152.151 195.884 152.151 196.467C152.151 197.049 152.585 197.521 153.12 197.521Z" fill="#040919"/>
<path d="M141.989 204.523C142.524 204.523 142.958 204.05 142.958 203.469C142.958 202.886 142.524 202.415 141.989 202.415C141.453 202.415 141.02 202.886 141.02 203.469C141.02 204.05 141.453 204.523 141.989 204.523Z" fill="#040919"/>
<path d="M130.857 211.509C131.393 211.509 131.826 211.038 131.826 210.455C131.826 209.874 131.393 209.401 130.857 209.401C130.322 209.401 129.888 209.874 129.888 210.455C129.888 211.038 130.322 211.509 130.857 211.509Z" fill="#040919"/>
<path d="M164.252 204.523C164.787 204.523 165.221 204.05 165.221 203.469C165.221 202.886 164.787 202.415 164.252 202.415C163.717 202.415 163.282 202.886 163.282 203.469C163.282 204.05 163.717 204.523 164.252 204.523Z" fill="#040919"/>
<path d="M153.12 211.509C153.655 211.509 154.089 211.038 154.089 210.455C154.089 209.874 153.655 209.401 153.12 209.401C152.585 209.401 152.151 209.874 152.151 210.455C152.151 211.038 152.585 211.509 153.12 211.509Z" fill="#040919"/>
<path d="M141.989 218.496C142.524 218.496 142.958 218.025 142.958 217.442C142.958 216.86 142.524 216.388 141.989 216.388C141.453 216.388 141.02 216.86 141.02 217.442C141.02 218.025 141.453 218.496 141.989 218.496Z" fill="#040919"/>
<path d="M130.857 225.484C131.393 225.484 131.826 225.011 131.826 224.43C131.826 223.847 131.393 223.375 130.857 223.375C130.322 223.375 129.888 223.847 129.888 224.43C129.888 225.011 130.322 225.484 130.857 225.484Z" fill="#040919"/>
<path d="M164.252 218.496C164.787 218.496 165.221 218.025 165.221 217.442C165.221 216.86 164.787 216.388 164.252 216.388C163.717 216.388 163.282 216.86 163.282 217.442C163.282 218.025 163.717 218.496 164.252 218.496Z" fill="#040919"/>
<path d="M153.12 225.484C153.655 225.484 154.089 225.011 154.089 224.43C154.089 223.847 153.655 223.375 153.12 223.375C152.585 223.375 152.151 223.847 152.151 224.43C152.151 225.011 152.585 225.484 153.12 225.484Z" fill="#040919"/>
<path d="M175.382 211.509C175.918 211.509 176.352 211.038 176.352 210.455C176.352 209.874 175.918 209.401 175.382 209.401C174.848 209.401 174.413 209.874 174.413 210.455C174.413 211.038 174.848 211.509 175.382 211.509Z" fill="#040919"/>
<path d="M141.989 232.485C142.524 232.485 142.958 232.013 142.958 231.431C142.958 230.849 142.524 230.377 141.989 230.377C141.453 230.377 141.02 230.849 141.02 231.431C141.02 232.013 141.453 232.485 141.989 232.485Z" fill="#040919"/>
<path d="M130.857 239.473C131.393 239.473 131.826 239 131.826 238.418C131.826 237.836 131.393 237.364 130.857 237.364C130.322 237.364 129.888 237.836 129.888 238.418C129.888 239 130.322 239.473 130.857 239.473Z" fill="#040919"/>
<path d="M119.726 190.534C120.262 190.534 120.695 190.062 120.695 189.48C120.695 188.897 120.262 188.426 119.726 188.426C119.191 188.426 118.757 188.897 118.757 189.48C118.757 190.062 119.191 190.534 119.726 190.534Z" fill="#040919"/>
<path d="M153.12 169.558C153.655 169.558 154.089 169.086 154.089 168.504C154.089 167.922 153.655 167.45 153.12 167.45C152.585 167.45 152.151 167.922 152.151 168.504C152.151 169.086 152.585 169.558 153.12 169.558Z" fill="#040919"/>
<path d="M164.252 176.56C164.787 176.56 165.221 176.088 165.221 175.506C165.221 174.923 164.787 174.452 164.252 174.452C163.717 174.452 163.282 174.923 163.282 175.506C163.282 176.088 163.717 176.56 164.252 176.56Z" fill="#040919"/>
<path d="M153.12 183.547C153.655 183.547 154.089 183.075 154.089 182.492C154.089 181.911 153.655 181.438 153.12 181.438C152.585 181.438 152.151 181.911 152.151 182.492C152.151 183.075 152.585 183.547 153.12 183.547Z" fill="#040919"/>
<path d="M175.382 183.547C175.918 183.547 176.352 183.075 176.352 182.492C176.352 181.911 175.918 181.438 175.382 181.438C174.848 181.438 174.413 181.911 174.413 182.492C174.413 183.075 174.848 183.547 175.382 183.547Z" fill="#040919"/>
<path d="M164.252 190.534C164.787 190.534 165.221 190.062 165.221 189.48C165.221 188.897 164.787 188.426 164.252 188.426C163.717 188.426 163.282 188.897 163.282 189.48C163.282 190.062 163.717 190.534 164.252 190.534Z" fill="#040919"/>
<path d="M186.514 190.534C187.05 190.534 187.484 190.062 187.484 189.48C187.484 188.897 187.05 188.426 186.514 188.426C185.98 188.426 185.545 188.897 185.545 189.48C185.545 190.062 185.98 190.534 186.514 190.534Z" fill="#040919"/>
<path d="M175.382 197.521C175.918 197.521 176.352 197.049 176.352 196.467C176.352 195.884 175.918 195.413 175.382 195.413C174.848 195.413 174.413 195.884 174.413 196.467C174.413 197.049 174.848 197.521 175.382 197.521Z" fill="#040919"/>
<path d="M186.514 204.523C187.05 204.523 187.484 204.05 187.484 203.469C187.484 202.886 187.05 202.415 186.514 202.415C185.98 202.415 185.545 202.886 185.545 203.469C185.545 204.05 185.98 204.523 186.514 204.523Z" fill="#040919"/>
<path d="M197.66 197.521C198.195 197.521 198.63 197.049 198.63 196.467C198.63 195.884 198.195 195.413 197.66 195.413C197.125 195.413 196.691 195.884 196.691 196.467C196.691 197.049 197.125 197.521 197.66 197.521Z" fill="#040919"/>
<path d="M141.989 176.56C142.524 176.56 142.958 176.088 142.958 175.506C142.958 174.923 142.524 174.452 141.989 174.452C141.453 174.452 141.02 174.923 141.02 175.506C141.02 176.088 141.453 176.56 141.989 176.56Z" fill="#040919"/>
<path d="M175.382 169.558C175.918 169.558 176.352 169.086 176.352 168.504C176.352 167.922 175.918 167.45 175.382 167.45C174.848 167.45 174.413 167.922 174.413 168.504C174.413 169.086 174.848 169.558 175.382 169.558Z" fill="#040919"/>
<path d="M186.514 176.56C187.05 176.56 187.484 176.088 187.484 175.506C187.484 174.923 187.05 174.452 186.514 174.452C185.98 174.452 185.545 174.923 185.545 175.506C185.545 176.088 185.98 176.56 186.514 176.56Z" fill="#040919"/>
<path d="M197.66 183.547C198.195 183.547 198.63 183.075 198.63 182.492C198.63 181.911 198.195 181.438 197.66 181.438C197.125 181.438 196.691 181.911 196.691 182.492C196.691 183.075 197.125 183.547 197.66 183.547Z" fill="#040919"/>
<path d="M208.791 190.534C209.326 190.534 209.761 190.062 209.761 189.48C209.761 188.897 209.326 188.426 208.791 188.426C208.256 188.426 207.822 188.897 207.822 189.48C207.822 190.062 208.256 190.534 208.791 190.534Z" fill="#040919"/>
<path d="M141.989 246.459C142.524 246.459 142.958 245.988 142.958 245.405C142.958 244.823 142.524 244.351 141.989 244.351C141.453 244.351 141.02 244.823 141.02 245.405C141.02 245.988 141.453 246.459 141.989 246.459Z" fill="#040919"/>
<path d="M208.791 204.523C209.326 204.523 209.761 204.05 209.761 203.469C209.761 202.886 209.326 202.415 208.791 202.415C208.256 202.415 207.822 202.886 207.822 203.469C207.822 204.05 208.256 204.523 208.791 204.523Z" fill="#040919"/>
<path d="M219.923 197.521C220.458 197.521 220.892 197.049 220.892 196.467C220.892 195.884 220.458 195.413 219.923 195.413C219.388 195.413 218.954 195.884 218.954 196.467C218.954 197.049 219.388 197.521 219.923 197.521Z" fill="#040919"/>
<path d="M153.12 253.461C153.655 253.461 154.089 252.989 154.089 252.407C154.089 251.825 153.655 251.353 153.12 251.353C152.585 251.353 152.151 251.825 152.151 252.407C152.151 252.989 152.585 253.461 153.12 253.461Z" fill="#040919"/>
<path d="M219.923 211.509C220.458 211.509 220.892 211.038 220.892 210.455C220.892 209.874 220.458 209.401 219.923 209.401C219.388 209.401 218.954 209.874 218.954 210.455C218.954 211.038 219.388 211.509 219.923 211.509Z" fill="#040919"/>
<path d="M231.054 204.523C231.59 204.523 232.023 204.05 232.023 203.469C232.023 202.886 231.59 202.415 231.054 202.415C230.519 202.415 230.085 202.886 230.085 203.469C230.085 204.05 230.519 204.523 231.054 204.523Z" fill="#040919"/>
<path d="M164.252 260.448C164.787 260.448 165.221 259.976 165.221 259.394C165.221 258.812 164.787 258.34 164.252 258.34C163.717 258.34 163.282 258.812 163.282 259.394C163.282 259.976 163.717 260.448 164.252 260.448Z" fill="#040919"/>
<path d="M231.054 218.496C231.59 218.496 232.023 218.025 232.023 217.442C232.023 216.86 231.59 216.388 231.054 216.388C230.519 216.388 230.085 216.86 230.085 217.442C230.085 218.025 230.519 218.496 231.054 218.496Z" fill="#040919"/>
<path d="M242.186 211.509C242.721 211.509 243.155 211.038 243.155 210.455C243.155 209.874 242.721 209.401 242.186 209.401C241.65 209.401 241.217 209.874 241.217 210.455C241.217 211.038 241.65 211.509 242.186 211.509Z" fill="#040919"/>
<path d="M175.382 267.435C175.918 267.435 176.352 266.963 176.352 266.381C176.352 265.799 175.918 265.327 175.382 265.327C174.848 265.327 174.413 265.799 174.413 266.381C174.413 266.963 174.848 267.435 175.382 267.435Z" fill="#040919"/>
<path d="M242.186 225.484C242.721 225.484 243.155 225.011 243.155 224.43C243.155 223.847 242.721 223.375 242.186 223.375C241.65 223.375 241.217 223.847 241.217 224.43C241.217 225.011 241.65 225.484 242.186 225.484Z" fill="#040919"/>
<path d="M253.317 218.496C253.852 218.496 254.286 218.025 254.286 217.442C254.286 216.86 253.852 216.388 253.317 216.388C252.782 216.388 252.348 216.86 252.348 217.442C252.348 218.025 252.782 218.496 253.317 218.496Z" fill="#040919"/>
<path d="M186.514 274.422C187.05 274.422 187.484 273.95 187.484 273.368C187.484 272.786 187.05 272.314 186.514 272.314C185.98 272.314 185.545 272.786 185.545 273.368C185.545 273.95 185.98 274.422 186.514 274.422Z" fill="#040919"/>
<path d="M253.317 232.485C253.852 232.485 254.286 232.013 254.286 231.431C254.286 230.849 253.852 230.377 253.317 230.377C252.782 230.377 252.348 230.849 252.348 231.431C252.348 232.013 252.782 232.485 253.317 232.485Z" fill="#040919"/>
<path d="M264.449 225.484C264.984 225.484 265.418 225.011 265.418 224.43C265.418 223.847 264.984 223.375 264.449 223.375C263.913 223.375 263.479 223.847 263.479 224.43C263.479 225.011 263.913 225.484 264.449 225.484Z" fill="#040919"/>
<path d="M197.66 281.424C198.195 281.424 198.63 280.952 198.63 280.369C198.63 279.788 198.195 279.315 197.66 279.315C197.125 279.315 196.691 279.788 196.691 280.369C196.691 280.952 197.125 281.424 197.66 281.424Z" fill="#040919"/>
<path d="M264.449 239.473C264.984 239.473 265.418 239 265.418 238.418C265.418 237.836 264.984 237.364 264.449 237.364C263.913 237.364 263.479 237.836 263.479 238.418C263.479 239 263.913 239.473 264.449 239.473Z" fill="#040919"/>
<path d="M275.594 232.485C276.129 232.485 276.563 232.013 276.563 231.431C276.563 230.849 276.129 230.377 275.594 230.377C275.058 230.377 274.625 230.849 274.625 231.431C274.625 232.013 275.058 232.485 275.594 232.485Z" fill="#040919"/>
<path d="M242.186 267.435C242.721 267.435 243.155 266.963 243.155 266.381C243.155 265.799 242.721 265.327 242.186 265.327C241.65 265.327 241.217 265.799 241.217 266.381C241.217 266.963 241.65 267.435 242.186 267.435Z" fill="#040919"/>
<path d="M231.054 274.422C231.59 274.422 232.023 273.95 232.023 273.368C232.023 272.786 231.59 272.314 231.054 272.314C230.519 272.314 230.085 272.786 230.085 273.368C230.085 273.95 230.519 274.422 231.054 274.422Z" fill="#040919"/>
<path d="M253.317 260.448C253.852 260.448 254.286 259.976 254.286 259.394C254.286 258.812 253.852 258.34 253.317 258.34C252.782 258.34 252.348 258.812 252.348 259.394C252.348 259.976 252.782 260.448 253.317 260.448Z" fill="#040919"/>
<path d="M219.923 281.424C220.458 281.424 220.892 280.952 220.892 280.369C220.892 279.788 220.458 279.315 219.923 279.315C219.388 279.315 218.954 279.788 218.954 280.369C218.954 280.952 219.388 281.424 219.923 281.424Z" fill="#040919"/>
<path d="M208.791 288.411C209.326 288.411 209.761 287.939 209.761 287.357C209.761 286.774 209.326 286.303 208.791 286.303C208.256 286.303 207.822 286.774 207.822 287.357C207.822 287.939 208.256 288.411 208.791 288.411Z" fill="#040919"/>
<path d="M264.449 253.461C264.984 253.461 265.418 252.989 265.418 252.407C265.418 251.825 264.984 251.353 264.449 251.353C263.913 251.353 263.479 251.825 263.479 252.407C263.479 252.989 263.913 253.461 264.449 253.461Z" fill="#040919"/>
<path d="M275.594 246.459C276.129 246.459 276.563 245.988 276.563 245.405C276.563 244.823 276.129 244.351 275.594 244.351C275.058 244.351 274.625 244.823 274.625 245.405C274.625 245.988 275.058 246.459 275.594 246.459Z" fill="#040919"/>
<path d="M286.725 239.473C287.26 239.473 287.694 239 287.694 238.418C287.694 237.836 287.26 237.364 286.725 237.364C286.19 237.364 285.756 237.836 285.756 238.418C285.756 239 286.19 239.473 286.725 239.473Z" fill="#040919"/>
<path d="M253.317 274.422C253.852 274.422 254.286 273.95 254.286 273.368C254.286 272.786 253.852 272.314 253.317 272.314C252.782 272.314 252.348 272.786 252.348 273.368C252.348 273.95 252.782 274.422 253.317 274.422Z" fill="#040919"/>
<path d="M242.186 281.424C242.721 281.424 243.155 280.952 243.155 280.369C243.155 279.788 242.721 279.315 242.186 279.315C241.65 279.315 241.217 279.788 241.217 280.369C241.217 280.952 241.65 281.424 242.186 281.424Z" fill="#040919"/>
<path d="M264.449 267.435C264.984 267.435 265.418 266.963 265.418 266.381C265.418 265.799 264.984 265.327 264.449 265.327C263.913 265.327 263.479 265.799 263.479 266.381C263.479 266.963 263.913 267.435 264.449 267.435Z" fill="#040919"/>
<path d="M231.054 288.411C231.59 288.411 232.023 287.939 232.023 287.357C232.023 286.774 231.59 286.303 231.054 286.303C230.519 286.303 230.085 286.774 230.085 287.357C230.085 287.939 230.519 288.411 231.054 288.411Z" fill="#040919"/>
<path d="M219.923 295.398C220.458 295.398 220.892 294.926 220.892 294.344C220.892 293.761 220.458 293.29 219.923 293.29C219.388 293.29 218.954 293.761 218.954 294.344C218.954 294.926 219.388 295.398 219.923 295.398Z" fill="#040919"/>
<path d="M275.594 260.448C276.129 260.448 276.563 259.976 276.563 259.394C276.563 258.812 276.129 258.34 275.594 258.34C275.058 258.34 274.625 258.812 274.625 259.394C274.625 259.976 275.058 260.448 275.594 260.448Z" fill="#040919"/>
<path d="M286.725 253.461C287.26 253.461 287.694 252.989 287.694 252.407C287.694 251.825 287.26 251.353 286.725 251.353C286.19 251.353 285.756 251.825 285.756 252.407C285.756 252.989 286.19 253.461 286.725 253.461Z" fill="#040919"/>
<path d="M297.857 246.459C298.392 246.459 298.826 245.988 298.826 245.405C298.826 244.823 298.392 244.351 297.857 244.351C297.322 244.351 296.888 244.823 296.888 245.405C296.888 245.988 297.322 246.459 297.857 246.459Z" fill="#040919"/>
<path d="M308.988 239.473C309.523 239.473 309.957 239 309.957 238.418C309.957 237.836 309.523 237.364 308.988 237.364C308.453 237.364 308.019 237.836 308.019 238.418C308.019 239 308.453 239.473 308.988 239.473Z" fill="#040919"/>
<path d="M164.252 162.571C164.787 162.571 165.221 162.099 165.221 161.517C165.221 160.935 164.787 160.463 164.252 160.463C163.717 160.463 163.282 160.935 163.282 161.517C163.282 162.099 163.717 162.571 164.252 162.571Z" fill="#040919"/>
<path d="M108.581 197.521C109.116 197.521 109.55 197.049 109.55 196.467C109.55 195.884 109.116 195.413 108.581 195.413C108.045 195.413 107.612 195.884 107.612 196.467C107.612 197.049 108.045 197.521 108.581 197.521Z" fill="#040919"/>
<path d="M119.726 204.523C120.262 204.523 120.695 204.05 120.695 203.469C120.695 202.886 120.262 202.415 119.726 202.415C119.191 202.415 118.757 202.886 118.757 203.469C118.757 204.05 119.191 204.523 119.726 204.523Z" fill="#040919"/>
<path d="M97.449 204.523C97.9846 204.523 98.4182 204.05 98.4182 203.469C98.4182 202.886 97.9846 202.415 97.449 202.415C96.9142 202.415 96.4799 202.886 96.4799 203.469C96.4799 204.05 96.9142 204.523 97.449 204.523Z" fill="#040919"/>
<path d="M108.581 211.509C109.116 211.509 109.55 211.038 109.55 210.455C109.55 209.874 109.116 209.401 108.581 209.401C108.045 209.401 107.612 209.874 107.612 210.455C107.612 211.038 108.045 211.509 108.581 211.509Z" fill="#040919"/>
<path d="M119.726 218.496C120.262 218.496 120.695 218.025 120.695 217.442C120.695 216.86 120.262 216.388 119.726 216.388C119.191 216.388 118.757 216.86 118.757 217.442C118.757 218.025 119.191 218.496 119.726 218.496Z" fill="#040919"/>
<path d="M97.449 218.496C97.9846 218.496 98.4182 218.025 98.4182 217.442C98.4182 216.86 97.9846 216.388 97.449 216.388C96.9142 216.388 96.4799 216.86 96.4799 217.442C96.4799 218.025 96.9142 218.496 97.449 218.496Z" fill="#040919"/>
<path d="M108.581 225.484C109.116 225.484 109.55 225.011 109.55 224.43C109.55 223.847 109.116 223.375 108.581 223.375C108.045 223.375 107.612 223.847 107.612 224.43C107.612 225.011 108.045 225.484 108.581 225.484Z" fill="#040919"/>
<path d="M86.318 211.509C86.8536 211.509 87.2872 211.038 87.2872 210.455C87.2872 209.874 86.8536 209.401 86.318 209.401C85.7825 209.401 85.3489 209.874 85.3489 210.455C85.3489 211.038 85.7825 211.509 86.318 211.509Z" fill="#040919"/>
<path d="M119.726 232.485C120.262 232.485 120.695 232.013 120.695 231.431C120.695 230.849 120.262 230.377 119.726 230.377C119.191 230.377 118.757 230.849 118.757 231.431C118.757 232.013 119.191 232.485 119.726 232.485Z" fill="#040919"/>
<path d="M97.449 190.534C97.9846 190.534 98.4182 190.062 98.4182 189.48C98.4182 188.897 97.9846 188.426 97.449 188.426C96.9142 188.426 96.4799 188.897 96.4799 189.48C96.4799 190.062 96.9142 190.534 97.449 190.534Z" fill="#040919"/>
<path d="M86.318 197.521C86.8536 197.521 87.2872 197.049 87.2872 196.467C87.2872 195.884 86.8536 195.413 86.318 195.413C85.7825 195.413 85.3489 195.884 85.3489 196.467C85.3489 197.049 85.7825 197.521 86.318 197.521Z" fill="#040919"/>
<path d="M119.726 176.56C120.262 176.56 120.695 176.088 120.695 175.506C120.695 174.923 120.262 174.452 119.726 174.452C119.191 174.452 118.757 174.923 118.757 175.506C118.757 176.088 119.191 176.56 119.726 176.56Z" fill="#040919"/>
<path d="M108.581 183.547C109.116 183.547 109.55 183.075 109.55 182.492C109.55 181.911 109.116 181.438 108.581 181.438C108.045 181.438 107.612 181.911 107.612 182.492C107.612 183.075 108.045 183.547 108.581 183.547Z" fill="#040919"/>
<path d="M130.857 169.558C131.393 169.558 131.826 169.086 131.826 168.504C131.826 167.922 131.393 167.45 130.857 167.45C130.322 167.45 129.888 167.922 129.888 168.504C129.888 169.086 130.322 169.558 130.857 169.558Z" fill="#040919"/>
<path d="M75.1863 204.523C75.7216 204.523 76.1556 204.05 76.1556 203.469C76.1556 202.886 75.7216 202.415 75.1863 202.415C74.6511 202.415 74.2172 202.886 74.2172 203.469C74.2172 204.05 74.6511 204.523 75.1863 204.523Z" fill="#040919"/>
<path d="M97.449 162.571C97.9846 162.571 98.4182 162.099 98.4182 161.517C98.4182 160.935 97.9846 160.463 97.449 160.463C96.9142 160.463 96.4799 160.935 96.4799 161.517C96.4799 162.099 96.9142 162.571 97.449 162.571Z" fill="#040919"/>
<path d="M86.318 169.558C86.8536 169.558 87.2872 169.086 87.2872 168.504C87.2872 167.922 86.8536 167.45 86.318 167.45C85.7825 167.45 85.3489 167.922 85.3489 168.504C85.3489 169.086 85.7825 169.558 86.318 169.558Z" fill="#040919"/>
<path d="M75.1863 176.56C75.7216 176.56 76.1556 176.088 76.1556 175.506C76.1556 174.923 75.7216 174.452 75.1863 174.452C74.6511 174.452 74.2172 174.923 74.2172 175.506C74.2172 176.088 74.6511 176.56 75.1863 176.56Z" fill="#040919"/>
<path d="M64.0551 183.547C64.5903 183.547 65.0243 183.075 65.0243 182.492C65.0243 181.911 64.5903 181.438 64.0551 181.438C63.5198 181.438 63.0859 181.911 63.0859 182.492C63.0859 183.075 63.5198 183.547 64.0551 183.547Z" fill="#040919"/>
<path d="M97.449 176.56C97.9846 176.56 98.4182 176.088 98.4182 175.506C98.4182 174.923 97.9846 174.452 97.449 174.452C96.9142 174.452 96.4799 174.923 96.4799 175.506C96.4799 176.088 96.9142 176.56 97.449 176.56Z" fill="#040919"/>
<path d="M86.318 183.547C86.8536 183.547 87.2872 183.075 87.2872 182.492C87.2872 181.911 86.8536 181.438 86.318 181.438C85.7825 181.438 85.3489 181.911 85.3489 182.492C85.3489 183.075 85.7825 183.547 86.318 183.547Z" fill="#040919"/>
<path d="M108.581 169.558C109.116 169.558 109.55 169.086 109.55 168.504C109.55 167.922 109.116 167.45 108.581 167.45C108.045 167.45 107.612 167.922 107.612 168.504C107.612 169.086 108.045 169.558 108.581 169.558Z" fill="#040919"/>
<path d="M75.1863 190.534C75.7216 190.534 76.1556 190.062 76.1556 189.48C76.1556 188.897 75.7216 188.426 75.1863 188.426C74.6511 188.426 74.2172 188.897 74.2172 189.48C74.2172 190.062 74.6511 190.534 75.1863 190.534Z" fill="#040919"/>
<path d="M64.0551 197.521C64.5903 197.521 65.0243 197.049 65.0243 196.467C65.0243 195.884 64.5903 195.413 64.0551 195.413C63.5198 195.413 63.0859 195.884 63.0859 196.467C63.0859 197.049 63.5198 197.521 64.0551 197.521Z" fill="#040919"/>
<path d="M141.989 162.571C142.524 162.571 142.958 162.099 142.958 161.517C142.958 160.935 142.524 160.463 141.989 160.463C141.453 160.463 141.02 160.935 141.02 161.517C141.02 162.099 141.453 162.571 141.989 162.571Z" fill="#040919"/>
<path d="M119.726 148.582C120.262 148.582 120.695 148.111 120.695 147.528C120.695 146.946 120.262 146.474 119.726 146.474C119.191 146.474 118.757 146.946 118.757 147.528C118.757 148.111 119.191 148.582 119.726 148.582Z" fill="#040919"/>
<path d="M108.581 155.584C109.116 155.584 109.55 155.113 109.55 154.53C109.55 153.948 109.116 153.476 108.581 153.476C108.045 153.476 107.612 153.948 107.612 154.53C107.612 155.113 108.045 155.584 108.581 155.584Z" fill="#040919"/>
<path d="M119.726 162.571C120.262 162.571 120.695 162.099 120.695 161.517C120.695 160.935 120.262 160.463 119.726 160.463C119.191 160.463 118.757 160.935 118.757 161.517C118.757 162.099 119.191 162.571 119.726 162.571Z" fill="#040919"/>
<path d="M130.857 155.584C131.393 155.584 131.826 155.113 131.826 154.53C131.826 153.948 131.393 153.476 130.857 153.476C130.322 153.476 129.888 153.948 129.888 154.53C129.888 155.113 130.322 155.584 130.857 155.584Z" fill="#040919"/>
<path d="M153.12 155.584C153.655 155.584 154.089 155.113 154.089 154.53C154.089 153.948 153.655 153.476 153.12 153.476C152.585 153.476 152.151 153.948 152.151 154.53C152.151 155.113 152.585 155.584 153.12 155.584Z" fill="#040919"/>
<path d="M130.857 141.595C131.393 141.595 131.826 141.123 131.826 140.541C131.826 139.959 131.393 139.487 130.857 139.487C130.322 139.487 129.888 139.959 129.888 140.541C129.888 141.123 130.322 141.595 130.857 141.595Z" fill="#040919"/>
<path d="M141.989 148.582C142.524 148.582 142.958 148.111 142.958 147.528C142.958 146.946 142.524 146.474 141.989 146.474C141.453 146.474 141.02 146.946 141.02 147.528C141.02 148.111 141.453 148.582 141.989 148.582Z" fill="#040919"/>
<path d="M52.9235 190.534C53.4588 190.534 53.8927 190.062 53.8927 189.48C53.8927 188.897 53.4588 188.426 52.9235 188.426C52.3883 188.426 51.9543 188.897 51.9543 189.48C51.9543 190.062 52.3883 190.534 52.9235 190.534Z" fill="#040919"/>
<path d="M219.923 127.621C220.458 127.621 220.892 127.15 220.892 126.567C220.892 125.985 220.458 125.513 219.923 125.513C219.388 125.513 218.954 125.985 218.954 126.567C218.954 127.15 219.388 127.621 219.923 127.621Z" fill="#040919"/>
<path d="M231.054 134.608C231.59 134.608 232.023 134.136 232.023 133.554C232.023 132.972 231.59 132.5 231.054 132.5C230.519 132.5 230.085 132.972 230.085 133.554C230.085 134.136 230.519 134.608 231.054 134.608Z" fill="#040919"/>
<path d="M219.923 141.595C220.458 141.595 220.892 141.123 220.892 140.541C220.892 139.959 220.458 139.487 219.923 139.487C219.388 139.487 218.954 139.959 218.954 140.541C218.954 141.123 219.388 141.595 219.923 141.595Z" fill="#040919"/>
<path d="M242.186 141.595C242.721 141.595 243.155 141.123 243.155 140.541C243.155 139.959 242.721 139.487 242.186 139.487C241.65 139.487 241.217 139.959 241.217 140.541C241.217 141.123 241.65 141.595 242.186 141.595Z" fill="#040919"/>
<path d="M231.054 148.582C231.59 148.582 232.023 148.111 232.023 147.528C232.023 146.946 231.59 146.474 231.054 146.474C230.519 146.474 230.085 146.946 230.085 147.528C230.085 148.111 230.519 148.582 231.054 148.582Z" fill="#040919"/>
<path d="M219.923 155.584C220.458 155.584 220.892 155.113 220.892 154.53C220.892 153.948 220.458 153.476 219.923 153.476C219.388 153.476 218.954 153.948 218.954 154.53C218.954 155.113 219.388 155.584 219.923 155.584Z" fill="#040919"/>
<path d="M253.317 148.582C253.852 148.582 254.286 148.111 254.286 147.528C254.286 146.946 253.852 146.474 253.317 146.474C252.782 146.474 252.348 146.946 252.348 147.528C252.348 148.111 252.782 148.582 253.317 148.582Z" fill="#040919"/>
<path d="M242.186 155.584C242.721 155.584 243.155 155.113 243.155 154.53C243.155 153.948 242.721 153.476 242.186 153.476C241.65 153.476 241.217 153.948 241.217 154.53C241.217 155.113 241.65 155.584 242.186 155.584Z" fill="#040919"/>
<path d="M231.054 162.571C231.59 162.571 232.023 162.099 232.023 161.517C232.023 160.935 231.59 160.463 231.054 160.463C230.519 160.463 230.085 160.935 230.085 161.517C230.085 162.099 230.519 162.571 231.054 162.571Z" fill="#040919"/>
<path d="M219.923 169.558C220.458 169.558 220.892 169.086 220.892 168.504C220.892 167.922 220.458 167.45 219.923 167.45C219.388 167.45 218.954 167.922 218.954 168.504C218.954 169.086 219.388 169.558 219.923 169.558Z" fill="#040919"/>
<path d="M253.317 162.571C253.852 162.571 254.286 162.099 254.286 161.517C254.286 160.935 253.852 160.463 253.317 160.463C252.782 160.463 252.348 160.935 252.348 161.517C252.348 162.099 252.782 162.571 253.317 162.571Z" fill="#040919"/>
<path d="M242.186 169.558C242.721 169.558 243.155 169.086 243.155 168.504C243.155 167.922 242.721 167.45 242.186 167.45C241.65 167.45 241.217 167.922 241.217 168.504C241.217 169.086 241.65 169.558 242.186 169.558Z" fill="#040919"/>
<path d="M264.449 155.584C264.984 155.584 265.418 155.113 265.418 154.53C265.418 153.948 264.984 153.476 264.449 153.476C263.913 153.476 263.479 153.948 263.479 154.53C263.479 155.113 263.913 155.584 264.449 155.584Z" fill="#040919"/>
<path d="M231.054 176.56C231.59 176.56 232.023 176.088 232.023 175.506C232.023 174.923 231.59 174.452 231.054 174.452C230.519 174.452 230.085 174.923 230.085 175.506C230.085 176.088 230.519 176.56 231.054 176.56Z" fill="#040919"/>
<path d="M219.923 183.547C220.458 183.547 220.892 183.075 220.892 182.492C220.892 181.911 220.458 181.438 219.923 181.438C219.388 181.438 218.954 181.911 218.954 182.492C218.954 183.075 219.388 183.547 219.923 183.547Z" fill="#040919"/>
<path d="M208.791 134.608C209.326 134.608 209.761 134.136 209.761 133.554C209.761 132.972 209.326 132.5 208.791 132.5C208.256 132.5 207.822 132.972 207.822 133.554C207.822 134.136 208.256 134.608 208.791 134.608Z" fill="#040919"/>
<path d="M242.186 113.632C242.721 113.632 243.155 113.161 243.155 112.578C243.155 111.997 242.721 111.524 242.186 111.524C241.65 111.524 241.217 111.997 241.217 112.578C241.217 113.161 241.65 113.632 242.186 113.632Z" fill="#040919"/>
<path d="M253.317 120.619C253.852 120.619 254.286 120.148 254.286 119.566C254.286 118.983 253.852 118.511 253.317 118.511C252.782 118.511 252.348 118.983 252.348 119.566C252.348 120.148 252.782 120.619 253.317 120.619Z" fill="#040919"/>
<path d="M242.186 127.621C242.721 127.621 243.155 127.15 243.155 126.567C243.155 125.985 242.721 125.513 242.186 125.513C241.65 125.513 241.217 125.985 241.217 126.567C241.217 127.15 241.65 127.621 242.186 127.621Z" fill="#040919"/>
<path d="M264.449 127.621C264.984 127.621 265.418 127.15 265.418 126.567C265.418 125.985 264.984 125.513 264.449 125.513C263.913 125.513 263.479 125.985 263.479 126.567C263.479 127.15 263.913 127.621 264.449 127.621Z" fill="#040919"/>
<path d="M253.317 134.608C253.852 134.608 254.286 134.136 254.286 133.554C254.286 132.972 253.852 132.5 253.317 132.5C252.782 132.5 252.348 132.972 252.348 133.554C252.348 134.136 252.782 134.608 253.317 134.608Z" fill="#040919"/>
<path d="M275.594 134.608C276.129 134.608 276.563 134.136 276.563 133.554C276.563 132.972 276.129 132.5 275.594 132.5C275.058 132.5 274.625 132.972 274.625 133.554C274.625 134.136 275.058 134.608 275.594 134.608Z" fill="#040919"/>
<path d="M264.449 141.595C264.984 141.595 265.418 141.123 265.418 140.541C265.418 139.959 264.984 139.487 264.449 139.487C263.913 139.487 263.479 139.959 263.479 140.541C263.479 141.123 263.913 141.595 264.449 141.595Z" fill="#040919"/>
<path d="M275.594 148.582C276.129 148.582 276.563 148.111 276.563 147.528C276.563 146.946 276.129 146.474 275.594 146.474C275.058 146.474 274.625 146.946 274.625 147.528C274.625 148.111 275.058 148.582 275.594 148.582Z" fill="#040919"/>
<path d="M286.725 141.595C287.26 141.595 287.694 141.123 287.694 140.541C287.694 139.959 287.26 139.487 286.725 139.487C286.19 139.487 285.756 139.959 285.756 140.541C285.756 141.123 286.19 141.595 286.725 141.595Z" fill="#040919"/>
<path d="M231.054 120.619C231.59 120.619 232.023 120.148 232.023 119.566C232.023 118.983 231.59 118.511 231.054 118.511C230.519 118.511 230.085 118.983 230.085 119.566C230.085 120.148 230.519 120.619 231.054 120.619Z" fill="#040919"/>
<path d="M264.449 113.632C264.984 113.632 265.418 113.161 265.418 112.578C265.418 111.997 264.984 111.524 264.449 111.524C263.913 111.524 263.479 111.997 263.479 112.578C263.479 113.161 263.913 113.632 264.449 113.632Z" fill="#040919"/>
<path d="M275.594 120.619C276.129 120.619 276.563 120.148 276.563 119.566C276.563 118.983 276.129 118.511 275.594 118.511C275.058 118.511 274.625 118.983 274.625 119.566C274.625 120.148 275.058 120.619 275.594 120.619Z" fill="#040919"/>
<path d="M286.725 127.621C287.26 127.621 287.694 127.15 287.694 126.567C287.694 125.985 287.26 125.513 286.725 125.513C286.19 125.513 285.756 125.985 285.756 126.567C285.756 127.15 286.19 127.621 286.725 127.621Z" fill="#040919"/>
<path d="M297.857 134.608C298.392 134.608 298.826 134.136 298.826 133.554C298.826 132.972 298.392 132.5 297.857 132.5C297.322 132.5 296.888 132.972 296.888 133.554C296.888 134.136 297.322 134.608 297.857 134.608Z" fill="#040919"/>
<path d="M264.449 169.558C264.984 169.558 265.418 169.086 265.418 168.504C265.418 167.922 264.984 167.45 264.449 167.45C263.913 167.45 263.479 167.922 263.479 168.504C263.479 169.086 263.913 169.558 264.449 169.558Z" fill="#040919"/>
<path d="M253.317 176.56C253.852 176.56 254.286 176.088 254.286 175.506C254.286 174.923 253.852 174.452 253.317 174.452C252.782 174.452 252.348 174.923 252.348 175.506C252.348 176.088 252.782 176.56 253.317 176.56Z" fill="#040919"/>
<path d="M275.594 162.571C276.129 162.571 276.563 162.099 276.563 161.517C276.563 160.935 276.129 160.463 275.594 160.463C275.058 160.463 274.625 160.935 274.625 161.517C274.625 162.099 275.058 162.571 275.594 162.571Z" fill="#040919"/>
<path d="M242.186 183.547C242.721 183.547 243.155 183.075 243.155 182.492C243.155 181.911 242.721 181.438 242.186 181.438C241.65 181.438 241.217 181.911 241.217 182.492C241.217 183.075 241.65 183.547 242.186 183.547Z" fill="#040919"/>
<path d="M231.054 190.534C231.59 190.534 232.023 190.062 232.023 189.48C232.023 188.897 231.59 188.426 231.054 188.426C230.519 188.426 230.085 188.897 230.085 189.48C230.085 190.062 230.519 190.534 231.054 190.534Z" fill="#040919"/>
<path d="M286.725 155.584C287.26 155.584 287.694 155.113 287.694 154.53C287.694 153.948 287.26 153.476 286.725 153.476C286.19 153.476 285.756 153.948 285.756 154.53C285.756 155.113 286.19 155.584 286.725 155.584Z" fill="#040919"/>
<path d="M297.857 148.582C298.392 148.582 298.826 148.111 298.826 147.528C298.826 146.946 298.392 146.474 297.857 146.474C297.322 146.474 296.888 146.946 296.888 147.528C296.888 148.111 297.322 148.582 297.857 148.582Z" fill="#040919"/>
<path d="M308.988 141.595C309.523 141.595 309.957 141.123 309.957 140.541C309.957 139.959 309.523 139.487 308.988 139.487C308.453 139.487 308.019 139.959 308.019 140.541C308.019 141.123 308.453 141.595 308.988 141.595Z" fill="#040919"/>
<path d="M275.594 176.56C276.129 176.56 276.563 176.088 276.563 175.506C276.563 174.923 276.129 174.452 275.594 174.452C275.058 174.452 274.625 174.923 274.625 175.506C274.625 176.088 275.058 176.56 275.594 176.56Z" fill="#040919"/>
<path d="M264.449 183.547C264.984 183.547 265.418 183.075 265.418 182.492C265.418 181.911 264.984 181.438 264.449 181.438C263.913 181.438 263.479 181.911 263.479 182.492C263.479 183.075 263.913 183.547 264.449 183.547Z" fill="#040919"/>
<path d="M286.725 169.558C287.26 169.558 287.694 169.086 287.694 168.504C287.694 167.922 287.26 167.45 286.725 167.45C286.19 167.45 285.756 167.922 285.756 168.504C285.756 169.086 286.19 169.558 286.725 169.558Z" fill="#040919"/>
<path d="M253.317 190.534C253.852 190.534 254.286 190.062 254.286 189.48C254.286 188.897 253.852 188.426 253.317 188.426C252.782 188.426 252.348 188.897 252.348 189.48C252.348 190.062 252.782 190.534 253.317 190.534Z" fill="#040919"/>
<path d="M242.186 197.521C242.721 197.521 243.155 197.049 243.155 196.467C243.155 195.884 242.721 195.413 242.186 195.413C241.65 195.413 241.217 195.884 241.217 196.467C241.217 197.049 241.65 197.521 242.186 197.521Z" fill="#040919"/>
<path d="M297.857 162.571C298.392 162.571 298.826 162.099 298.826 161.517C298.826 160.935 298.392 160.463 297.857 160.463C297.322 160.463 296.888 160.935 296.888 161.517C296.888 162.099 297.322 162.571 297.857 162.571Z" fill="#040919"/>
<path d="M308.988 155.584C309.523 155.584 309.957 155.113 309.957 154.53C309.957 153.948 309.523 153.476 308.988 153.476C308.453 153.476 308.019 153.948 308.019 154.53C308.019 155.113 308.453 155.584 308.988 155.584Z" fill="#040919"/>
<path d="M320.119 148.582C320.655 148.582 321.089 148.111 321.089 147.528C321.089 146.946 320.655 146.474 320.119 146.474C319.585 146.474 319.15 146.946 319.15 147.528C319.15 148.111 319.585 148.582 320.119 148.582Z" fill="#040919"/>
<path d="M286.725 183.547C287.26 183.547 287.694 183.075 287.694 182.492C287.694 181.911 287.26 181.438 286.725 181.438C286.19 181.438 285.756 181.911 285.756 182.492C285.756 183.075 286.19 183.547 286.725 183.547Z" fill="#040919"/>
<path d="M275.594 190.534C276.129 190.534 276.563 190.062 276.563 189.48C276.563 188.897 276.129 188.426 275.594 188.426C275.058 188.426 274.625 188.897 274.625 189.48C274.625 190.062 275.058 190.534 275.594 190.534Z" fill="#040919"/>
<path d="M297.857 176.56C298.392 176.56 298.826 176.088 298.826 175.506C298.826 174.923 298.392 174.452 297.857 174.452C297.322 174.452 296.888 174.923 296.888 175.506C296.888 176.088 297.322 176.56 297.857 176.56Z" fill="#040919"/>
<path d="M264.449 197.521C264.984 197.521 265.418 197.049 265.418 196.467C265.418 195.884 264.984 195.413 264.449 195.413C263.913 195.413 263.479 195.884 263.479 196.467C263.479 197.049 263.913 197.521 264.449 197.521Z" fill="#040919"/>
<path d="M253.317 204.523C253.852 204.523 254.286 204.05 254.286 203.469C254.286 202.886 253.852 202.415 253.317 202.415C252.782 202.415 252.348 202.886 252.348 203.469C252.348 204.05 252.782 204.523 253.317 204.523Z" fill="#040919"/>
<path d="M308.988 169.558C309.523 169.558 309.957 169.086 309.957 168.504C309.957 167.922 309.523 167.45 308.988 167.45C308.453 167.45 308.019 167.922 308.019 168.504C308.019 169.086 308.453 169.558 308.988 169.558Z" fill="#040919"/>
<path d="M320.119 162.571C320.655 162.571 321.089 162.099 321.089 161.517C321.089 160.935 320.655 160.463 320.119 160.463C319.585 160.463 319.15 160.935 319.15 161.517C319.15 162.099 319.585 162.571 320.119 162.571Z" fill="#040919"/>
<path d="M331.251 155.584C331.786 155.584 332.22 155.113 332.22 154.53C332.22 153.948 331.786 153.476 331.251 153.476C330.716 153.476 330.282 153.948 330.282 154.53C330.282 155.113 330.716 155.584 331.251 155.584Z" fill="#040919"/>
<path d="M297.857 190.534C298.392 190.534 298.826 190.062 298.826 189.48C298.826 188.897 298.392 188.426 297.857 188.426C297.322 188.426 296.888 188.897 296.888 189.48C296.888 190.062 297.322 190.534 297.857 190.534Z" fill="#040919"/>
<path d="M286.725 197.521C287.26 197.521 287.694 197.049 287.694 196.467C287.694 195.884 287.26 195.413 286.725 195.413C286.19 195.413 285.756 195.884 285.756 196.467C285.756 197.049 286.19 197.521 286.725 197.521Z" fill="#040919"/>
<path d="M308.988 183.547C309.523 183.547 309.957 183.075 309.957 182.492C309.957 181.911 309.523 181.438 308.988 181.438C308.453 181.438 308.019 181.911 308.019 182.492C308.019 183.075 308.453 183.547 308.988 183.547Z" fill="#040919"/>
<path d="M275.594 204.523C276.129 204.523 276.563 204.05 276.563 203.469C276.563 202.886 276.129 202.415 275.594 202.415C275.058 202.415 274.625 202.886 274.625 203.469C274.625 204.05 275.058 204.523 275.594 204.523Z" fill="#040919"/>
<path d="M264.449 211.509C264.984 211.509 265.418 211.038 265.418 210.455C265.418 209.874 264.984 209.401 264.449 209.401C263.913 209.401 263.479 209.874 263.479 210.455C263.479 211.038 263.913 211.509 264.449 211.509Z" fill="#040919"/>
<path d="M320.119 176.56C320.655 176.56 321.089 176.088 321.089 175.506C321.089 174.923 320.655 174.452 320.119 174.452C319.585 174.452 319.15 174.923 319.15 175.506C319.15 176.088 319.585 176.56 320.119 176.56Z" fill="#040919"/>
<path d="M331.251 169.558C331.786 169.558 332.22 169.086 332.22 168.504C332.22 167.922 331.786 167.45 331.251 167.45C330.716 167.45 330.282 167.922 330.282 168.504C330.282 169.086 330.716 169.558 331.251 169.558Z" fill="#040919"/>
<path d="M342.382 162.571C342.918 162.571 343.351 162.099 343.351 161.517C343.351 160.935 342.918 160.463 342.382 160.463C341.847 160.463 341.413 160.935 341.413 161.517C341.413 162.099 341.847 162.571 342.382 162.571Z" fill="#040919"/>
<path d="M308.988 197.521C309.523 197.521 309.957 197.049 309.957 196.467C309.957 195.884 309.523 195.413 308.988 195.413C308.453 195.413 308.019 195.884 308.019 196.467C308.019 197.049 308.453 197.521 308.988 197.521Z" fill="#040919"/>
<path d="M297.857 204.523C298.392 204.523 298.826 204.05 298.826 203.469C298.826 202.886 298.392 202.415 297.857 202.415C297.322 202.415 296.888 202.886 296.888 203.469C296.888 204.05 297.322 204.523 297.857 204.523Z" fill="#040919"/>
<path d="M320.119 190.534C320.655 190.534 321.089 190.062 321.089 189.48C321.089 188.897 320.655 188.426 320.119 188.426C319.585 188.426 319.15 188.897 319.15 189.48C319.15 190.062 319.585 190.534 320.119 190.534Z" fill="#040919"/>
<path d="M286.725 211.509C287.26 211.509 287.694 211.038 287.694 210.455C287.694 209.874 287.26 209.401 286.725 209.401C286.19 209.401 285.756 209.874 285.756 210.455C285.756 211.038 286.19 211.509 286.725 211.509Z" fill="#040919"/>
<path d="M275.594 218.496C276.129 218.496 276.563 218.025 276.563 217.442C276.563 216.86 276.129 216.388 275.594 216.388C275.058 216.388 274.625 216.86 274.625 217.442C274.625 218.025 275.058 218.496 275.594 218.496Z" fill="#040919"/>
<path d="M331.251 183.547C331.786 183.547 332.22 183.075 332.22 182.492C332.22 181.911 331.786 181.438 331.251 181.438C330.716 181.438 330.282 181.911 330.282 182.492C330.282 183.075 330.716 183.547 331.251 183.547Z" fill="#040919"/>
<path d="M342.382 176.56C342.918 176.56 343.351 176.088 343.351 175.506C343.351 174.923 342.918 174.452 342.382 174.452C341.847 174.452 341.413 174.923 341.413 175.506C341.413 176.088 341.847 176.56 342.382 176.56Z" fill="#040919"/>
<path d="M353.528 169.558C354.063 169.558 354.497 169.086 354.497 168.504C354.497 167.922 354.063 167.45 353.528 167.45C352.992 167.45 352.558 167.922 352.558 168.504C352.558 169.086 352.992 169.558 353.528 169.558Z" fill="#040919"/>
<path d="M320.119 204.523C320.655 204.523 321.089 204.05 321.089 203.469C321.089 202.886 320.655 202.415 320.119 202.415C319.585 202.415 319.15 202.886 319.15 203.469C319.15 204.05 319.585 204.523 320.119 204.523Z" fill="#040919"/>
<path d="M308.988 211.509C309.523 211.509 309.957 211.038 309.957 210.455C309.957 209.874 309.523 209.401 308.988 209.401C308.453 209.401 308.019 209.874 308.019 210.455C308.019 211.038 308.453 211.509 308.988 211.509Z" fill="#040919"/>
<path d="M331.251 197.521C331.786 197.521 332.22 197.049 332.22 196.467C332.22 195.884 331.786 195.413 331.251 195.413C330.716 195.413 330.282 195.884 330.282 196.467C330.282 197.049 330.716 197.521 331.251 197.521Z" fill="#040919"/>
<path d="M297.857 218.496C298.392 218.496 298.826 218.025 298.826 217.442C298.826 216.86 298.392 216.388 297.857 216.388C297.322 216.388 296.888 216.86 296.888 217.442C296.888 218.025 297.322 218.496 297.857 218.496Z" fill="#040919"/>
<path d="M286.725 225.484C287.26 225.484 287.694 225.011 287.694 224.43C287.694 223.847 287.26 223.375 286.725 223.375C286.19 223.375 285.756 223.847 285.756 224.43C285.756 225.011 286.19 225.484 286.725 225.484Z" fill="#040919"/>
<path d="M342.382 190.534C342.918 190.534 343.351 190.062 343.351 189.48C343.351 188.897 342.918 188.426 342.382 188.426C341.847 188.426 341.413 188.897 341.413 189.48C341.413 190.062 341.847 190.534 342.382 190.534Z" fill="#040919"/>
<path d="M353.528 183.547C354.063 183.547 354.497 183.075 354.497 182.492C354.497 181.911 354.063 181.438 353.528 181.438C352.992 181.438 352.558 181.911 352.558 182.492C352.558 183.075 352.992 183.547 353.528 183.547Z" fill="#040919"/>
<path d="M364.659 176.56C365.194 176.56 365.628 176.088 365.628 175.506C365.628 174.923 365.194 174.452 364.659 174.452C364.124 174.452 363.69 174.923 363.69 175.506C363.69 176.088 364.124 176.56 364.659 176.56Z" fill="#040919"/>
<path d="M331.251 211.509C331.786 211.509 332.22 211.038 332.22 210.455C332.22 209.874 331.786 209.401 331.251 209.401C330.716 209.401 330.282 209.874 330.282 210.455C330.282 211.038 330.716 211.509 331.251 211.509Z" fill="#040919"/>
<path d="M320.119 218.496C320.655 218.496 321.089 218.025 321.089 217.442C321.089 216.86 320.655 216.388 320.119 216.388C319.585 216.388 319.15 216.86 319.15 217.442C319.15 218.025 319.585 218.496 320.119 218.496Z" fill="#040919"/>
<path d="M342.382 204.523C342.918 204.523 343.351 204.05 343.351 203.469C343.351 202.886 342.918 202.415 342.382 202.415C341.847 202.415 341.413 202.886 341.413 203.469C341.413 204.05 341.847 204.523 342.382 204.523Z" fill="#040919"/>
<path d="M308.988 225.484C309.523 225.484 309.957 225.011 309.957 224.43C309.957 223.847 309.523 223.375 308.988 223.375C308.453 223.375 308.019 223.847 308.019 224.43C308.019 225.011 308.453 225.484 308.988 225.484Z" fill="#040919"/>
<path d="M297.857 232.485C298.392 232.485 298.826 232.013 298.826 231.431C298.826 230.849 298.392 230.377 297.857 230.377C297.322 230.377 296.888 230.849 296.888 231.431C296.888 232.013 297.322 232.485 297.857 232.485Z" fill="#040919"/>
<path d="M353.528 197.521C354.063 197.521 354.497 197.049 354.497 196.467C354.497 195.884 354.063 195.413 353.528 195.413C352.992 195.413 352.558 195.884 352.558 196.467C352.558 197.049 352.992 197.521 353.528 197.521Z" fill="#040919"/>
<path d="M364.659 190.534C365.194 190.534 365.628 190.062 365.628 189.48C365.628 188.897 365.194 188.426 364.659 188.426C364.124 188.426 363.69 188.897 363.69 189.48C363.69 190.062 364.124 190.534 364.659 190.534Z" fill="#040919"/>
<path d="M375.791 183.547C376.326 183.547 376.76 183.075 376.76 182.492C376.76 181.911 376.326 181.438 375.791 181.438C375.255 181.438 374.822 181.911 374.822 182.492C374.822 183.075 375.255 183.547 375.791 183.547Z" fill="#040919"/>
<path d="M342.382 218.496C342.918 218.496 343.351 218.025 343.351 217.442C343.351 216.86 342.918 216.388 342.382 216.388C341.847 216.388 341.413 216.86 341.413 217.442C341.413 218.025 341.847 218.496 342.382 218.496Z" fill="#040919"/>
<path d="M331.251 225.484C331.786 225.484 332.22 225.011 332.22 224.43C332.22 223.847 331.786 223.375 331.251 223.375C330.716 223.375 330.282 223.847 330.282 224.43C330.282 225.011 330.716 225.484 331.251 225.484Z" fill="#040919"/>
<path d="M353.528 211.509C354.063 211.509 354.497 211.038 354.497 210.455C354.497 209.874 354.063 209.401 353.528 209.401C352.992 209.401 352.558 209.874 352.558 210.455C352.558 211.038 352.992 211.509 353.528 211.509Z" fill="#040919"/>
<path d="M320.119 232.485C320.655 232.485 321.089 232.013 321.089 231.431C321.089 230.849 320.655 230.377 320.119 230.377C319.585 230.377 319.15 230.849 319.15 231.431C319.15 232.013 319.585 232.485 320.119 232.485Z" fill="#040919"/>
<path d="M364.659 204.523C365.194 204.523 365.628 204.05 365.628 203.469C365.628 202.886 365.194 202.415 364.659 202.415C364.124 202.415 363.69 202.886 363.69 203.469C363.69 204.05 364.124 204.523 364.659 204.523Z" fill="#040919"/>
<path d="M375.791 197.521C376.326 197.521 376.76 197.049 376.76 196.467C376.76 195.884 376.326 195.413 375.791 195.413C375.255 195.413 374.822 195.884 374.822 196.467C374.822 197.049 375.255 197.521 375.791 197.521Z" fill="#040919"/>
<path d="M386.922 190.534C387.457 190.534 387.891 190.062 387.891 189.48C387.891 188.897 387.457 188.426 386.922 188.426C386.386 188.426 385.953 188.897 385.953 189.48C385.953 190.062 386.386 190.534 386.922 190.534Z" fill="#040919"/>
<path d="M253.317 106.646C253.852 106.646 254.286 106.173 254.286 105.592C254.286 105.009 253.852 104.538 253.317 104.538C252.782 104.538 252.348 105.009 252.348 105.592C252.348 106.173 252.782 106.646 253.317 106.646Z" fill="#040919"/>
<path d="M197.66 141.595C198.195 141.595 198.63 141.123 198.63 140.541C198.63 139.959 198.195 139.487 197.66 139.487C197.125 139.487 196.691 139.959 196.691 140.541C196.691 141.123 197.125 141.595 197.66 141.595Z" fill="#040919"/>
<path d="M208.791 148.582C209.326 148.582 209.761 148.111 209.761 147.528C209.761 146.946 209.326 146.474 208.791 146.474C208.256 146.474 207.822 146.946 207.822 147.528C207.822 148.111 208.256 148.582 208.791 148.582Z" fill="#040919"/>
<path d="M186.514 148.582C187.05 148.582 187.484 148.111 187.484 147.528C187.484 146.946 187.05 146.474 186.514 146.474C185.98 146.474 185.545 146.946 185.545 147.528C185.545 148.111 185.98 148.582 186.514 148.582Z" fill="#040919"/>
<path d="M197.66 155.584C198.195 155.584 198.63 155.113 198.63 154.53C198.63 153.948 198.195 153.476 197.66 153.476C197.125 153.476 196.691 153.948 196.691 154.53C196.691 155.113 197.125 155.584 197.66 155.584Z" fill="#040919"/>
<path d="M208.791 162.571C209.326 162.571 209.761 162.099 209.761 161.517C209.761 160.935 209.326 160.463 208.791 160.463C208.256 160.463 207.822 160.935 207.822 161.517C207.822 162.099 208.256 162.571 208.791 162.571Z" fill="#040919"/>
<path d="M186.514 162.571C187.05 162.571 187.484 162.099 187.484 161.517C187.484 160.935 187.05 160.463 186.514 160.463C185.98 160.463 185.545 160.935 185.545 161.517C185.545 162.099 185.98 162.571 186.514 162.571Z" fill="#040919"/>
<path d="M197.66 169.558C198.195 169.558 198.63 169.086 198.63 168.504C198.63 167.922 198.195 167.45 197.66 167.45C197.125 167.45 196.691 167.922 196.691 168.504C196.691 169.086 197.125 169.558 197.66 169.558Z" fill="#040919"/>
<path d="M175.382 155.584C175.918 155.584 176.352 155.113 176.352 154.53C176.352 153.948 175.918 153.476 175.382 153.476C174.848 153.476 174.413 153.948 174.413 154.53C174.413 155.113 174.848 155.584 175.382 155.584Z" fill="#040919"/>
<path d="M208.791 176.56C209.326 176.56 209.761 176.088 209.761 175.506C209.761 174.923 209.326 174.452 208.791 174.452C208.256 174.452 207.822 174.923 207.822 175.506C207.822 176.088 208.256 176.56 208.791 176.56Z" fill="#040919"/>
<path d="M186.514 134.608C187.05 134.608 187.484 134.136 187.484 133.554C187.484 132.972 187.05 132.5 186.514 132.5C185.98 132.5 185.545 132.972 185.545 133.554C185.545 134.136 185.98 134.608 186.514 134.608Z" fill="#040919"/>
<path d="M175.382 141.595C175.918 141.595 176.352 141.123 176.352 140.541C176.352 139.959 175.918 139.487 175.382 139.487C174.848 139.487 174.413 139.959 174.413 140.541C174.413 141.123 174.848 141.595 175.382 141.595Z" fill="#040919"/>
<path d="M208.791 120.619C209.326 120.619 209.761 120.148 209.761 119.566C209.761 118.983 209.326 118.511 208.791 118.511C208.256 118.511 207.822 118.983 207.822 119.566C207.822 120.148 208.256 120.619 208.791 120.619Z" fill="#040919"/>
<path d="M197.66 127.621C198.195 127.621 198.63 127.15 198.63 126.567C198.63 125.985 198.195 125.513 197.66 125.513C197.125 125.513 196.691 125.985 196.691 126.567C196.691 127.15 197.125 127.621 197.66 127.621Z" fill="#040919"/>
<path d="M219.923 113.632C220.458 113.632 220.892 113.161 220.892 112.578C220.892 111.997 220.458 111.524 219.923 111.524C219.388 111.524 218.954 111.997 218.954 112.578C218.954 113.161 219.388 113.632 219.923 113.632Z" fill="#040919"/>
<path d="M164.252 148.582C164.787 148.582 165.221 148.111 165.221 147.528C165.221 146.946 164.787 146.474 164.252 146.474C163.717 146.474 163.282 146.946 163.282 147.528C163.282 148.111 163.717 148.582 164.252 148.582Z" fill="#040919"/>
<path d="M186.514 106.646C187.05 106.646 187.484 106.173 187.484 105.592C187.484 105.009 187.05 104.538 186.514 104.538C185.98 104.538 185.545 105.009 185.545 105.592C185.545 106.173 185.98 106.646 186.514 106.646Z" fill="#040919"/>
<path d="M175.382 113.632C175.918 113.632 176.352 113.161 176.352 112.578C176.352 111.997 175.918 111.524 175.382 111.524C174.848 111.524 174.413 111.997 174.413 112.578C174.413 113.161 174.848 113.632 175.382 113.632Z" fill="#040919"/>
<path d="M164.252 120.619C164.787 120.619 165.221 120.148 165.221 119.566C165.221 118.983 164.787 118.511 164.252 118.511C163.717 118.511 163.282 118.983 163.282 119.566C163.282 120.148 163.717 120.619 164.252 120.619Z" fill="#040919"/>
<path d="M153.12 127.621C153.655 127.621 154.089 127.15 154.089 126.567C154.089 125.985 153.655 125.513 153.12 125.513C152.585 125.513 152.151 125.985 152.151 126.567C152.151 127.15 152.585 127.621 153.12 127.621Z" fill="#040919"/>
<path d="M186.514 120.619C187.05 120.619 187.484 120.148 187.484 119.566C187.484 118.983 187.05 118.511 186.514 118.511C185.98 118.511 185.545 118.983 185.545 119.566C185.545 120.148 185.98 120.619 186.514 120.619Z" fill="#040919"/>
<path d="M175.382 127.621C175.918 127.621 176.352 127.15 176.352 126.567C176.352 125.985 175.918 125.513 175.382 125.513C174.848 125.513 174.413 125.985 174.413 126.567C174.413 127.15 174.848 127.621 175.382 127.621Z" fill="#040919"/>
<path d="M197.66 113.632C198.195 113.632 198.63 113.161 198.63 112.578C198.63 111.997 198.195 111.524 197.66 111.524C197.125 111.524 196.691 111.997 196.691 112.578C196.691 113.161 197.125 113.632 197.66 113.632Z" fill="#040919"/>
<path d="M164.252 134.608C164.787 134.608 165.221 134.136 165.221 133.554C165.221 132.972 164.787 132.5 164.252 132.5C163.717 132.5 163.282 132.972 163.282 133.554C163.282 134.136 163.717 134.608 164.252 134.608Z" fill="#040919"/>
<path d="M153.12 141.595C153.655 141.595 154.089 141.123 154.089 140.541C154.089 139.959 153.655 139.487 153.12 139.487C152.585 139.487 152.151 139.959 152.151 140.541C152.151 141.123 152.585 141.595 153.12 141.595Z" fill="#040919"/>
<path d="M231.054 106.646C231.59 106.646 232.023 106.173 232.023 105.592C232.023 105.009 231.59 104.538 231.054 104.538C230.519 104.538 230.085 105.009 230.085 105.592C230.085 106.173 230.519 106.646 231.054 106.646Z" fill="#040919"/>
<path d="M208.791 92.657C209.326 92.657 209.761 92.1846 209.761 91.603C209.761 91.0204 209.326 90.5489 208.791 90.5489C208.256 90.5489 207.822 91.0204 207.822 91.603C207.822 92.1846 208.256 92.657 208.791 92.657Z" fill="#040919"/>
<path d="M197.66 99.6592C198.195 99.6592 198.63 99.1868 198.63 98.6051C198.63 98.0226 198.195 97.5511 197.66 97.5511C197.125 97.5511 196.691 98.0226 196.691 98.6051C196.691 99.1868 197.125 99.6592 197.66 99.6592Z" fill="#040919"/>
<path d="M208.791 106.646C209.326 106.646 209.761 106.173 209.761 105.592C209.761 105.009 209.326 104.538 208.791 104.538C208.256 104.538 207.822 105.009 207.822 105.592C207.822 106.173 208.256 106.646 208.791 106.646Z" fill="#040919"/>
<path d="M219.923 99.6592C220.458 99.6592 220.892 99.1868 220.892 98.6051C220.892 98.0226 220.458 97.5511 219.923 97.5511C219.388 97.5511 218.954 98.0226 218.954 98.6051C218.954 99.1868 219.388 99.6592 219.923 99.6592Z" fill="#040919"/>
<path d="M242.186 99.6592C242.721 99.6592 243.155 99.1868 243.155 98.6051C243.155 98.0226 242.721 97.5511 242.186 97.5511C241.65 97.5511 241.217 98.0226 241.217 98.6051C241.217 99.1868 241.65 99.6592 242.186 99.6592Z" fill="#040919"/>
<path d="M219.923 85.6698C220.458 85.6698 220.892 85.1978 220.892 84.6157C220.892 84.0335 220.458 83.5617 219.923 83.5617C219.388 83.5617 218.954 84.0335 218.954 84.6157C218.954 85.1978 219.388 85.6698 219.923 85.6698Z" fill="#040919"/>
<path d="M231.054 92.657C231.59 92.657 232.023 92.1846 232.023 91.603C232.023 91.0204 231.59 90.5489 231.054 90.5489C230.519 90.5489 230.085 91.0204 230.085 91.603C230.085 92.1846 230.519 92.657 231.054 92.657Z" fill="#040919"/>
<path d="M141.989 134.608C142.524 134.608 142.958 134.136 142.958 133.554C142.958 132.972 142.524 132.5 141.989 132.5C141.453 132.5 141.02 132.972 141.02 133.554C141.02 134.136 141.453 134.608 141.989 134.608Z" fill="#040919"/>
</g>
<path d="M0.796997 190.534L220.256 328.344L439.728 190.534" stroke="#5D688C" stroke-linecap="round" stroke-linejoin="round"/>
<path d="M219.479 325.284L26.612 204.295L0.796997 220.464L219.479 357.645L438.183 220.44L412.368 204.247L219.479 325.284Z" fill="#BCC0E5"/>
<path d="M220.256 52.7231L0.796997 190.534L220.256 328.344L439.728 190.534L220.256 52.7231Z" fill="white"/>
<path d="M0.796997 190.534L220.256 328.344L439.728 190.534" stroke="#5D688C" stroke-linecap="round" stroke-linejoin="round"/>
<path d="M81.0156 198.062C77.4574 195.819 77.4436 192.19 80.9742 189.946C84.5049 187.703 90.2362 187.703 93.7948 189.946L103.113 195.804C106.67 198.048 106.685 201.676 103.154 203.92C99.6233 206.164 93.8777 206.164 90.3334 203.92L81.0156 198.062Z" fill="#BCC0E5"/>
<path d="M105.106 182.929C101.548 180.685 101.534 177.057 105.064 174.813C108.595 172.569 114.326 172.569 117.885 174.813L134.346 185.142C137.905 187.387 137.919 191.015 134.389 193.258C130.858 195.503 125.112 195.503 121.568 193.258L105.106 182.929Z" fill="#BCC0E5"/>
<path d="M152.318 153.28C148.759 151.036 148.746 147.408 152.277 145.164C155.807 142.92 161.539 142.92 165.097 145.164L189.09 160.222C192.649 162.465 192.662 166.095 189.132 168.338C185.602 170.581 179.856 170.581 176.311 168.338L152.318 153.28Z" fill="#BCC0E5"/>
<path d="M128.726 168.097C125.168 165.854 125.154 162.224 128.684 159.981C132.215 157.737 137.947 157.737 141.505 159.981L153.744 167.66C157.302 169.903 157.316 173.533 153.785 175.776C150.255 178.02 144.51 178.02 140.965 175.776L128.726 168.097Z" fill="#BCC0E5"/>
<path d="M105.148 122.983C108.706 120.74 114.438 120.74 117.968 122.983C119.727 124.098 120.612 125.573 120.599 127.034V178.864C120.599 180.339 119.699 181.8 117.926 182.915C114.369 185.158 108.637 185.158 105.106 182.915C103.348 181.8 102.462 180.325 102.476 178.864V127.034C102.476 125.573 103.376 124.098 105.148 122.983Z" fill="#040919"/>
<path d="M117.969 122.984C121.526 125.227 121.541 128.856 118.01 131.1C114.479 133.343 108.734 133.343 105.189 131.1C101.632 128.856 101.617 125.227 105.148 122.984C108.679 120.74 114.41 120.74 117.969 122.984Z" fill="#666BFF"/>
<path d="M102.517 127.035C102.517 128.51 103.418 129.971 105.19 131.084C106.948 132.199 109.246 132.756 111.545 132.756V184.601C109.218 184.601 106.879 184.044 105.107 182.915C103.348 181.8 102.462 180.325 102.476 178.864V127.035H102.517Z" fill="#4331E8"/>
<path d="M152.359 59.4388C155.917 57.1951 161.649 57.1951 165.179 59.4388C166.937 60.5531 167.824 62.0287 167.81 63.4893V149.23C167.81 150.705 166.91 152.166 165.138 153.28C161.58 155.524 155.848 155.524 152.317 153.28C150.559 152.166 149.673 150.69 149.687 149.23V63.4893C149.687 62.0287 150.587 60.5531 152.359 59.4388Z" fill="#040919"/>
<path d="M165.18 59.4388C168.739 61.6824 168.752 65.3114 165.221 67.555C161.692 69.7987 155.945 69.7987 152.401 67.555C148.843 65.3114 148.829 61.6824 152.359 59.4388C155.89 57.1951 161.622 57.1951 165.18 59.4388Z" fill="#666BFF"/>
<path d="M149.714 63.4893C149.714 64.9649 150.614 66.4257 152.387 67.54C154.145 68.6542 156.443 69.2114 158.741 69.2114V154.952C156.415 154.952 154.075 154.394 152.304 153.266C150.545 152.151 149.659 150.676 149.673 149.215V63.4744H149.714V63.4893Z" fill="#4331E8"/>
<path d="M152.359 12.1263C155.917 9.8827 161.649 9.8827 165.179 12.1263C166.937 13.2406 167.824 14.7164 167.81 16.1771V36.3698C167.81 37.8455 166.91 39.3061 165.138 40.4204C161.58 42.6641 155.848 42.6641 152.317 40.4204C150.559 39.3061 149.673 37.8305 149.687 36.3698V16.1771C149.687 14.7164 150.587 13.2406 152.359 12.1263Z" stroke="#666BFF" stroke-linecap="round" stroke-linejoin="round"/>
<path d="M165.18 12.1262C168.738 14.3699 168.752 17.9989 165.222 20.2425C161.691 22.4862 155.945 22.4862 152.401 20.2425C148.857 17.9989 148.829 14.3699 152.36 12.1262C155.889 9.88261 161.622 9.88261 165.18 12.1262Z" stroke="#666BFF" stroke-linecap="round" stroke-linejoin="round"/>
<path d="M128.766 128.028C132.325 125.785 138.057 125.785 141.587 128.028C143.345 129.142 144.232 130.618 144.218 132.079V164.032C144.218 165.507 143.318 166.968 141.546 168.082C137.988 170.326 132.256 170.326 128.725 168.082C126.967 166.968 126.081 165.492 126.095 164.032V132.079C126.095 130.618 126.995 129.142 128.766 128.028Z" fill="#040919"/>
<path d="M141.587 128.028C145.146 130.271 145.159 133.9 141.629 136.144C138.099 138.387 132.353 138.387 128.809 136.144C125.265 133.9 125.237 130.271 128.767 128.028C132.297 125.784 138.029 125.784 141.587 128.028Z" fill="#666BFF"/>
<path d="M126.136 132.093C126.136 133.57 127.036 135.029 128.808 136.144C130.567 137.258 132.865 137.815 135.163 137.815V169.768C132.838 169.768 130.498 169.212 128.725 168.082C126.967 166.968 126.081 165.492 126.095 164.032V132.079H126.136V132.093Z" fill="#4331E8"/>
<path d="M128.766 81.0318C132.325 78.7882 138.057 78.7882 141.587 81.0318C143.345 82.1461 144.232 83.6219 144.218 85.0825V117.036C144.218 118.511 143.318 119.972 141.546 121.086C137.988 123.33 132.256 123.33 128.725 121.086C126.967 119.972 126.081 118.496 126.095 117.036V85.0825C126.095 83.6219 126.995 82.1461 128.766 81.0318Z" stroke="#666BFF" stroke-linecap="round" stroke-linejoin="round"/>
<path d="M141.588 81.0319C145.146 83.2756 145.16 86.9047 141.629 89.1481C138.099 91.3914 132.353 91.3914 128.809 89.1481C125.251 86.9047 125.237 83.2756 128.767 81.0319C132.298 78.7883 138.03 78.7883 141.588 81.0319Z" stroke="#666BFF" stroke-linecap="round" stroke-linejoin="round"/>
<path d="M175.909 138.478C172.351 136.234 172.337 132.606 175.868 130.362C179.399 128.118 185.131 128.118 188.688 130.362L200.927 138.041C204.486 140.285 204.499 143.914 200.969 146.158C197.439 148.401 191.693 148.401 188.148 146.158L175.909 138.478Z" fill="#BCC0E5"/>
<path d="M175.952 75.8218C179.509 73.5782 185.241 73.5782 188.772 75.8218C190.53 76.9361 191.417 78.4117 191.402 79.8723V134.412C191.402 135.888 190.502 137.349 188.73 138.463C185.172 140.707 179.44 140.707 175.91 138.463C174.151 137.349 173.266 135.873 173.279 134.412V79.8723C173.279 78.4117 174.179 76.9361 175.952 75.8218Z" fill="#040919"/>
<path d="M188.771 75.8218C192.33 78.0655 192.344 81.6945 188.813 83.9381C185.283 86.1818 179.537 86.1818 175.992 83.9381C172.448 81.6945 172.421 78.0655 175.951 75.8218C179.482 73.5782 185.214 73.5782 188.771 75.8218Z" fill="#666BFF"/>
<path d="M173.306 79.8873C173.306 81.3629 174.206 82.8237 175.979 83.938C177.737 85.0522 180.035 85.6094 182.333 85.6094V140.15C180.008 140.15 177.668 139.592 175.895 138.463C174.137 137.349 173.251 135.873 173.265 134.412V79.8722H173.306V79.8873Z" fill="#4331E8"/>
<path d="M199.488 123.661C195.93 121.417 195.916 117.788 199.446 115.545C202.977 113.301 208.708 113.301 212.267 115.545L224.506 123.224C228.064 125.468 228.078 129.097 224.547 131.341C221.017 133.584 215.271 133.584 211.727 131.341L199.488 123.661Z" fill="#BCC0E5"/>
<path d="M199.529 53.4909C203.087 51.2473 208.819 51.2473 212.35 53.4909C214.108 54.6052 214.995 56.0808 214.98 57.5414V119.61C214.98 121.086 214.08 122.547 212.309 123.661C208.75 125.905 203.018 125.905 199.488 123.661C197.729 122.547 196.844 121.071 196.857 119.61V57.5414C196.857 56.0808 197.757 54.6052 199.529 53.4909Z" fill="#040919"/>
<path d="M212.35 53.4908C215.909 55.7345 215.922 59.3633 212.392 61.607C208.862 63.8506 203.115 63.8506 199.571 61.607C196.027 59.3633 195.999 55.7345 199.529 53.4908C203.06 51.2472 208.792 51.2472 212.35 53.4908Z" fill="#666BFF"/>
<path d="M196.899 57.5413C196.899 59.017 197.799 60.4776 199.571 61.592C201.329 62.7063 203.628 63.2634 205.926 63.2634V125.332C203.6 125.332 201.26 124.776 199.488 123.646C197.73 122.531 196.844 121.056 196.857 119.595V57.5262H196.899V57.5413Z" fill="#4331E8"/>
<path d="M199.529 2.54955C203.087 0.305911 208.819 0.305911 212.35 2.54955C214.108 3.66384 214.995 5.13962 214.98 6.60025V38.5532C214.98 40.0289 214.08 41.4895 212.309 42.6037C208.75 44.8474 203.018 44.8474 199.488 42.6037C197.729 41.4895 196.844 40.0139 196.857 38.5532V6.60025C196.857 5.13962 197.757 3.66384 199.529 2.54955Z" stroke="#666BFF" stroke-linecap="round" stroke-linejoin="round"/>
<path d="M212.35 2.54955C215.909 4.79319 215.922 8.42219 212.392 10.6658C208.862 12.9095 203.116 12.9095 199.572 10.6658C196.013 8.42219 195.999 4.79319 199.53 2.54955C203.06 0.305911 208.792 0.305911 212.35 2.54955Z" stroke="#666BFF" stroke-linecap="round" stroke-linejoin="round"/>
<path d="M81.057 179.346C84.6149 177.102 90.3469 177.102 93.8777 179.346C95.6359 180.46 96.5221 181.935 96.5078 183.396V193.997C96.5078 195.472 95.608 196.933 93.8362 198.048C90.2776 200.291 84.5463 200.291 81.0156 198.048C79.2572 196.933 78.3711 195.458 78.3849 193.997V183.396C78.3849 181.935 79.2848 180.46 81.057 179.346Z" fill="#040919"/>
<path d="M93.8784 179.346C97.4362 181.589 97.4506 185.218 93.9199 187.462C90.3891 189.705 84.6435 189.705 81.0992 187.462C77.541 185.218 77.5272 181.589 81.0578 179.346C84.5885 177.102 90.3198 177.102 93.8784 179.346Z" fill="#666BFF"/>
<path d="M78.4125 183.411C78.4125 184.887 79.3124 186.347 81.0849 187.462C82.8431 188.576 85.1409 189.133 87.4394 189.133V199.734C85.1138 199.734 82.7738 199.177 81.0012 198.048C79.2432 196.933 78.3571 195.458 78.3709 193.997V183.396H78.4125V183.411Z" fill="#4331E8"/>
<path d="M275.663 259.349L286.726 252.407L275.58 245.405" stroke="#666BFF" stroke-linecap="round" stroke-linejoin="round"/>
<path d="M142.155 231.326L130.858 238.418L142.072 245.465" stroke="#666BFF" stroke-linecap="round" stroke-linejoin="round"/>
<path d="M179.856 229.172L193.382 220.68" stroke="#666BFF" stroke-linecap="round" stroke-linejoin="round"/>
<path d="M193.382 220.68L203.946 214.039" stroke="#666BFF" stroke-linecap="round" stroke-linejoin="round"/>
<path d="M160.514 241.324L177.087 230.92" stroke="#666BFF" stroke-linecap="round" stroke-linejoin="round"/>
<path d="M179.149 239.066L190.503 231.943" stroke="#666BFF" stroke-linecap="round" stroke-linejoin="round"/>
<path d="M193.465 230.076L211.477 218.767" stroke="#666BFF" stroke-linecap="round" stroke-linejoin="round"/>
<path d="M168.032 246.053L176.38 240.812" stroke="#666BFF" stroke-linecap="round" stroke-linejoin="round"/>
<path d="M194.905 238.629L209.747 229.308" stroke="#666BFF" stroke-linecap="round" stroke-linejoin="round"/>
<path d="M212.709 227.441L218.995 223.495" stroke="#666BFF" stroke-linecap="round" stroke-linejoin="round"/>
<path d="M175.563 250.766L192.136 240.36" stroke="#666BFF" stroke-linecap="round" stroke-linejoin="round"/>
<path d="M192.316 249.697L209.871 238.674" stroke="#666BFF" stroke-linecap="round" stroke-linejoin="round"/>
<path d="M212.834 236.822L226.527 228.224" stroke="#666BFF" stroke-linecap="round" stroke-linejoin="round"/>
<path d="M183.081 255.493L189.547 251.428" stroke="#666BFF" stroke-linecap="round" stroke-linejoin="round"/>
<path d="M209.955 248.071L220.519 241.445" stroke="#666BFF" stroke-linecap="round" stroke-linejoin="round"/>
<path d="M223.481 239.577L234.044 232.937" stroke="#666BFF" stroke-linecap="round" stroke-linejoin="round"/>
<path d="M190.613 260.222L209.954 248.071" stroke="#666BFF" stroke-linecap="round" stroke-linejoin="round"/>
<path d="M217.472 252.798L230.999 244.306" stroke="#666BFF" stroke-linecap="round" stroke-linejoin="round"/>
<path d="M230.999 244.306L241.577 237.665" stroke="#666BFF" stroke-linecap="round" stroke-linejoin="round"/>
<path d="M198.131 264.95L214.704 254.545" stroke="#666BFF" stroke-linecap="round" stroke-linejoin="round"/>
<path d="M218.746 261.442L235.568 250.886" stroke="#666BFF" stroke-linecap="round" stroke-linejoin="round"/>
<path d="M205.649 269.663L215.977 263.189" stroke="#666BFF" stroke-linecap="round" stroke-linejoin="round"/>
<path d="M306.651 229.191L233.98 183.561L224.261 189.659L306.651 241.396L389.057 189.65L379.33 183.543L306.651 229.191Z" fill="#BCC0E5"/>
<path d="M224.244 177.446L306.65 229.191L389.056 177.446L306.65 125.7L224.244 177.446Z" fill="url(#paint0_linear_1_45)"/>
<path d="M244.194 177.446L306.65 216.664L369.107 177.446L306.65 138.218L244.194 177.446Z" fill="#BCC0E5"/>
<g opacity="0.25">
<path d="M286.726 173.898C287.045 173.898 287.304 173.617 287.304 173.269C287.304 172.923 287.045 172.641 286.726 172.641C286.406 172.641 286.148 172.923 286.148 173.269C286.148 173.617 286.406 173.898 286.726 173.898Z" fill="#040919"/>
<path d="M293.373 178.074C293.692 178.074 293.951 177.793 293.951 177.446C293.951 177.098 293.692 176.816 293.373 176.816C293.054 176.816 292.795 177.098 292.795 177.446C292.795 177.793 293.054 178.074 293.373 178.074Z" fill="#040919"/>
<path d="M286.726 182.241C287.045 182.241 287.304 181.959 287.304 181.613C287.304 181.265 287.045 180.983 286.726 180.983C286.406 180.983 286.148 181.265 286.148 181.613C286.148 181.959 286.406 182.241 286.726 182.241Z" fill="#040919"/>
<path d="M300.012 182.241C300.331 182.241 300.59 181.959 300.59 181.613C300.59 181.265 300.331 180.983 300.012 180.983C299.692 180.983 299.434 181.265 299.434 181.613C299.434 181.959 299.692 182.241 300.012 182.241Z" fill="#040919"/>
<path d="M293.373 186.408C293.692 186.408 293.951 186.127 293.951 185.779C293.951 185.433 293.692 185.151 293.373 185.151C293.054 185.151 292.795 185.433 292.795 185.779C292.795 186.127 293.054 186.408 293.373 186.408Z" fill="#040919"/>
<path d="M286.726 190.575C287.045 190.575 287.304 190.294 287.304 189.946C287.304 189.6 287.045 189.318 286.726 189.318C286.406 189.318 286.148 189.6 286.148 189.946C286.148 190.294 286.406 190.575 286.726 190.575Z" fill="#040919"/>
<path d="M306.651 186.408C306.97 186.408 307.229 186.127 307.229 185.779C307.229 185.433 306.97 185.151 306.651 185.151C306.331 185.151 306.072 185.433 306.072 185.779C306.072 186.127 306.331 186.408 306.651 186.408Z" fill="#040919"/>
<path d="M300.012 190.575C300.331 190.575 300.59 190.294 300.59 189.946C300.59 189.6 300.331 189.318 300.012 189.318C299.692 189.318 299.434 189.6 299.434 189.946C299.434 190.294 299.692 190.575 300.012 190.575Z" fill="#040919"/>
<path d="M293.373 194.751C293.692 194.751 293.951 194.469 293.951 194.123C293.951 193.775 293.692 193.494 293.373 193.494C293.054 193.494 292.795 193.775 292.795 194.123C292.795 194.469 293.054 194.751 293.373 194.751Z" fill="#040919"/>
<path d="M286.726 198.918C287.045 198.918 287.304 198.636 287.304 198.29C287.304 197.942 287.045 197.66 286.726 197.66C286.406 197.66 286.148 197.942 286.148 198.29C286.148 198.636 286.406 198.918 286.726 198.918Z" fill="#040919"/>
<path d="M306.651 194.751C306.97 194.751 307.229 194.469 307.229 194.123C307.229 193.775 306.97 193.494 306.651 193.494C306.331 193.494 306.072 193.775 306.072 194.123C306.072 194.469 306.331 194.751 306.651 194.751Z" fill="#040919"/>
<path d="M300.012 198.918C300.331 198.918 300.59 198.636 300.59 198.29C300.59 197.942 300.331 197.66 300.012 197.66C299.692 197.66 299.434 197.942 299.434 198.29C299.434 198.636 299.692 198.918 300.012 198.918Z" fill="#040919"/>
<path d="M313.289 190.575C313.609 190.575 313.867 190.294 313.867 189.946C313.867 189.6 313.609 189.318 313.289 189.318C312.97 189.318 312.711 189.6 312.711 189.946C312.711 190.294 312.97 190.575 313.289 190.575Z" fill="#040919"/>
<path d="M293.373 203.085C293.692 203.085 293.951 202.803 293.951 202.456C293.951 202.109 293.692 201.828 293.373 201.828C293.054 201.828 292.795 202.109 292.795 202.456C292.795 202.803 293.054 203.085 293.373 203.085Z" fill="#040919"/>
<path d="M286.726 207.252C287.045 207.252 287.304 206.97 287.304 206.623C287.304 206.276 287.045 205.995 286.726 205.995C286.406 205.995 286.148 206.276 286.148 206.623C286.148 206.97 286.406 207.252 286.726 207.252Z" fill="#040919"/>
<path d="M280.087 178.074C280.406 178.074 280.664 177.793 280.664 177.446C280.664 177.098 280.406 176.816 280.087 176.816C279.768 176.816 279.509 177.098 279.509 177.446C279.509 177.793 279.768 178.074 280.087 178.074Z" fill="#040919"/>
<path d="M300.012 165.564C300.331 165.564 300.59 165.282 300.59 164.936C300.59 164.588 300.331 164.307 300.012 164.307C299.692 164.307 299.434 164.588 299.434 164.936C299.434 165.282 299.692 165.564 300.012 165.564Z" fill="#040919"/>
<path d="M306.651 169.731C306.97 169.731 307.229 169.449 307.229 169.103C307.229 168.755 306.97 168.474 306.651 168.474C306.331 168.474 306.072 168.755 306.072 169.103C306.072 169.449 306.331 169.731 306.651 169.731Z" fill="#040919"/>
<path d="M300.012 173.898C300.331 173.898 300.59 173.617 300.59 173.269C300.59 172.923 300.331 172.641 300.012 172.641C299.692 172.641 299.434 172.923 299.434 173.269C299.434 173.617 299.692 173.898 300.012 173.898Z" fill="#040919"/>
<path d="M313.289 173.898C313.609 173.898 313.867 173.617 313.867 173.269C313.867 172.923 313.609 172.641 313.289 172.641C312.97 172.641 312.711 172.923 312.711 173.269C312.711 173.617 312.97 173.898 313.289 173.898Z" fill="#040919"/>
<path d="M306.651 178.074C306.97 178.074 307.229 177.793 307.229 177.446C307.229 177.098 306.97 176.816 306.651 176.816C306.331 176.816 306.072 177.098 306.072 177.446C306.072 177.793 306.331 178.074 306.651 178.074Z" fill="#040919"/>
<path d="M319.928 178.074C320.247 178.074 320.506 177.793 320.506 177.446C320.506 177.098 320.247 176.816 319.928 176.816C319.609 176.816 319.35 177.098 319.35 177.446C319.35 177.793 319.609 178.074 319.928 178.074Z" fill="#040919"/>
<path d="M313.289 182.241C313.609 182.241 313.867 181.959 313.867 181.613C313.867 181.265 313.609 180.983 313.289 180.983C312.97 180.983 312.711 181.265 312.711 181.613C312.711 181.959 312.97 182.241 313.289 182.241Z" fill="#040919"/>
<path d="M319.928 186.408C320.247 186.408 320.506 186.127 320.506 185.779C320.506 185.433 320.247 185.151 319.928 185.151C319.609 185.151 319.35 185.433 319.35 185.779C319.35 186.127 319.609 186.408 319.928 186.408Z" fill="#040919"/>
<path d="M326.566 182.241C326.886 182.241 327.145 181.959 327.145 181.613C327.145 181.265 326.886 180.983 326.566 180.983C326.248 180.983 325.989 181.265 325.989 181.613C325.989 181.959 326.248 182.241 326.566 182.241Z" fill="#040919"/>
<path d="M333.205 178.074C333.524 178.074 333.783 177.793 333.783 177.446C333.783 177.098 333.524 176.816 333.205 176.816C332.886 176.816 332.628 177.098 332.628 177.446C332.628 177.793 332.886 178.074 333.205 178.074Z" fill="#040919"/>
<path d="M339.852 173.898C340.171 173.898 340.43 173.617 340.43 173.269C340.43 172.923 340.171 172.641 339.852 172.641C339.533 172.641 339.274 172.923 339.274 173.269C339.274 173.617 339.533 173.898 339.852 173.898Z" fill="#040919"/>
<path d="M293.373 169.731C293.692 169.731 293.951 169.449 293.951 169.103C293.951 168.755 293.692 168.474 293.373 168.474C293.054 168.474 292.795 168.755 292.795 169.103C292.795 169.449 293.054 169.731 293.373 169.731Z" fill="#040919"/>
<path d="M313.289 165.564C313.609 165.564 313.867 165.282 313.867 164.936C313.867 164.588 313.609 164.307 313.289 164.307C312.97 164.307 312.711 164.588 312.711 164.936C312.711 165.282 312.97 165.564 313.289 165.564Z" fill="#040919"/>
<path d="M319.928 169.731C320.247 169.731 320.506 169.449 320.506 169.103C320.506 168.755 320.247 168.474 319.928 168.474C319.609 168.474 319.35 168.755 319.35 169.103C319.35 169.449 319.609 169.731 319.928 169.731Z" fill="#040919"/>
<path d="M326.566 173.898C326.886 173.898 327.145 173.617 327.145 173.269C327.145 172.923 326.886 172.641 326.566 172.641C326.248 172.641 325.989 172.923 325.989 173.269C325.989 173.617 326.248 173.898 326.566 173.898Z" fill="#040919"/>
<path d="M306.651 161.389C306.97 161.389 307.229 161.107 307.229 160.76C307.229 160.413 306.97 160.131 306.651 160.131C306.331 160.131 306.072 160.413 306.072 160.76C306.072 161.107 306.331 161.389 306.651 161.389Z" fill="#040919"/>
<path d="M273.448 182.241C273.767 182.241 274.026 181.959 274.026 181.613C274.026 181.265 273.767 180.983 273.448 180.983C273.129 180.983 272.87 181.265 272.87 181.613C272.87 181.959 273.129 182.241 273.448 182.241Z" fill="#040919"/>
<path d="M280.087 186.408C280.406 186.408 280.664 186.127 280.664 185.779C280.664 185.433 280.406 185.151 280.087 185.151C279.768 185.151 279.509 185.433 279.509 185.779C279.509 186.127 279.768 186.408 280.087 186.408Z" fill="#040919"/>
<path d="M266.809 186.408C267.129 186.408 267.387 186.127 267.387 185.779C267.387 185.433 267.129 185.151 266.809 185.151C266.49 185.151 266.232 185.433 266.232 185.779C266.232 186.127 266.49 186.408 266.809 186.408Z" fill="#040919"/>
<path d="M273.448 190.575C273.767 190.575 274.026 190.294 274.026 189.946C274.026 189.6 273.767 189.318 273.448 189.318C273.129 189.318 272.87 189.6 272.87 189.946C272.87 190.294 273.129 190.575 273.448 190.575Z" fill="#040919"/>
<path d="M280.087 194.751C280.406 194.751 280.664 194.469 280.664 194.123C280.664 193.775 280.406 193.494 280.087 193.494C279.768 193.494 279.509 193.775 279.509 194.123C279.509 194.469 279.768 194.751 280.087 194.751Z" fill="#040919"/>
<path d="M266.809 194.751C267.129 194.751 267.387 194.469 267.387 194.123C267.387 193.775 267.129 193.494 266.809 193.494C266.49 193.494 266.232 193.775 266.232 194.123C266.232 194.469 266.49 194.751 266.809 194.751Z" fill="#040919"/>
<path d="M273.448 198.918C273.767 198.918 274.026 198.636 274.026 198.29C274.026 197.942 273.767 197.66 273.448 197.66C273.129 197.66 272.87 197.942 272.87 198.29C272.87 198.636 273.129 198.918 273.448 198.918Z" fill="#040919"/>
<path d="M260.171 190.575C260.491 190.575 260.749 190.294 260.749 189.946C260.749 189.6 260.491 189.318 260.171 189.318C259.852 189.318 259.593 189.6 259.593 189.946C259.593 190.294 259.852 190.575 260.171 190.575Z" fill="#040919"/>
<path d="M280.087 203.085C280.406 203.085 280.664 202.803 280.664 202.456C280.664 202.109 280.406 201.828 280.087 201.828C279.768 201.828 279.509 202.109 279.509 202.456C279.509 202.803 279.768 203.085 280.087 203.085Z" fill="#040919"/>
<path d="M266.809 178.074C267.129 178.074 267.387 177.793 267.387 177.446C267.387 177.098 267.129 176.816 266.809 176.816C266.49 176.816 266.232 177.098 266.232 177.446C266.232 177.793 266.49 178.074 266.809 178.074Z" fill="#040919"/>
<path d="M260.171 182.241C260.491 182.241 260.749 181.959 260.749 181.613C260.749 181.265 260.491 180.983 260.171 180.983C259.852 180.983 259.593 181.265 259.593 181.613C259.593 181.959 259.852 182.241 260.171 182.241Z" fill="#040919"/>
<path d="M280.087 169.731C280.406 169.731 280.664 169.449 280.664 169.103C280.664 168.755 280.406 168.474 280.087 168.474C279.768 168.474 279.509 168.755 279.509 169.103C279.509 169.449 279.768 169.731 280.087 169.731Z" fill="#040919"/>
<path d="M273.448 173.898C273.767 173.898 274.026 173.617 274.026 173.269C274.026 172.923 273.767 172.641 273.448 172.641C273.129 172.641 272.87 172.923 272.87 173.269C272.87 173.617 273.129 173.898 273.448 173.898Z" fill="#040919"/>
<path d="M286.726 165.564C287.045 165.564 287.304 165.282 287.304 164.936C287.304 164.588 287.045 164.307 286.726 164.307C286.406 164.307 286.148 164.588 286.148 164.936C286.148 165.282 286.406 165.564 286.726 165.564Z" fill="#040919"/>
<path d="M253.533 186.408C253.852 186.408 254.111 186.127 254.111 185.779C254.111 185.433 253.852 185.151 253.533 185.151C253.213 185.151 252.954 185.433 252.954 185.779C252.954 186.127 253.213 186.408 253.533 186.408Z" fill="#040919"/>
<path d="M266.809 161.389C267.129 161.389 267.387 161.107 267.387 160.76C267.387 160.413 267.129 160.131 266.809 160.131C266.49 160.131 266.232 160.413 266.232 160.76C266.232 161.107 266.49 161.389 266.809 161.389Z" fill="#040919"/>
<path d="M260.171 165.564C260.491 165.564 260.749 165.282 260.749 164.936C260.749 164.588 260.491 164.307 260.171 164.307C259.852 164.307 259.593 164.588 259.593 164.936C259.593 165.282 259.852 165.564 260.171 165.564Z" fill="#040919"/>
<path d="M253.533 169.731C253.852 169.731 254.111 169.449 254.111 169.103C254.111 168.755 253.852 168.474 253.533 168.474C253.213 168.474 252.954 168.755 252.954 169.103C252.954 169.449 253.213 169.731 253.533 169.731Z" fill="#040919"/>
<path d="M246.894 173.898C247.213 173.898 247.472 173.617 247.472 173.269C247.472 172.923 247.213 172.641 246.894 172.641C246.574 172.641 246.316 172.923 246.316 173.269C246.316 173.617 246.574 173.898 246.894 173.898Z" fill="#040919"/>
<path d="M266.809 169.731C267.129 169.731 267.387 169.449 267.387 169.103C267.387 168.755 267.129 168.474 266.809 168.474C266.49 168.474 266.232 168.755 266.232 169.103C266.232 169.449 266.49 169.731 266.809 169.731Z" fill="#040919"/>
<path d="M260.171 173.898C260.491 173.898 260.749 173.617 260.749 173.269C260.749 172.923 260.491 172.641 260.171 172.641C259.852 172.641 259.593 172.923 259.593 173.269C259.593 173.617 259.852 173.898 260.171 173.898Z" fill="#040919"/>
<path d="M273.448 165.564C273.767 165.564 274.026 165.282 274.026 164.936C274.026 164.588 273.767 164.307 273.448 164.307C273.129 164.307 272.87 164.588 272.87 164.936C272.87 165.282 273.129 165.564 273.448 165.564Z" fill="#040919"/>
<path d="M253.533 178.074C253.852 178.074 254.111 177.793 254.111 177.446C254.111 177.098 253.852 176.816 253.533 176.816C253.213 176.816 252.954 177.098 252.954 177.446C252.954 177.793 253.213 178.074 253.533 178.074Z" fill="#040919"/>
<path d="M246.894 182.241C247.213 182.241 247.472 181.959 247.472 181.613C247.472 181.265 247.213 180.983 246.894 180.983C246.574 180.983 246.316 181.265 246.316 181.613C246.316 181.959 246.574 182.241 246.894 182.241Z" fill="#040919"/>
<path d="M293.373 161.389C293.692 161.389 293.951 161.107 293.951 160.76C293.951 160.413 293.692 160.131 293.373 160.131C293.054 160.131 292.795 160.413 292.795 160.76C292.795 161.107 293.054 161.389 293.373 161.389Z" fill="#040919"/>
<path d="M280.087 153.054C280.406 153.054 280.664 152.773 280.664 152.426C280.664 152.079 280.406 151.797 280.087 151.797C279.768 151.797 279.509 152.079 279.509 152.426C279.509 152.773 279.768 153.054 280.087 153.054Z" fill="#040919"/>
<path d="M273.448 157.222C273.767 157.222 274.026 156.94 274.026 156.592C274.026 156.246 273.767 155.964 273.448 155.964C273.129 155.964 272.87 156.246 272.87 156.592C272.87 156.94 273.129 157.222 273.448 157.222Z" fill="#040919"/>
<path d="M280.087 161.389C280.406 161.389 280.664 161.107 280.664 160.76C280.664 160.413 280.406 160.131 280.087 160.131C279.768 160.131 279.509 160.413 279.509 160.76C279.509 161.107 279.768 161.389 280.087 161.389Z" fill="#040919"/>
<path d="M286.726 157.222C287.045 157.222 287.304 156.94 287.304 156.592C287.304 156.246 287.045 155.964 286.726 155.964C286.406 155.964 286.148 156.246 286.148 156.592C286.148 156.94 286.406 157.222 286.726 157.222Z" fill="#040919"/>
<path d="M300.012 157.222C300.331 157.222 300.59 156.94 300.59 156.592C300.59 156.246 300.331 155.964 300.012 155.964C299.692 155.964 299.434 156.246 299.434 156.592C299.434 156.94 299.692 157.222 300.012 157.222Z" fill="#040919"/>
<path d="M286.726 148.887C287.045 148.887 287.304 148.606 287.304 148.259C287.304 147.912 287.045 147.63 286.726 147.63C286.406 147.63 286.148 147.912 286.148 148.259C286.148 148.606 286.406 148.887 286.726 148.887Z" fill="#040919"/>
<path d="M293.373 153.054C293.692 153.054 293.951 152.773 293.951 152.426C293.951 152.079 293.692 151.797 293.373 151.797C293.054 151.797 292.795 152.079 292.795 152.426C292.795 152.773 293.054 153.054 293.373 153.054Z" fill="#040919"/>
<path d="M319.928 153.054C320.247 153.054 320.506 152.773 320.506 152.426C320.506 152.079 320.247 151.797 319.928 151.797C319.609 151.797 319.35 152.079 319.35 152.426C319.35 152.773 319.609 153.054 319.928 153.054Z" fill="#040919"/>
<path d="M326.566 157.222C326.886 157.222 327.145 156.94 327.145 156.592C327.145 156.246 326.886 155.964 326.566 155.964C326.248 155.964 325.989 156.246 325.989 156.592C325.989 156.94 326.248 157.222 326.566 157.222Z" fill="#040919"/>
<path d="M319.928 161.389C320.247 161.389 320.506 161.107 320.506 160.76C320.506 160.413 320.247 160.131 319.928 160.131C319.609 160.131 319.35 160.413 319.35 160.76C319.35 161.107 319.609 161.389 319.928 161.389Z" fill="#040919"/>
<path d="M333.205 161.389C333.524 161.389 333.783 161.107 333.783 160.76C333.783 160.413 333.524 160.131 333.205 160.131C332.886 160.131 332.628 160.413 332.628 160.76C332.628 161.107 332.886 161.389 333.205 161.389Z" fill="#040919"/>
<path d="M326.566 165.564C326.886 165.564 327.145 165.282 327.145 164.936C327.145 164.588 326.886 164.307 326.566 164.307C326.248 164.307 325.989 164.588 325.989 164.936C325.989 165.282 326.248 165.564 326.566 165.564Z" fill="#040919"/>
<path d="M339.852 165.564C340.171 165.564 340.43 165.282 340.43 164.936C340.43 164.588 340.171 164.307 339.852 164.307C339.533 164.307 339.274 164.588 339.274 164.936C339.274 165.282 339.533 165.564 339.852 165.564Z" fill="#040919"/>
<path d="M333.205 169.731C333.524 169.731 333.783 169.449 333.783 169.103C333.783 168.755 333.524 168.474 333.205 168.474C332.886 168.474 332.628 168.755 332.628 169.103C332.628 169.449 332.886 169.731 333.205 169.731Z" fill="#040919"/>
<path d="M346.491 169.731C346.81 169.731 347.069 169.449 347.069 169.103C347.069 168.755 346.81 168.474 346.491 168.474C346.172 168.474 345.913 168.755 345.913 169.103C345.913 169.449 346.172 169.731 346.491 169.731Z" fill="#040919"/>
<path d="M353.13 165.564C353.449 165.564 353.708 165.282 353.708 164.936C353.708 164.588 353.449 164.307 353.13 164.307C352.81 164.307 352.551 164.588 352.551 164.936C352.551 165.282 352.81 165.564 353.13 165.564Z" fill="#040919"/>
<path d="M313.289 157.222C313.609 157.222 313.867 156.94 313.867 156.592C313.867 156.246 313.609 155.964 313.289 155.964C312.97 155.964 312.711 156.246 312.711 156.592C312.711 156.94 312.97 157.222 313.289 157.222Z" fill="#040919"/>
<path d="M333.205 153.054C333.524 153.054 333.783 152.773 333.783 152.426C333.783 152.079 333.524 151.797 333.205 151.797C332.886 151.797 332.628 152.079 332.628 152.426C332.628 152.773 332.886 153.054 333.205 153.054Z" fill="#040919"/>
<path d="M339.852 157.222C340.171 157.222 340.43 156.94 340.43 156.592C340.43 156.246 340.171 155.964 339.852 155.964C339.533 155.964 339.274 156.246 339.274 156.592C339.274 156.94 339.533 157.222 339.852 157.222Z" fill="#040919"/>
<path d="M346.491 161.389C346.81 161.389 347.069 161.107 347.069 160.76C347.069 160.413 346.81 160.131 346.491 160.131C346.172 160.131 345.913 160.413 345.913 160.76C345.913 161.107 346.172 161.389 346.491 161.389Z" fill="#040919"/>
<path d="M319.928 194.751C320.247 194.751 320.506 194.469 320.506 194.123C320.506 193.775 320.247 193.494 319.928 193.494C319.609 193.494 319.35 193.775 319.35 194.123C319.35 194.469 319.609 194.751 319.928 194.751Z" fill="#040919"/>
<path d="M313.289 198.918C313.609 198.918 313.867 198.636 313.867 198.29C313.867 197.942 313.609 197.66 313.289 197.66C312.97 197.66 312.711 197.942 312.711 198.29C312.711 198.636 312.97 198.918 313.289 198.918Z" fill="#040919"/>
<path d="M306.651 203.085C306.97 203.085 307.229 202.803 307.229 202.456C307.229 202.109 306.97 201.828 306.651 201.828C306.331 201.828 306.072 202.109 306.072 202.456C306.072 202.803 306.331 203.085 306.651 203.085Z" fill="#040919"/>
<path d="M326.566 198.918C326.886 198.918 327.145 198.636 327.145 198.29C327.145 197.942 326.886 197.66 326.566 197.66C326.248 197.66 325.989 197.942 325.989 198.29C325.989 198.636 326.248 198.918 326.566 198.918Z" fill="#040919"/>
<path d="M319.928 203.085C320.247 203.085 320.506 202.803 320.506 202.456C320.506 202.109 320.247 201.828 319.928 201.828C319.609 201.828 319.35 202.109 319.35 202.456C319.35 202.803 319.609 203.085 319.928 203.085Z" fill="#040919"/>
<path d="M313.289 207.252C313.609 207.252 313.867 206.97 313.867 206.623C313.867 206.276 313.609 205.995 313.289 205.995C312.97 205.995 312.711 206.276 312.711 206.623C312.711 206.97 312.97 207.252 313.289 207.252Z" fill="#040919"/>
<path d="M306.651 211.428C306.97 211.428 307.229 211.146 307.229 210.799C307.229 210.452 306.97 210.17 306.651 210.17C306.331 210.17 306.072 210.452 306.072 210.799C306.072 211.146 306.331 211.428 306.651 211.428Z" fill="#040919"/>
<path d="M326.566 207.252C326.886 207.252 327.145 206.97 327.145 206.623C327.145 206.276 326.886 205.995 326.566 205.995C326.248 205.995 325.989 206.276 325.989 206.623C325.989 206.97 326.248 207.252 326.566 207.252Z" fill="#040919"/>
<path d="M319.928 211.428C320.247 211.428 320.506 211.146 320.506 210.799C320.506 210.452 320.247 210.17 319.928 210.17C319.609 210.17 319.35 210.452 319.35 210.799C319.35 211.146 319.609 211.428 319.928 211.428Z" fill="#040919"/>
<path d="M333.205 203.085C333.524 203.085 333.783 202.803 333.783 202.456C333.783 202.109 333.524 201.828 333.205 201.828C332.886 201.828 332.628 202.109 332.628 202.456C332.628 202.803 332.886 203.085 333.205 203.085Z" fill="#040919"/>
<path d="M313.289 215.595C313.609 215.595 313.867 215.313 313.867 214.966C313.867 214.619 313.609 214.337 313.289 214.337C312.97 214.337 312.711 214.619 312.711 214.966C312.711 215.313 312.97 215.595 313.289 215.595Z" fill="#040919"/>
<path d="M306.651 219.762C306.97 219.762 307.229 219.48 307.229 219.133C307.229 218.786 306.97 218.504 306.651 218.504C306.331 218.504 306.072 218.786 306.072 219.133C306.072 219.48 306.331 219.762 306.651 219.762Z" fill="#040919"/>
<path d="M333.205 186.408C333.524 186.408 333.783 186.127 333.783 185.779C333.783 185.433 333.524 185.151 333.205 185.151C332.886 185.151 332.628 185.433 332.628 185.779C332.628 186.127 332.886 186.408 333.205 186.408Z" fill="#040919"/>
<path d="M326.566 190.575C326.886 190.575 327.145 190.294 327.145 189.946C327.145 189.6 326.886 189.318 326.566 189.318C326.248 189.318 325.989 189.6 325.989 189.946C325.989 190.294 326.248 190.575 326.566 190.575Z" fill="#040919"/>
<path d="M339.852 190.575C340.171 190.575 340.43 190.294 340.43 189.946C340.43 189.6 340.171 189.318 339.852 189.318C339.533 189.318 339.274 189.6 339.274 189.946C339.274 190.294 339.533 190.575 339.852 190.575Z" fill="#040919"/>
<path d="M333.205 194.751C333.524 194.751 333.783 194.469 333.783 194.123C333.783 193.775 333.524 193.494 333.205 193.494C332.886 193.494 332.628 193.775 332.628 194.123C332.628 194.469 332.886 194.751 333.205 194.751Z" fill="#040919"/>
<path d="M339.852 198.918C340.171 198.918 340.43 198.636 340.43 198.29C340.43 197.942 340.171 197.66 339.852 197.66C339.533 197.66 339.274 197.942 339.274 198.29C339.274 198.636 339.533 198.918 339.852 198.918Z" fill="#040919"/>
<path d="M346.491 194.751C346.81 194.751 347.069 194.469 347.069 194.123C347.069 193.775 346.81 193.494 346.491 193.494C346.172 193.494 345.913 193.775 345.913 194.123C345.913 194.469 346.172 194.751 346.491 194.751Z" fill="#040919"/>
<path d="M353.13 190.575C353.449 190.575 353.708 190.294 353.708 189.946C353.708 189.6 353.449 189.318 353.13 189.318C352.81 189.318 352.551 189.6 352.551 189.946C352.551 190.294 352.81 190.575 353.13 190.575Z" fill="#040919"/>
<path d="M359.769 186.408C360.088 186.408 360.347 186.127 360.347 185.779C360.347 185.433 360.088 185.151 359.769 185.151C359.449 185.151 359.19 185.433 359.19 185.779C359.19 186.127 359.449 186.408 359.769 186.408Z" fill="#040919"/>
<path d="M333.205 178.065C333.524 178.065 333.783 177.784 333.783 177.436C333.783 177.09 333.524 176.808 333.205 176.808C332.886 176.808 332.628 177.09 332.628 177.436C332.628 177.784 332.886 178.065 333.205 178.065Z" fill="#040919"/>
<path d="M339.852 182.241C340.171 182.241 340.43 181.959 340.43 181.613C340.43 181.265 340.171 180.983 339.852 180.983C339.533 180.983 339.274 181.265 339.274 181.613C339.274 181.959 339.533 182.241 339.852 182.241Z" fill="#040919"/>
<path d="M346.491 186.408C346.81 186.408 347.069 186.127 347.069 185.779C347.069 185.433 346.81 185.151 346.491 185.151C346.172 185.151 345.913 185.433 345.913 185.779C345.913 186.127 346.172 186.408 346.491 186.408Z" fill="#040919"/>
<path d="M300.012 207.252C300.331 207.252 300.59 206.97 300.59 206.623C300.59 206.276 300.331 205.995 300.012 205.995C299.692 205.995 299.434 206.276 299.434 206.623C299.434 206.97 299.692 207.252 300.012 207.252Z" fill="#040919"/>
<path d="M293.373 211.428C293.692 211.428 293.951 211.146 293.951 210.799C293.951 210.452 293.692 210.17 293.373 210.17C293.054 210.17 292.795 210.452 292.795 210.799C292.795 211.146 293.054 211.428 293.373 211.428Z" fill="#040919"/>
<path d="M300.012 215.595C300.331 215.595 300.59 215.313 300.59 214.966C300.59 214.619 300.331 214.337 300.012 214.337C299.692 214.337 299.434 214.619 299.434 214.966C299.434 215.313 299.692 215.595 300.012 215.595Z" fill="#040919"/>
<path d="M353.13 173.898C353.449 173.898 353.708 173.617 353.708 173.269C353.708 172.923 353.449 172.641 353.13 172.641C352.81 172.641 352.551 172.923 352.551 173.269C352.551 173.617 352.81 173.898 353.13 173.898Z" fill="#040919"/>
<path d="M346.491 178.074C346.81 178.074 347.069 177.793 347.069 177.446C347.069 177.098 346.81 176.816 346.491 176.816C346.172 176.816 345.913 177.098 345.913 177.446C345.913 177.793 346.172 178.074 346.491 178.074Z" fill="#040919"/>
<path d="M359.769 178.074C360.088 178.074 360.347 177.793 360.347 177.446C360.347 177.098 360.088 176.816 359.769 176.816C359.449 176.816 359.19 177.098 359.19 177.446C359.19 177.793 359.449 178.074 359.769 178.074Z" fill="#040919"/>
<path d="M353.13 182.241C353.449 182.241 353.708 181.959 353.708 181.613C353.708 181.265 353.449 180.983 353.13 180.983C352.81 180.983 352.551 181.265 352.551 181.613C352.551 181.959 352.81 182.241 353.13 182.241Z" fill="#040919"/>
<path d="M366.407 182.241C366.727 182.241 366.985 181.959 366.985 181.613C366.985 181.265 366.727 180.983 366.407 180.983C366.088 180.983 365.829 181.265 365.829 181.613C365.829 181.959 366.088 182.241 366.407 182.241Z" fill="#040919"/>
<path d="M373.046 178.074C373.365 178.074 373.624 177.793 373.624 177.446C373.624 177.098 373.365 176.816 373.046 176.816C372.727 176.816 372.468 177.098 372.468 177.446C372.468 177.793 372.727 178.074 373.046 178.074Z" fill="#040919"/>
<path d="M359.769 169.731C360.088 169.731 360.347 169.449 360.347 169.103C360.347 168.755 360.088 168.474 359.769 168.474C359.449 168.474 359.19 168.755 359.19 169.103C359.19 169.449 359.449 169.731 359.769 169.731Z" fill="#040919"/>
<path d="M366.407 173.898C366.727 173.898 366.985 173.617 366.985 173.269C366.985 172.923 366.727 172.641 366.407 172.641C366.088 172.641 365.829 172.923 365.829 173.269C365.829 173.617 366.088 173.898 366.407 173.898Z" fill="#040919"/>
<path d="M326.566 148.887C326.886 148.887 327.145 148.606 327.145 148.259C327.145 147.912 326.886 147.63 326.566 147.63C326.248 147.63 325.989 147.912 325.989 148.259C325.989 148.606 326.248 148.887 326.566 148.887Z" fill="#040919"/>
<path d="M306.651 153.054C306.97 153.054 307.229 152.773 307.229 152.426C307.229 152.079 306.97 151.797 306.651 151.797C306.331 151.797 306.072 152.079 306.072 152.426C306.072 152.773 306.331 153.054 306.651 153.054Z" fill="#040919"/>
<path d="M313.289 148.887C313.609 148.887 313.867 148.606 313.867 148.259C313.867 147.912 313.609 147.63 313.289 147.63C312.97 147.63 312.711 147.912 312.711 148.259C312.711 148.606 312.97 148.887 313.289 148.887Z" fill="#040919"/>
<path d="M300.012 140.545C300.331 140.545 300.59 140.263 300.59 139.916C300.59 139.569 300.331 139.287 300.012 139.287C299.692 139.287 299.434 139.569 299.434 139.916C299.434 140.263 299.692 140.545 300.012 140.545Z" fill="#040919"/>
<path d="M293.373 144.712C293.692 144.712 293.951 144.43 293.951 144.083C293.951 143.736 293.692 143.454 293.373 143.454C293.054 143.454 292.795 143.736 292.795 144.083C292.795 144.43 293.054 144.712 293.373 144.712Z" fill="#040919"/>
<path d="M300.012 148.887C300.331 148.887 300.59 148.606 300.59 148.259C300.59 147.912 300.331 147.63 300.012 147.63C299.692 147.63 299.434 147.912 299.434 148.259C299.434 148.606 299.692 148.887 300.012 148.887Z" fill="#040919"/>
<path d="M306.651 144.712C306.97 144.712 307.229 144.43 307.229 144.083C307.229 143.736 306.97 143.454 306.651 143.454C306.331 143.454 306.072 143.736 306.072 144.083C306.072 144.43 306.331 144.712 306.651 144.712Z" fill="#040919"/>
<path d="M319.928 144.712C320.247 144.712 320.506 144.43 320.506 144.083C320.506 143.736 320.247 143.454 319.928 143.454C319.609 143.454 319.35 143.736 319.35 144.083C319.35 144.43 319.609 144.712 319.928 144.712Z" fill="#040919"/>
<path d="M306.651 136.378C306.97 136.378 307.229 136.096 307.229 135.749C307.229 135.402 306.97 135.12 306.651 135.12C306.331 135.12 306.072 135.402 306.072 135.749C306.072 136.096 306.331 136.378 306.651 136.378Z" fill="#040919"/>
<path d="M313.289 140.545C313.609 140.545 313.867 140.263 313.867 139.916C313.867 139.569 313.609 139.287 313.289 139.287C312.97 139.287 312.711 139.569 312.711 139.916C312.711 140.263 312.97 140.545 313.289 140.545Z" fill="#040919"/>
<path d="M240.247 178.074C240.566 178.074 240.825 177.793 240.825 177.446C240.825 177.098 240.566 176.816 240.247 176.816C239.927 176.816 239.668 177.098 239.668 177.446C239.668 177.793 239.927 178.074 240.247 178.074Z" fill="#040919"/>
</g>
<path d="M224.244 177.446L306.65 229.191L389.056 177.446" stroke="#5D688C" stroke-linecap="round" stroke-linejoin="round"/>
<path d="M306.65 102.567C311.53 105.628 315.626 121.183 319.143 130.459C321.29 136.127 327.623 144.101 331.636 146.615C335.971 149.336 339.406 151.492 344.129 154.456C349.207 157.644 351.742 148.143 356.622 151.204C361.247 154.106 363.905 166.867 369.115 170.136C369.115 170.136 360.272 175.685 356.622 177.975C351.742 181.038 348.142 183.301 344.129 185.816C339.794 188.537 336.359 181.711 331.636 184.675C326.558 187.863 324.023 198.433 319.143 201.495C314.519 204.396 306.65 209.335 306.65 209.335C301.448 206.067 298.781 204.396 294.157 201.495C289.277 198.433 286.743 196.844 281.664 193.655C276.949 190.692 273.506 188.537 269.171 185.816C265.158 183.292 261.558 181.038 256.678 177.975C251.798 174.913 249.222 164.657 244.185 161.819C244.185 161.819 252.054 156.88 256.678 153.98C261.558 150.917 263.952 149.319 269.171 146.4C273.621 143.913 277.329 149.328 281.664 146.607C285.677 144.083 290.912 138.982 294.157 130.451C296.849 123.356 301.77 105.62 306.65 102.557" fill="#4331E8"/>
<path d="M244.194 161.838C249.396 158.569 252.062 156.899 256.687 153.997C261.567 150.936 263.961 149.336 269.18 146.418C273.63 143.931 277.337 149.346 281.673 146.625C285.686 144.102 290.92 139 294.166 130.469C296.857 123.374 301.779 105.638 306.658 102.575" stroke="#666BFF" stroke-miterlimit="10"/>
<path d="M256.687 177.994C261.889 174.725 264.555 173.054 269.18 170.153C274.06 167.091 276.594 165.502 281.673 162.314C286.387 159.35 289.83 157.195 294.166 154.473C298.179 151.95 301.779 149.696 306.659 146.633C311.538 143.571 314.272 133.54 319.152 130.478" stroke="#666BFF" stroke-miterlimit="10"/>
<path d="M269.171 185.833C274.373 182.564 277.041 174.33 281.664 171.428C286.544 168.367 289.079 173.333 294.157 170.144C298.872 167.181 302.315 165.026 306.65 162.304C310.663 159.781 314.263 153.647 319.143 150.584C324.023 147.523 326.756 149.678 331.636 146.615" stroke="#666BFF" stroke-miterlimit="10"/>
<path d="M281.664 193.682C286.866 190.414 289.534 188.743 294.157 185.843C299.037 182.78 301.572 181.19 306.65 178.002C311.365 175.039 314.808 163.526 319.143 160.804C323.156 158.281 326.756 165.376 331.636 162.314C336.516 159.251 339.249 157.536 344.129 154.473" stroke="#666BFF" stroke-miterlimit="10"/>
<path d="M294.157 201.522C299.359 198.253 302.027 196.583 306.65 193.682C311.53 190.62 314.065 189.03 319.143 185.842C323.858 182.879 327.301 180.723 331.636 178.002C335.649 175.479 339.249 173.224 344.129 170.163C349.009 167.1 351.742 154.294 356.622 151.231" stroke="#666BFF" stroke-miterlimit="10"/>
<path d="M306.65 209.371C311.852 206.102 314.519 204.432 319.143 201.531C324.023 198.469 326.558 187.899 331.636 184.711C336.35 181.747 339.794 188.572 344.129 185.851C348.142 183.328 351.742 181.073 356.622 178.011C361.502 174.949 364.235 173.234 369.115 170.171" stroke="#666BFF" stroke-miterlimit="10"/>
<path d="M369.107 170.153C363.905 166.884 361.238 154.123 356.614 151.223C351.734 148.16 349.199 157.661 344.121 154.473C339.406 151.509 335.963 149.354 331.628 146.634C327.615 144.109 321.282 136.144 319.135 130.478C315.626 121.191 311.522 105.646 306.642 102.584" stroke="#666BFF" stroke-miterlimit="10"/>
<path d="M356.614 177.994C351.412 174.725 348.745 173.054 344.121 170.153C339.241 167.091 336.706 165.502 331.628 162.314C326.913 159.35 323.47 153.315 319.135 150.594C315.122 148.071 311.522 149.686 306.642 146.625C301.762 143.562 299.029 133.531 294.149 130.469" stroke="#666BFF" stroke-miterlimit="10"/>
<path d="M344.12 185.833C338.918 182.564 336.252 180.894 331.628 177.994C326.748 174.931 324.213 163.984 319.135 160.796C314.42 157.832 310.977 165.026 306.642 162.304C302.629 159.781 299.028 157.527 294.149 154.464C289.269 151.402 286.535 149.686 281.656 146.625" stroke="#666BFF" stroke-miterlimit="10"/>
<path d="M331.628 184.702C326.426 181.433 323.759 188.743 319.135 185.843C314.255 182.78 311.721 181.19 306.642 178.002C301.928 175.039 298.484 172.884 294.149 170.163C290.136 167.638 286.536 165.385 281.656 162.322C276.776 159.26 274.043 149.498 269.163 146.436" stroke="#BBD7FD" stroke-miterlimit="10"/>
<path d="M319.143 201.523C313.941 198.254 311.274 196.584 306.65 193.682C301.77 190.62 299.235 189.031 294.157 185.843C289.442 182.879 285.999 174.787 281.664 172.066C277.651 169.543 274.051 173.216 269.171 170.153C264.291 167.091 261.558 157.06 256.678 153.997" stroke="#666BFF" stroke-miterlimit="10"/>
<path d="M306.65 209.371C301.448 206.102 298.781 204.432 294.157 201.531C289.277 198.469 286.742 196.879 281.664 193.691C276.949 190.727 273.506 188.572 269.171 185.851C265.158 183.328 261.558 181.073 256.678 178.011C251.798 174.948 249.065 164.917 244.185 161.855" stroke="#666BFF" stroke-miterlimit="10"/>
<path d="M281.664 172.058V118.947" stroke="white" stroke-miterlimit="10"/>
<path d="M281.664 146.616V118.947" stroke="#666BFF" stroke-miterlimit="10"/>
<path d="M307.228 194.123V183.543" stroke="white" stroke-miterlimit="10"/>
<path d="M319.35 160.759V126.876" stroke="white" stroke-miterlimit="10"/>
<path d="M331.628 177.994V164.307" stroke="white" stroke-miterlimit="10"/>
<path d="M310.523 179.96H303.933V187.127H310.523V179.96Z" fill="#040919"/>
<path d="M334.922 160.724H328.333V167.891H334.922V160.724Z" fill="#040919"/>
<path d="M322.644 123.293H316.055V130.459H322.644V123.293Z" fill="#040919"/>
<path d="M284.959 115.364H278.369V122.53H284.959V115.364Z" fill="#040919"/>
<defs>
<linearGradient id="paint0_linear_1_45" x1="224.244" y1="177.446" x2="389.056" y2="177.446" gradientUnits="userSpaceOnUse">
<stop stop-color="#D0D3F5"/>
<stop offset="0.06" stop-color="#D0D3F5" stop-opacity="0.78"/>
<stop offset="0.14" stop-color="#D0D3F5" stop-opacity="0.55"/>
<stop offset="0.21" stop-color="#D0D3F5" stop-opacity="0.35"/>
<stop offset="0.28" stop-color="#D0D3F5" stop-opacity="0.2"/>
<stop offset="0.35" stop-color="#D0D3F5" stop-opacity="0.09"/>
<stop offset="0.4" stop-color="#D0D3F5" stop-opacity="0.02"/>
<stop offset="0.45" stop-color="#D0D3F5" stop-opacity="0"/>
</linearGradient>
</defs>
</svg>
