<svg width="50" height="30" viewBox="0 0 199 122" fill="none" xmlns="http://www.w3.org/2000/svg">
<path d="M25.4444 22V102H5.44444C-4.55556 102 5.44444 121.5 5.44444 121.5H25.4444H51.4444H73.9444C73.9444 121.5 79.9444 97.5 73.9444 102C67.9444 106.5 51.4444 102 51.4444 102V22H73.9444C73.9444 22 81.9444 -3.50003 73.9444 2.99997C65.9444 9.49997 13.9444 8.99997 5.44444 2.99997C-3.05554 -3.00002 5.44444 22 5.44444 22H25.4444Z" fill="#CAC5FA"/>
<path d="M25.4444 102V22H5.44444C5.44444 22 -3.05554 -3.00002 5.44444 2.99997C13.9444 8.99997 65.9444 9.49997 73.9444 2.99997C81.9444 -3.50003 73.9444 22 73.9444 22H51.4444V102C51.4444 102 67.9444 106.5 73.9444 102C79.9444 97.5 73.9444 121.5 73.9444 121.5H51.4444H25.4444H5.44444C5.44444 121.5 -4.55556 102 5.44444 102M25.4444 102C25.4444 102 15.4444 102 5.44444 102M25.4444 102H5.44444" stroke="black"/>
<path d="M194.944 1H92.4444C92.4444 1 103.944 11.5 92.4444 21C80.9444 30.5 129.944 21 129.944 21C129.944 21 123.944 127.5 137.444 121C150.944 114.5 137.944 117 149.444 121C160.944 125 155.944 21 155.944 21C155.944 21 186.944 9 194.944 21C202.944 33 194.944 1 194.944 1Z" fill="#CAC5FA" stroke="black"/>
</svg>
