<svg width="122" height="75" viewBox="0 0 122 75" fill="none" xmlns="http://www.w3.org/2000/svg">
<path d="M15.8523 13.722V62.1867H3.70042C-2.37553 62.1867 3.70042 74 3.70042 74H15.8523H31.6498H45.3207C45.3207 74 48.9662 59.4606 45.3207 62.1867C41.6751 64.9129 31.6498 62.1867 31.6498 62.1867V13.722H45.3207C45.3207 13.722 50.1814 -1.72612 45.3207 2.21164C40.4599 6.1494 8.86497 5.84649 3.70042 2.21164C-1.46412 -1.42321 3.70042 13.722 3.70042 13.722H15.8523Z" fill="#CAC5FA"/>
<path d="M15.8523 62.1867V13.722H3.70042C3.70042 13.722 -1.46412 -1.42321 3.70042 2.21164C8.86497 5.84649 40.4599 6.1494 45.3207 2.21164C50.1814 -1.72612 45.3207 13.722 45.3207 13.722H31.6498V62.1867C31.6498 62.1867 41.6751 64.9129 45.3207 62.1867C48.9662 59.4606 45.3207 74 45.3207 74H31.6498H15.8523H3.70042C3.70042 74 -2.37553 62.1867 3.70042 62.1867M15.8523 62.1867C15.8523 62.1867 9.77637 62.1867 3.70042 62.1867M15.8523 62.1867H3.70042" stroke="black"/>
<path d="M118.84 1H56.5612C56.5612 1 63.5486 7.361 56.5612 13.1162C49.5739 18.8714 79.346 13.1162 79.346 13.1162C79.346 13.1162 75.7005 77.6348 83.903 73.6971C92.1055 69.7593 84.2068 71.2739 91.1942 73.6971C98.1815 76.1203 95.1435 13.1162 95.1435 13.1162C95.1435 13.1162 113.979 5.84647 118.84 13.1162C123.7 20.3859 118.84 1 118.84 1Z" fill="#CAC5FA" stroke="black"/>
</svg>
