<svg width="400" height="120" viewBox="0 0 400 120" fill="none" xmlns="http://www.w3.org/2000/svg">
<g filter="url(#filter0_i_1_509)">
<rect width="400" height="120" rx="32" fill="white"/>
</g>
<path d="M116.875 30V15.4545H119.509V21.6122H126.25V15.4545H128.892V30H126.25V23.821H119.509V30H116.875ZM134.783 30.2202C134.092 30.2202 133.469 30.0971 132.915 29.8509C132.366 29.5999 131.93 29.2306 131.608 28.7429C131.291 28.2552 131.132 27.6539 131.132 26.9389C131.132 26.3234 131.246 25.8144 131.473 25.4119C131.701 25.0095 132.011 24.6875 132.404 24.446C132.797 24.2045 133.239 24.0223 133.732 23.8991C134.229 23.7713 134.743 23.679 135.273 23.6222C135.912 23.5559 136.431 23.4967 136.828 23.4446C137.226 23.3878 137.515 23.3026 137.695 23.1889C137.88 23.0705 137.972 22.8883 137.972 22.642V22.5994C137.972 22.0644 137.813 21.6501 137.496 21.3565C137.179 21.063 136.722 20.9162 136.125 20.9162C135.496 20.9162 134.996 21.0535 134.627 21.3281C134.262 21.6027 134.016 21.9271 133.888 22.3011L131.487 21.9602C131.677 21.2973 131.989 20.7434 132.425 20.2983C132.861 19.8485 133.393 19.5123 134.023 19.2898C134.653 19.0625 135.349 18.9489 136.111 18.9489C136.637 18.9489 137.16 19.0104 137.681 19.1335C138.201 19.2566 138.677 19.4602 139.108 19.7443C139.539 20.0237 139.885 20.4048 140.145 20.8878C140.41 21.3707 140.543 21.9744 140.543 22.6989V30H138.071V28.5014H137.986C137.83 28.8045 137.61 29.0885 137.326 29.3537C137.046 29.6141 136.693 29.8248 136.267 29.9858C135.846 30.142 135.351 30.2202 134.783 30.2202ZM135.451 28.331C135.967 28.331 136.414 28.2292 136.793 28.0256C137.172 27.8172 137.463 27.5426 137.666 27.2017C137.875 26.8608 137.979 26.4891 137.979 26.0866V24.8011C137.898 24.8674 137.761 24.929 137.567 24.9858C137.378 25.0426 137.165 25.0923 136.928 25.1349C136.691 25.1776 136.457 25.2154 136.225 25.2486C135.993 25.2817 135.791 25.3101 135.621 25.3338C135.237 25.3859 134.894 25.4711 134.591 25.5895C134.288 25.7079 134.049 25.8736 133.874 26.0866C133.699 26.295 133.611 26.5649 133.611 26.8963C133.611 27.3698 133.784 27.7273 134.13 27.9688C134.475 28.2102 134.915 28.331 135.451 28.331ZM142.524 27.0099H145.074C145.098 27.4171 145.28 27.732 145.621 27.9545C145.962 28.1771 146.405 28.2884 146.949 28.2884C147.503 28.2884 147.969 28.1676 148.348 27.9261C148.732 27.6799 148.924 27.3082 148.924 26.8111C148.924 26.5175 148.85 26.2595 148.703 26.0369C148.557 25.8097 148.351 25.6345 148.085 25.5114C147.82 25.3883 147.508 25.3267 147.148 25.3267H145.479V23.5014H147.148C147.683 23.5014 148.088 23.3783 148.362 23.1321C148.642 22.8859 148.781 22.5758 148.781 22.2017C148.781 21.7992 148.635 21.4725 148.341 21.2216C148.052 20.9706 147.652 20.8452 147.141 20.8452C146.63 20.8452 146.203 20.9612 145.862 21.1932C145.526 21.4252 145.351 21.7235 145.337 22.0881H142.801C142.811 21.4536 143 20.902 143.37 20.4332C143.744 19.9645 144.246 19.5999 144.875 19.3395C145.51 19.0791 146.225 18.9489 147.02 18.9489C147.872 18.9489 148.609 19.0767 149.229 19.3324C149.849 19.5881 150.327 19.9455 150.664 20.4048C151 20.8594 151.168 21.3944 151.168 22.0099C151.168 22.6018 150.983 23.0919 150.614 23.4801C150.245 23.8636 149.747 24.1383 149.122 24.304V24.4176C149.553 24.4413 149.942 24.5644 150.287 24.7869C150.633 25.0047 150.907 25.3007 151.111 25.6747C151.315 26.0488 151.416 26.482 151.416 26.9744C151.416 27.642 151.225 28.2197 150.841 28.7074C150.458 29.1903 149.93 29.562 149.257 29.8224C148.59 30.0829 147.825 30.2131 146.963 30.2131C146.125 30.2131 145.375 30.0876 144.712 29.8366C144.054 29.581 143.531 29.214 143.142 28.7358C142.754 28.2576 142.548 27.6823 142.524 27.0099ZM153.441 30V19.0909H158.022C159.314 19.0909 160.335 19.349 161.083 19.8651C161.835 20.3812 162.212 21.1009 162.212 22.0241C162.212 22.6349 161.999 23.1345 161.573 23.5227C161.151 23.9062 160.576 24.1643 159.847 24.2969C160.42 24.3442 160.922 24.4886 161.353 24.7301C161.788 24.9716 162.129 25.2888 162.375 25.6818C162.621 26.0748 162.745 26.527 162.745 27.0384C162.745 27.6397 162.586 28.1629 162.269 28.608C161.956 29.0483 161.499 29.3916 160.898 29.6378C160.301 29.8793 159.577 30 158.725 30H153.441ZM155.848 27.9759H158.725C159.198 27.9759 159.57 27.8646 159.84 27.642C160.11 27.4148 160.245 27.107 160.245 26.7188C160.245 26.2689 160.11 25.9162 159.84 25.6605C159.57 25.4001 159.198 25.2699 158.725 25.2699H155.848V27.9759ZM155.848 23.608H158.071C158.422 23.608 158.722 23.5582 158.973 23.4588C159.224 23.3546 159.416 23.2102 159.549 23.0256C159.681 22.8362 159.747 22.6113 159.747 22.3509C159.747 21.9768 159.594 21.6832 159.286 21.4702C158.983 21.2571 158.561 21.1506 158.022 21.1506H155.848V23.608ZM168.006 30.2202C167.314 30.2202 166.692 30.0971 166.138 29.8509C165.588 29.5999 165.153 29.2306 164.831 28.7429C164.514 28.2552 164.355 27.6539 164.355 26.9389C164.355 26.3234 164.469 25.8144 164.696 25.4119C164.923 25.0095 165.233 24.6875 165.626 24.446C166.019 24.2045 166.462 24.0223 166.954 23.8991C167.452 23.7713 167.965 23.679 168.496 23.6222C169.135 23.5559 169.653 23.4967 170.051 23.4446C170.449 23.3878 170.738 23.3026 170.918 23.1889C171.102 23.0705 171.194 22.8883 171.194 22.642V22.5994C171.194 22.0644 171.036 21.6501 170.719 21.3565C170.401 21.063 169.944 20.9162 169.348 20.9162C168.718 20.9162 168.219 21.0535 167.849 21.3281C167.485 21.6027 167.239 21.9271 167.111 22.3011L164.71 21.9602C164.9 21.2973 165.212 20.7434 165.648 20.2983C166.083 19.8485 166.616 19.5123 167.246 19.2898C167.875 19.0625 168.571 18.9489 169.334 18.9489C169.859 18.9489 170.382 19.0104 170.903 19.1335C171.424 19.2566 171.9 19.4602 172.331 19.7443C172.762 20.0237 173.107 20.4048 173.368 20.8878C173.633 21.3707 173.766 21.9744 173.766 22.6989V30H171.294V28.5014H171.209C171.052 28.8045 170.832 29.0885 170.548 29.3537C170.269 29.6141 169.916 29.8248 169.49 29.9858C169.069 30.142 168.574 30.2202 168.006 30.2202ZM168.673 28.331C169.189 28.331 169.637 28.2292 170.016 28.0256C170.394 27.8172 170.686 27.5426 170.889 27.2017C171.097 26.8608 171.202 26.4891 171.202 26.0866V24.8011C171.121 24.8674 170.984 24.929 170.79 24.9858C170.6 25.0426 170.387 25.0923 170.15 25.1349C169.914 25.1776 169.679 25.2154 169.447 25.2486C169.215 25.2817 169.014 25.3101 168.844 25.3338C168.46 25.3859 168.117 25.4711 167.814 25.5895C167.511 25.7079 167.272 25.8736 167.096 26.0866C166.921 26.295 166.834 26.5649 166.834 26.8963C166.834 27.3698 167.007 27.7273 167.352 27.9688C167.698 28.2102 168.138 28.331 168.673 28.331ZM183.844 23.4801V25.5895H178.034V23.4801H183.844ZM178.829 19.0909V30H176.351V19.0909H178.829ZM185.527 19.0909V30H183.055V19.0909H185.527ZM190.607 26.5199L194.975 19.0909H197.617V30H195.131V22.5639L190.777 30H188.128V19.0909H190.607V26.5199ZM205.087 30.2131C203.993 30.2131 203.048 29.9858 202.253 29.5312C201.462 29.072 200.854 28.4233 200.427 27.5852C200.001 26.7424 199.788 25.7505 199.788 24.6094C199.788 23.4872 200.001 22.5024 200.427 21.6548C200.858 20.8026 201.46 20.1397 202.231 19.6662C203.003 19.188 203.91 18.9489 204.952 18.9489C205.624 18.9489 206.258 19.0578 206.855 19.2756C207.456 19.4886 207.987 19.8201 208.446 20.2699C208.91 20.7197 209.275 21.2926 209.54 21.9886C209.805 22.6799 209.937 23.5038 209.937 24.4602V25.2486H200.996V23.5156H207.473C207.468 23.0232 207.362 22.5852 207.153 22.2017C206.945 21.8134 206.654 21.508 206.28 21.2855C205.91 21.063 205.48 20.9517 204.987 20.9517C204.462 20.9517 204 21.0795 203.602 21.3352C203.204 21.5862 202.894 21.9176 202.672 22.3295C202.454 22.7367 202.343 23.1842 202.338 23.6719V25.1847C202.338 25.8191 202.454 26.3636 202.686 26.8182C202.918 27.268 203.242 27.6136 203.659 27.8551C204.076 28.0919 204.563 28.2102 205.122 28.2102C205.496 28.2102 205.835 28.1581 206.138 28.054C206.441 27.9451 206.703 27.7865 206.926 27.5781C207.149 27.3698 207.317 27.1117 207.43 26.804L209.831 27.0739C209.679 27.7083 209.391 28.2623 208.964 28.7358C208.543 29.2045 208.003 29.5691 207.345 29.8295C206.687 30.0852 205.934 30.2131 205.087 30.2131ZM218.671 34.0909C218.321 34.0909 217.997 34.0625 217.698 34.0057C217.405 33.9536 217.17 33.892 216.995 33.821L217.592 31.8182C217.966 31.9271 218.3 31.9792 218.593 31.9744C218.887 31.9697 219.145 31.8774 219.367 31.6974C219.595 31.5223 219.786 31.2287 219.943 30.8168L220.163 30.2273L216.207 19.0909H218.934L221.448 27.3295H221.562L224.083 19.0909H226.818L222.45 31.321C222.246 31.8987 221.976 32.3935 221.64 32.8054C221.304 33.2221 220.892 33.5393 220.404 33.7571C219.921 33.9796 219.344 34.0909 218.671 34.0909ZM232.984 30.2131C231.895 30.2131 230.96 29.974 230.179 29.4957C229.402 29.0175 228.803 28.357 228.382 27.5142C227.965 26.6667 227.757 25.6913 227.757 24.5881C227.757 23.4801 227.97 22.5024 228.396 21.6548C228.822 20.8026 229.424 20.1397 230.2 19.6662C230.981 19.188 231.905 18.9489 232.97 18.9489C233.855 18.9489 234.639 19.1122 235.321 19.4389C236.007 19.7609 236.554 20.2178 236.962 20.8097C237.369 21.3968 237.601 22.0833 237.658 22.8693H235.2C235.101 22.3437 234.864 21.9058 234.49 21.5554C234.121 21.2003 233.626 21.0227 233.006 21.0227C232.48 21.0227 232.018 21.1648 231.621 21.4489C231.223 21.7282 230.913 22.1307 230.69 22.6562C230.472 23.1818 230.364 23.8116 230.364 24.5455C230.364 25.2888 230.472 25.928 230.69 26.4631C230.908 26.9934 231.213 27.4029 231.606 27.6918C232.004 27.9759 232.471 28.1179 233.006 28.1179C233.384 28.1179 233.723 28.0469 234.021 27.9048C234.324 27.758 234.578 27.5473 234.781 27.2727C234.985 26.9981 235.124 26.6643 235.2 26.2713H237.658C237.596 27.0431 237.369 27.7273 236.976 28.3239C236.583 28.9157 236.048 29.3797 235.371 29.7159C234.694 30.0473 233.898 30.2131 232.984 30.2131ZM239.016 30L239.002 27.8835H239.378C239.662 27.8835 239.901 27.8196 240.095 27.6918C240.29 27.5639 240.451 27.3509 240.578 27.0526C240.706 26.7495 240.806 26.3423 240.877 25.831C240.948 25.3196 240.997 24.6828 241.026 23.9205L241.218 19.0909H249.172V30H246.686V21.2003H243.554L243.384 24.7159C243.341 25.625 243.239 26.4134 243.078 27.081C242.922 27.7438 242.7 28.2907 242.411 28.7216C242.127 29.1525 241.769 29.4744 241.338 29.6875C240.907 29.8958 240.398 30 239.811 30H239.016ZM252.968 34.0909C252.618 34.0909 252.294 34.0625 251.995 34.0057C251.702 33.9536 251.467 33.892 251.292 33.821L251.889 31.8182C252.263 31.9271 252.597 31.9792 252.89 31.9744C253.184 31.9697 253.442 31.8774 253.664 31.6974C253.892 31.5223 254.083 31.2287 254.24 30.8168L254.46 30.2273L250.504 19.0909H253.231L255.745 27.3295H255.859L258.38 19.0909H261.115L256.747 31.321C256.543 31.8987 256.273 32.3935 255.937 32.8054C255.601 33.2221 255.189 33.5393 254.701 33.7571C254.218 33.9796 253.641 34.0909 252.968 34.0909ZM270.11 19.0909V21.2003H265.408V30H262.894V19.0909H270.11ZM274.65 26.5199L279.018 19.0909H281.66V30H279.174V22.5639L274.82 30H272.171V19.0909H274.65V26.5199Z" fill="black"/>
<path d="M46.5284 49.4062V48.2727H53.2827V49.4062H50.5597V57H49.2472V49.4062H46.5284ZM55.2418 55.2145L58.1268 50.4545H59.4989V57H58.2504V52.2358L55.3782 57H53.9933V50.4545H55.2418V55.2145ZM61.212 57V50.4545H66.5515V57H65.3029V51.554H62.4521V57H61.212ZM71.0121 57.1321C70.3984 57.1321 69.8629 56.9915 69.4055 56.7102C68.9482 56.429 68.593 56.0355 68.3402 55.5298C68.0874 55.0241 67.9609 54.4332 67.9609 53.7571C67.9609 53.0781 68.0874 52.4844 68.3402 51.9759C68.593 51.4673 68.9482 51.0724 69.4055 50.7912C69.8629 50.5099 70.3984 50.3693 71.0121 50.3693C71.6257 50.3693 72.1612 50.5099 72.6186 50.7912C73.076 51.0724 73.4311 51.4673 73.6839 51.9759C73.9368 52.4844 74.0632 53.0781 74.0632 53.7571C74.0632 54.4332 73.9368 55.0241 73.6839 55.5298C73.4311 56.0355 73.076 56.429 72.6186 56.7102C72.1612 56.9915 71.6257 57.1321 71.0121 57.1321ZM71.0163 56.0625C71.4141 56.0625 71.7436 55.9574 72.005 55.7472C72.2663 55.5369 72.4595 55.2571 72.5845 54.9077C72.7124 54.5582 72.7763 54.1733 72.7763 53.7528C72.7763 53.3352 72.7124 52.9517 72.5845 52.6023C72.4595 52.25 72.2663 51.9673 72.005 51.7543C71.7436 51.5412 71.4141 51.4347 71.0163 51.4347C70.6158 51.4347 70.2834 51.5412 70.0192 51.7543C69.7578 51.9673 69.5632 52.25 69.4354 52.6023C69.3104 52.9517 69.2479 53.3352 69.2479 53.7528C69.2479 54.1733 69.3104 54.5582 69.4354 54.9077C69.5632 55.2571 69.7578 55.5369 70.0192 55.7472C70.2834 55.9574 70.6158 56.0625 71.0163 56.0625ZM82.3345 55.4233L84.4482 50.4545H85.5476L82.8075 57H81.8615L79.1768 50.4545H80.2635L82.3345 55.4233ZM79.9098 50.4545V57H78.6612V50.4545H79.9098ZM84.7933 57V50.4545H86.0334V57H84.7933ZM92.1676 53.1776V54.2812H88.6222V53.1776H92.1676ZM88.9801 50.4545V57H87.7315V50.4545H88.9801ZM93.0582 50.4545V57H91.8139V50.4545H93.0582ZM97.5199 57.1321C96.9063 57.1321 96.3707 56.9915 95.9134 56.7102C95.456 56.429 95.1009 56.0355 94.848 55.5298C94.5952 55.0241 94.4688 54.4332 94.4688 53.7571C94.4688 53.0781 94.5952 52.4844 94.848 51.9759C95.1009 51.4673 95.456 51.0724 95.9134 50.7912C96.3707 50.5099 96.9063 50.3693 97.5199 50.3693C98.1335 50.3693 98.669 50.5099 99.1264 50.7912C99.5838 51.0724 99.9389 51.4673 100.192 51.9759C100.445 52.4844 100.571 53.0781 100.571 53.7571C100.571 54.4332 100.445 55.0241 100.192 55.5298C99.9389 56.0355 99.5838 56.429 99.1264 56.7102C98.669 56.9915 98.1335 57.1321 97.5199 57.1321ZM97.5241 56.0625C97.9219 56.0625 98.2514 55.9574 98.5128 55.7472C98.7741 55.5369 98.9673 55.2571 99.0923 54.9077C99.2202 54.5582 99.2841 54.1733 99.2841 53.7528C99.2841 53.3352 99.2202 52.9517 99.0923 52.6023C98.9673 52.25 98.7741 51.9673 98.5128 51.7543C98.2514 51.5412 97.9219 51.4347 97.5241 51.4347C97.1236 51.4347 96.7912 51.5412 96.527 51.7543C96.2656 51.9673 96.071 52.25 95.9432 52.6023C95.8182 52.9517 95.7557 53.3352 95.7557 53.7528C95.7557 54.1733 95.8182 54.5582 95.9432 54.9077C96.071 55.2571 96.2656 55.5369 96.527 55.7472C96.7912 55.9574 97.1236 56.0625 97.5241 56.0625ZM106.178 50.4545V51.554H103.25V57H101.993V50.4545H106.178ZM109.977 57.1321C109.363 57.1321 108.828 56.9915 108.37 56.7102C107.913 56.429 107.558 56.0355 107.305 55.5298C107.052 55.0241 106.926 54.4332 106.926 53.7571C106.926 53.0781 107.052 52.4844 107.305 51.9759C107.558 51.4673 107.913 51.0724 108.37 50.7912C108.828 50.5099 109.363 50.3693 109.977 50.3693C110.591 50.3693 111.126 50.5099 111.583 50.7912C112.041 51.0724 112.396 51.4673 112.649 51.9759C112.902 52.4844 113.028 53.0781 113.028 53.7571C113.028 54.4332 112.902 55.0241 112.649 55.5298C112.396 56.0355 112.041 56.429 111.583 56.7102C111.126 56.9915 110.591 57.1321 109.977 57.1321ZM109.981 56.0625C110.379 56.0625 110.708 55.9574 110.97 55.7472C111.231 55.5369 111.424 55.2571 111.549 54.9077C111.677 54.5582 111.741 54.1733 111.741 53.7528C111.741 53.3352 111.677 52.9517 111.549 52.6023C111.424 52.25 111.231 51.9673 110.97 51.7543C110.708 51.5412 110.379 51.4347 109.981 51.4347C109.581 51.4347 109.248 51.5412 108.984 51.7543C108.723 51.9673 108.528 52.25 108.4 52.6023C108.275 52.9517 108.213 53.3352 108.213 53.7528C108.213 54.1733 108.275 54.5582 108.4 54.9077C108.528 55.2571 108.723 55.5369 108.984 55.7472C109.248 55.9574 109.581 56.0625 109.981 56.0625ZM120.383 57.1321C119.77 57.1321 119.234 56.9915 118.777 56.7102C118.319 56.429 117.964 56.0355 117.711 55.5298C117.458 55.0241 117.332 54.4332 117.332 53.7571C117.332 53.0781 117.458 52.4844 117.711 51.9759C117.964 51.4673 118.319 51.0724 118.777 50.7912C119.234 50.5099 119.77 50.3693 120.383 50.3693C120.997 50.3693 121.532 50.5099 121.99 50.7912C122.447 51.0724 122.802 51.4673 123.055 51.9759C123.308 52.4844 123.434 53.0781 123.434 53.7571C123.434 54.4332 123.308 55.0241 123.055 55.5298C122.802 56.0355 122.447 56.429 121.99 56.7102C121.532 56.9915 120.997 57.1321 120.383 57.1321ZM120.387 56.0625C120.785 56.0625 121.115 55.9574 121.376 55.7472C121.637 55.5369 121.831 55.2571 121.956 54.9077C122.083 54.5582 122.147 54.1733 122.147 53.7528C122.147 53.3352 122.083 52.9517 121.956 52.6023C121.831 52.25 121.637 51.9673 121.376 51.7543C121.115 51.5412 120.785 51.4347 120.387 51.4347C119.987 51.4347 119.654 51.5412 119.39 51.7543C119.129 51.9673 118.934 52.25 118.806 52.6023C118.681 52.9517 118.619 53.3352 118.619 53.7528C118.619 54.1733 118.681 54.5582 118.806 54.9077C118.934 55.2571 119.129 55.5369 119.39 55.7472C119.654 55.9574 119.987 56.0625 120.387 56.0625ZM130.111 50.4545V57H128.866V50.4545H130.111ZM129.57 53.4929V54.5923C129.374 54.6719 129.166 54.7429 128.947 54.8054C128.729 54.8651 128.499 54.9119 128.257 54.946C128.016 54.9801 127.764 54.9972 127.503 54.9972C126.693 54.9972 126.05 54.7997 125.572 54.4048C125.095 54.0071 124.857 53.3991 124.857 52.581V50.4418H126.097V52.581C126.097 52.8906 126.153 53.142 126.267 53.3352C126.381 53.5284 126.543 53.6705 126.753 53.7614C126.963 53.8523 127.213 53.8977 127.503 53.8977C127.886 53.8977 128.24 53.8622 128.564 53.7912C128.891 53.7173 129.226 53.6179 129.57 53.4929ZM134.627 57.1321C133.982 57.1321 133.426 56.9943 132.961 56.7188C132.498 56.4403 132.14 56.0497 131.887 55.5469C131.637 55.0412 131.512 54.4489 131.512 53.7699C131.512 53.0994 131.637 52.5085 131.887 51.9972C132.14 51.4858 132.492 51.0866 132.944 50.7997C133.398 50.5128 133.929 50.3693 134.537 50.3693C134.907 50.3693 135.265 50.4304 135.611 50.5526C135.958 50.6747 136.269 50.8665 136.544 51.1278C136.82 51.3892 137.037 51.7287 137.196 52.1463C137.355 52.5611 137.435 53.0653 137.435 53.6591V54.1108H132.232V53.1562H136.186C136.186 52.821 136.118 52.5241 135.982 52.2656C135.846 52.0043 135.654 51.7983 135.407 51.6477C135.162 51.4972 134.875 51.4219 134.546 51.4219C134.188 51.4219 133.875 51.5099 133.608 51.6861C133.344 51.8594 133.14 52.0866 132.995 52.3679C132.853 52.6463 132.782 52.9489 132.782 53.2756V54.0213C132.782 54.4588 132.858 54.831 133.012 55.1378C133.168 55.4446 133.385 55.679 133.664 55.8409C133.942 56 134.267 56.0795 134.64 56.0795C134.881 56.0795 135.101 56.0455 135.3 55.9773C135.499 55.9062 135.671 55.8011 135.816 55.6619C135.961 55.5227 136.071 55.3509 136.148 55.1463L137.354 55.3636C137.257 55.7187 137.084 56.0298 136.834 56.2969C136.587 56.5611 136.276 56.767 135.901 56.9148C135.529 57.0597 135.104 57.1321 134.627 57.1321ZM143.285 53.1776V54.2812H139.739V53.1776H143.285ZM140.097 50.4545V57H138.849V50.4545H140.097ZM144.175 50.4545V57H142.931V50.4545H144.175ZM146.839 52.7045H148.739C149.54 52.7045 150.157 52.9034 150.589 53.3011C151.021 53.6989 151.237 54.2116 151.237 54.8395C151.237 55.2486 151.14 55.6165 150.947 55.9432C150.754 56.2699 150.471 56.5284 150.099 56.7188C149.727 56.9062 149.273 57 148.739 57H145.88V50.4545H147.129V55.9006H148.739C149.106 55.9006 149.407 55.8054 149.643 55.6151C149.879 55.4219 149.996 55.1761 149.996 54.8778C149.996 54.5625 149.879 54.3054 149.643 54.1065C149.407 53.9048 149.106 53.804 148.739 53.804H146.839V52.7045ZM159.514 55.4233L161.628 50.4545H162.727L159.987 57H159.041L156.357 50.4545H157.443L159.514 55.4233ZM157.089 50.4545V57H155.841V50.4545H157.089ZM161.973 57V50.4545H163.213V57H161.973ZM169.347 53.1776V54.2812H165.802V53.1776H169.347ZM166.16 50.4545V57H164.911V50.4545H166.16ZM170.238 50.4545V57H168.994V50.4545H170.238ZM174.7 57.1321C174.086 57.1321 173.55 56.9915 173.093 56.7102C172.636 56.429 172.281 56.0355 172.028 55.5298C171.775 55.0241 171.648 54.4332 171.648 53.7571C171.648 53.0781 171.775 52.4844 172.028 51.9759C172.281 51.4673 172.636 51.0724 173.093 50.7912C173.55 50.5099 174.086 50.3693 174.7 50.3693C175.313 50.3693 175.849 50.5099 176.306 50.7912C176.763 51.0724 177.119 51.4673 177.371 51.9759C177.624 52.4844 177.751 53.0781 177.751 53.7571C177.751 54.4332 177.624 55.0241 177.371 55.5298C177.119 56.0355 176.763 56.429 176.306 56.7102C175.849 56.9915 175.313 57.1321 174.7 57.1321ZM174.704 56.0625C175.102 56.0625 175.431 55.9574 175.692 55.7472C175.954 55.5369 176.147 55.2571 176.272 54.9077C176.4 54.5582 176.464 54.1733 176.464 53.7528C176.464 53.3352 176.4 52.9517 176.272 52.6023C176.147 52.25 175.954 51.9673 175.692 51.7543C175.431 51.5412 175.102 51.4347 174.704 51.4347C174.303 51.4347 173.971 51.5412 173.707 51.7543C173.445 51.9673 173.251 52.25 173.123 52.6023C172.998 52.9517 172.935 53.3352 172.935 53.7528C172.935 54.1733 172.998 54.5582 173.123 54.9077C173.251 55.2571 173.445 55.5369 173.707 55.7472C173.971 55.9574 174.303 56.0625 174.704 56.0625ZM183.358 50.4545V51.554H180.43V57H179.173V50.4545H183.358ZM187.157 57.1321C186.543 57.1321 186.007 56.9915 185.55 56.7102C185.093 56.429 184.738 56.0355 184.485 55.5298C184.232 55.0241 184.105 54.4332 184.105 53.7571C184.105 53.0781 184.232 52.4844 184.485 51.9759C184.738 51.4673 185.093 51.0724 185.55 50.7912C186.007 50.5099 186.543 50.3693 187.157 50.3693C187.77 50.3693 188.306 50.5099 188.763 50.7912C189.221 51.0724 189.576 51.4673 189.828 51.9759C190.081 52.4844 190.208 53.0781 190.208 53.7571C190.208 54.4332 190.081 55.0241 189.828 55.5298C189.576 56.0355 189.221 56.429 188.763 56.7102C188.306 56.9915 187.77 57.1321 187.157 57.1321ZM187.161 56.0625C187.559 56.0625 187.888 55.9574 188.15 55.7472C188.411 55.5369 188.604 55.2571 188.729 54.9077C188.857 54.5582 188.921 54.1733 188.921 53.7528C188.921 53.3352 188.857 52.9517 188.729 52.6023C188.604 52.25 188.411 51.9673 188.15 51.7543C187.888 51.5412 187.559 51.4347 187.161 51.4347C186.76 51.4347 186.428 51.5412 186.164 51.7543C185.902 51.9673 185.708 52.25 185.58 52.6023C185.455 52.9517 185.392 53.3352 185.392 53.7528C185.392 54.1733 185.455 54.5582 185.58 54.9077C185.708 55.2571 185.902 55.5369 186.164 55.7472C186.428 55.9574 186.76 56.0625 187.161 56.0625ZM196.711 57.1449C196.296 57.1449 195.921 57.0682 195.586 56.9148C195.25 56.7585 194.985 56.5327 194.789 56.2372C194.596 55.9418 194.499 55.5795 194.499 55.1506C194.499 54.7812 194.57 54.4773 194.712 54.2386C194.854 54 195.046 53.8111 195.287 53.6719C195.529 53.5327 195.799 53.4276 196.097 53.3565C196.395 53.2855 196.699 53.2315 197.009 53.1946C197.401 53.1491 197.719 53.1122 197.963 53.0838C198.208 53.0526 198.385 53.0028 198.496 52.9347C198.607 52.8665 198.662 52.7557 198.662 52.6023V52.5724C198.662 52.2003 198.557 51.9119 198.347 51.7074C198.14 51.5028 197.83 51.4006 197.418 51.4006C196.989 51.4006 196.651 51.4957 196.404 51.6861C196.159 51.8736 195.99 52.0824 195.897 52.3125L194.699 52.0398C194.841 51.642 195.049 51.321 195.321 51.0767C195.597 50.8295 195.914 50.6506 196.272 50.5398C196.63 50.4261 197.006 50.3693 197.401 50.3693C197.662 50.3693 197.939 50.4006 198.232 50.4631C198.527 50.5227 198.803 50.6335 199.059 50.7955C199.317 50.9574 199.529 51.1889 199.694 51.4901C199.858 51.7884 199.941 52.1761 199.941 52.6534V57H198.696V56.1051H198.645C198.563 56.2699 198.439 56.4318 198.275 56.5909C198.11 56.75 197.898 56.8821 197.64 56.9872C197.381 57.0923 197.071 57.1449 196.711 57.1449ZM196.988 56.1222C197.34 56.1222 197.641 56.0526 197.891 55.9134C198.144 55.7741 198.336 55.5923 198.466 55.3679C198.6 55.1406 198.667 54.8977 198.667 54.6392V53.7955C198.621 53.8409 198.533 53.8835 198.402 53.9233C198.275 53.9602 198.128 53.9929 197.963 54.0213C197.799 54.0469 197.638 54.071 197.482 54.0938C197.326 54.1136 197.195 54.1307 197.09 54.1449C196.843 54.1761 196.617 54.2287 196.412 54.3026C196.211 54.3764 196.049 54.483 195.926 54.6222C195.807 54.7585 195.748 54.9403 195.748 55.1676C195.748 55.483 195.864 55.7216 196.097 55.8835C196.33 56.0426 196.627 56.1222 196.988 56.1222ZM203.543 57.1449C203.128 57.1449 202.753 57.0682 202.418 56.9148C202.082 56.7585 201.817 56.5327 201.621 56.2372C201.428 55.9418 201.331 55.5795 201.331 55.1506C201.331 54.7812 201.402 54.4773 201.544 54.2386C201.686 54 201.878 53.8111 202.119 53.6719C202.361 53.5327 202.631 53.4276 202.929 53.3565C203.227 53.2855 203.531 53.2315 203.841 53.1946C204.233 53.1491 204.551 53.1122 204.795 53.0838C205.04 53.0526 205.217 53.0028 205.328 52.9347C205.439 52.8665 205.494 52.7557 205.494 52.6023V52.5724C205.494 52.2003 205.389 51.9119 205.179 51.7074C204.972 51.5028 204.662 51.4006 204.25 51.4006C203.821 51.4006 203.483 51.4957 203.236 51.6861C202.991 51.8736 202.822 52.0824 202.729 52.3125L201.531 52.0398C201.673 51.642 201.881 51.321 202.153 51.0767C202.429 50.8295 202.746 50.6506 203.104 50.5398C203.462 50.4261 203.838 50.3693 204.233 50.3693C204.494 50.3693 204.771 50.4006 205.064 50.4631C205.359 50.5227 205.635 50.6335 205.891 50.7955C206.149 50.9574 206.361 51.1889 206.526 51.4901C206.69 51.7884 206.773 52.1761 206.773 52.6534V57H205.528V56.1051H205.477C205.395 56.2699 205.271 56.4318 205.107 56.5909C204.942 56.75 204.73 56.8821 204.472 56.9872C204.213 57.0923 203.903 57.1449 203.543 57.1449ZM203.82 56.1222C204.172 56.1222 204.473 56.0526 204.723 55.9134C204.976 55.7741 205.168 55.5923 205.298 55.3679C205.432 55.1406 205.499 54.8977 205.499 54.6392V53.7955C205.453 53.8409 205.365 53.8835 205.234 53.9233C205.107 53.9602 204.96 53.9929 204.795 54.0213C204.631 54.0469 204.47 54.071 204.314 54.0938C204.158 54.1136 204.027 54.1307 203.922 54.1449C203.675 54.1761 203.449 54.2287 203.244 54.3026C203.043 54.3764 202.881 54.483 202.759 54.6222C202.639 54.7585 202.58 54.9403 202.58 55.1676C202.58 55.483 202.696 55.7216 202.929 55.8835C203.162 56.0426 203.459 56.1222 203.82 56.1222ZM210.375 57.1449C209.96 57.1449 209.585 57.0682 209.25 56.9148C208.914 56.7585 208.649 56.5327 208.453 56.2372C208.26 55.9418 208.163 55.5795 208.163 55.1506C208.163 54.7812 208.234 54.4773 208.376 54.2386C208.518 54 208.71 53.8111 208.951 53.6719C209.193 53.5327 209.463 53.4276 209.761 53.3565C210.059 53.2855 210.363 53.2315 210.673 53.1946C211.065 53.1491 211.383 53.1122 211.627 53.0838C211.872 53.0526 212.049 53.0028 212.16 52.9347C212.271 52.8665 212.326 52.7557 212.326 52.6023V52.5724C212.326 52.2003 212.221 51.9119 212.011 51.7074C211.804 51.5028 211.494 51.4006 211.082 51.4006C210.653 51.4006 210.315 51.4957 210.068 51.6861C209.824 51.8736 209.654 52.0824 209.561 52.3125L208.363 52.0398C208.505 51.642 208.713 51.321 208.985 51.0767C209.261 50.8295 209.578 50.6506 209.936 50.5398C210.294 50.4261 210.67 50.3693 211.065 50.3693C211.326 50.3693 211.603 50.4006 211.896 50.4631C212.191 50.5227 212.467 50.6335 212.723 50.7955C212.981 50.9574 213.193 51.1889 213.358 51.4901C213.522 51.7884 213.605 52.1761 213.605 52.6534V57H212.36V56.1051H212.309C212.227 56.2699 212.103 56.4318 211.939 56.5909C211.774 56.75 211.562 56.8821 211.304 56.9872C211.045 57.0923 210.735 57.1449 210.375 57.1449ZM210.652 56.1222C211.004 56.1222 211.305 56.0526 211.555 55.9134C211.808 55.7741 212 55.5923 212.13 55.3679C212.264 55.1406 212.331 54.8977 212.331 54.6392V53.7955C212.285 53.8409 212.197 53.8835 212.066 53.9233C211.939 53.9602 211.792 53.9929 211.627 54.0213C211.463 54.0469 211.302 54.071 211.146 54.0938C210.99 54.1136 210.859 54.1307 210.754 54.1449C210.507 54.1761 210.281 54.2287 210.076 54.3026C209.875 54.3764 209.713 54.483 209.591 54.6222C209.471 54.7585 209.412 54.9403 209.412 55.1676C209.412 55.483 209.528 55.7216 209.761 55.8835C209.994 56.0426 210.291 56.1222 210.652 56.1222ZM217.207 57.1449C216.792 57.1449 216.417 57.0682 216.082 56.9148C215.746 56.7585 215.481 56.5327 215.285 56.2372C215.092 55.9418 214.995 55.5795 214.995 55.1506C214.995 54.7812 215.066 54.4773 215.208 54.2386C215.35 54 215.542 53.8111 215.783 53.6719C216.025 53.5327 216.295 53.4276 216.593 53.3565C216.891 53.2855 217.195 53.2315 217.505 53.1946C217.897 53.1491 218.215 53.1122 218.46 53.0838C218.704 53.0526 218.881 53.0028 218.992 52.9347C219.103 52.8665 219.158 52.7557 219.158 52.6023V52.5724C219.158 52.2003 219.053 51.9119 218.843 51.7074C218.636 51.5028 218.326 51.4006 217.914 51.4006C217.485 51.4006 217.147 51.4957 216.9 51.6861C216.656 51.8736 216.487 52.0824 216.393 52.3125L215.195 52.0398C215.337 51.642 215.545 51.321 215.817 51.0767C216.093 50.8295 216.41 50.6506 216.768 50.5398C217.126 50.4261 217.502 50.3693 217.897 50.3693C218.158 50.3693 218.435 50.4006 218.728 50.4631C219.023 50.5227 219.299 50.6335 219.555 50.7955C219.813 50.9574 220.025 51.1889 220.19 51.4901C220.354 51.7884 220.437 52.1761 220.437 52.6534V57H219.192V56.1051H219.141C219.059 56.2699 218.935 56.4318 218.771 56.5909C218.606 56.75 218.394 56.8821 218.136 56.9872C217.877 57.0923 217.567 57.1449 217.207 57.1449ZM217.484 56.1222C217.836 56.1222 218.137 56.0526 218.387 55.9134C218.64 55.7741 218.832 55.5923 218.962 55.3679C219.096 55.1406 219.163 54.8977 219.163 54.6392V53.7955C219.117 53.8409 219.029 53.8835 218.898 53.9233C218.771 53.9602 218.624 53.9929 218.46 54.0213C218.295 54.0469 218.134 54.071 217.978 54.0938C217.822 54.1136 217.691 54.1307 217.586 54.1449C217.339 54.1761 217.113 54.2287 216.908 54.3026C216.707 54.3764 216.545 54.483 216.423 54.6222C216.303 54.7585 216.244 54.9403 216.244 55.1676C216.244 55.483 216.36 55.7216 216.593 55.8835C216.826 56.0426 217.123 56.1222 217.484 56.1222ZM224.039 57.1449C223.624 57.1449 223.249 57.0682 222.914 56.9148C222.578 56.7585 222.313 56.5327 222.117 56.2372C221.924 55.9418 221.827 55.5795 221.827 55.1506C221.827 54.7812 221.898 54.4773 222.04 54.2386C222.182 54 222.374 53.8111 222.615 53.6719C222.857 53.5327 223.127 53.4276 223.425 53.3565C223.723 53.2855 224.027 53.2315 224.337 53.1946C224.729 53.1491 225.047 53.1122 225.292 53.0838C225.536 53.0526 225.713 53.0028 225.824 52.9347C225.935 52.8665 225.99 52.7557 225.99 52.6023V52.5724C225.99 52.2003 225.885 51.9119 225.675 51.7074C225.468 51.5028 225.158 51.4006 224.746 51.4006C224.317 51.4006 223.979 51.4957 223.732 51.6861C223.488 51.8736 223.319 52.0824 223.225 52.3125L222.027 52.0398C222.169 51.642 222.377 51.321 222.65 51.0767C222.925 50.8295 223.242 50.6506 223.6 50.5398C223.958 50.4261 224.334 50.3693 224.729 50.3693C224.99 50.3693 225.267 50.4006 225.56 50.4631C225.855 50.5227 226.131 50.6335 226.387 50.7955C226.645 50.9574 226.857 51.1889 227.022 51.4901C227.186 51.7884 227.269 52.1761 227.269 52.6534V57H226.025V56.1051H225.973C225.891 56.2699 225.767 56.4318 225.603 56.5909C225.438 56.75 225.226 56.8821 224.968 56.9872C224.709 57.0923 224.4 57.1449 224.039 57.1449ZM224.316 56.1222C224.668 56.1222 224.969 56.0526 225.219 55.9134C225.472 55.7741 225.664 55.5923 225.794 55.3679C225.928 55.1406 225.995 54.8977 225.995 54.6392V53.7955C225.949 53.8409 225.861 53.8835 225.73 53.9233C225.603 53.9602 225.456 53.9929 225.292 54.0213C225.127 54.0469 224.966 54.071 224.81 54.0938C224.654 54.1136 224.523 54.1307 224.418 54.1449C224.171 54.1761 223.945 54.2287 223.74 54.3026C223.539 54.3764 223.377 54.483 223.255 54.6222C223.135 54.7585 223.076 54.9403 223.076 55.1676C223.076 55.483 223.192 55.7216 223.425 55.8835C223.658 56.0426 223.955 56.1222 224.316 56.1222ZM230.871 57.1449C230.456 57.1449 230.081 57.0682 229.746 56.9148C229.411 56.7585 229.145 56.5327 228.949 56.2372C228.756 55.9418 228.659 55.5795 228.659 55.1506C228.659 54.7812 228.73 54.4773 228.872 54.2386C229.014 54 229.206 53.8111 229.447 53.6719C229.689 53.5327 229.959 53.4276 230.257 53.3565C230.555 53.2855 230.859 53.2315 231.169 53.1946C231.561 53.1491 231.879 53.1122 232.124 53.0838C232.368 53.0526 232.545 53.0028 232.656 52.9347C232.767 52.8665 232.822 52.7557 232.822 52.6023V52.5724C232.822 52.2003 232.717 51.9119 232.507 51.7074C232.3 51.5028 231.99 51.4006 231.578 51.4006C231.149 51.4006 230.811 51.4957 230.564 51.6861C230.32 51.8736 230.151 52.0824 230.057 52.3125L228.859 52.0398C229.001 51.642 229.209 51.321 229.482 51.0767C229.757 50.8295 230.074 50.6506 230.432 50.5398C230.79 50.4261 231.166 50.3693 231.561 50.3693C231.822 50.3693 232.099 50.4006 232.392 50.4631C232.688 50.5227 232.963 50.6335 233.219 50.7955C233.477 50.9574 233.689 51.1889 233.854 51.4901C234.018 51.7884 234.101 52.1761 234.101 52.6534V57H232.857V56.1051H232.805C232.723 56.2699 232.599 56.4318 232.435 56.5909C232.27 56.75 232.058 56.8821 231.8 56.9872C231.541 57.0923 231.232 57.1449 230.871 57.1449ZM231.148 56.1222C231.5 56.1222 231.801 56.0526 232.051 55.9134C232.304 55.7741 232.496 55.5923 232.626 55.3679C232.76 55.1406 232.827 54.8977 232.827 54.6392V53.7955C232.781 53.8409 232.693 53.8835 232.562 53.9233C232.435 53.9602 232.288 53.9929 232.124 54.0213C231.959 54.0469 231.798 54.071 231.642 54.0938C231.486 54.1136 231.355 54.1307 231.25 54.1449C231.003 54.1761 230.777 54.2287 230.572 54.3026C230.371 54.3764 230.209 54.483 230.087 54.6222C229.967 54.7585 229.908 54.9403 229.908 55.1676C229.908 55.483 230.024 55.7216 230.257 55.8835C230.49 56.0426 230.787 56.1222 231.148 56.1222ZM237.703 57.1449C237.288 57.1449 236.913 57.0682 236.578 56.9148C236.243 56.7585 235.977 56.5327 235.781 56.2372C235.588 55.9418 235.491 55.5795 235.491 55.1506C235.491 54.7812 235.562 54.4773 235.704 54.2386C235.846 54 236.038 53.8111 236.279 53.6719C236.521 53.5327 236.791 53.4276 237.089 53.3565C237.387 53.2855 237.691 53.2315 238.001 53.1946C238.393 53.1491 238.711 53.1122 238.956 53.0838C239.2 53.0526 239.377 53.0028 239.488 52.9347C239.599 52.8665 239.654 52.7557 239.654 52.6023V52.5724C239.654 52.2003 239.549 51.9119 239.339 51.7074C239.132 51.5028 238.822 51.4006 238.41 51.4006C237.981 51.4006 237.643 51.4957 237.396 51.6861C237.152 51.8736 236.983 52.0824 236.889 52.3125L235.691 52.0398C235.833 51.642 236.041 51.321 236.314 51.0767C236.589 50.8295 236.906 50.6506 237.264 50.5398C237.622 50.4261 237.998 50.3693 238.393 50.3693C238.654 50.3693 238.931 50.4006 239.224 50.4631C239.52 50.5227 239.795 50.6335 240.051 50.7955C240.309 50.9574 240.521 51.1889 240.686 51.4901C240.85 51.7884 240.933 52.1761 240.933 52.6534V57H239.689V56.1051H239.637C239.555 56.2699 239.431 56.4318 239.267 56.5909C239.102 56.75 238.89 56.8821 238.632 56.9872C238.373 57.0923 238.064 57.1449 237.703 57.1449ZM237.98 56.1222C238.332 56.1222 238.633 56.0526 238.883 55.9134C239.136 55.7741 239.328 55.5923 239.458 55.3679C239.592 55.1406 239.659 54.8977 239.659 54.6392V53.7955C239.613 53.8409 239.525 53.8835 239.395 53.9233C239.267 53.9602 239.12 53.9929 238.956 54.0213C238.791 54.0469 238.63 54.071 238.474 54.0938C238.318 54.1136 238.187 54.1307 238.082 54.1449C237.835 54.1761 237.609 54.2287 237.404 54.3026C237.203 54.3764 237.041 54.483 236.919 54.6222C236.799 54.7585 236.74 54.9403 236.74 55.1676C236.74 55.483 236.856 55.7216 237.089 55.8835C237.322 56.0426 237.619 56.1222 237.98 56.1222ZM49.6733 75.2287V64.2727H50.9474V75.2287H49.6733ZM49.6733 73.1321C49.2102 73.1321 48.7884 73.0526 48.4077 72.8935C48.027 72.7315 47.6989 72.5014 47.4233 72.2031C47.1477 71.9048 46.9347 71.5483 46.7841 71.1335C46.6364 70.7187 46.5625 70.2599 46.5625 69.7571C46.5625 69.2486 46.6364 68.7869 46.7841 68.3722C46.9347 67.9574 47.1477 67.6009 47.4233 67.3026C47.6989 67.0043 48.027 66.7741 48.4077 66.6122C48.7884 66.4503 49.2102 66.3693 49.6733 66.3693H49.9886V73.1321H49.6733ZM49.6733 72.0582H49.8523V67.4432H49.6733C49.3665 67.4432 49.0994 67.5057 48.8722 67.6307C48.6449 67.7528 48.456 67.9219 48.3054 68.1378C48.1548 68.3509 48.0412 68.5966 47.9645 68.875C47.8906 69.1534 47.8537 69.4474 47.8537 69.7571C47.8537 70.1719 47.9205 70.554 48.054 70.9034C48.1875 71.25 48.3892 71.5298 48.6591 71.7429C48.929 71.9531 49.267 72.0582 49.6733 72.0582ZM50.9474 73.1321H50.6278V66.3693H50.9474C51.4105 66.3693 51.8324 66.4503 52.2131 66.6122C52.5938 66.7741 52.9205 67.0043 53.1932 67.3026C53.4688 67.6009 53.6804 67.9574 53.8281 68.3722C53.9787 68.7869 54.054 69.2486 54.054 69.7571C54.054 70.2599 53.9787 70.7187 53.8281 71.1335C53.6804 71.5483 53.4688 71.9048 53.1932 72.2031C52.9205 72.5014 52.5938 72.7315 52.2131 72.8935C51.8324 73.0526 51.4105 73.1321 50.9474 73.1321ZM50.9474 72.0582C51.2543 72.0582 51.5213 71.9986 51.7486 71.8793C51.9759 71.7571 52.1648 71.5895 52.3153 71.3764C52.4659 71.1605 52.5781 70.9148 52.652 70.6392C52.7259 70.3608 52.7628 70.0668 52.7628 69.7571C52.7628 69.3452 52.696 68.9645 52.5625 68.6151C52.4318 68.2628 52.2315 67.9801 51.9616 67.767C51.6918 67.5511 51.3537 67.4432 50.9474 67.4432H50.7642V72.0582H50.9474ZM58.2866 75.2287V64.2727H59.5607V75.2287H58.2866ZM58.2866 73.1321C57.8235 73.1321 57.4016 73.0526 57.021 72.8935C56.6403 72.7315 56.3121 72.5014 56.0366 72.2031C55.761 71.9048 55.5479 71.5483 55.3974 71.1335C55.2496 70.7187 55.1758 70.2599 55.1758 69.7571C55.1758 69.2486 55.2496 68.7869 55.3974 68.3722C55.5479 67.9574 55.761 67.6009 56.0366 67.3026C56.3121 67.0043 56.6403 66.7741 57.021 66.6122C57.4016 66.4503 57.8235 66.3693 58.2866 66.3693H58.6019V73.1321H58.2866ZM58.2866 72.0582H58.4656V67.4432H58.2866C57.9798 67.4432 57.7127 67.5057 57.4854 67.6307C57.2582 67.7528 57.0692 67.9219 56.9187 68.1378C56.7681 68.3509 56.6545 68.5966 56.5778 68.875C56.5039 69.1534 56.467 69.4474 56.467 69.7571C56.467 70.1719 56.5337 70.554 56.6673 70.9034C56.8008 71.25 57.0025 71.5298 57.2724 71.7429C57.5423 71.9531 57.8803 72.0582 58.2866 72.0582ZM59.5607 73.1321H59.2411V66.3693H59.5607C60.0238 66.3693 60.4457 66.4503 60.8263 66.6122C61.207 66.7741 61.5337 67.0043 61.8065 67.3026C62.082 67.6009 62.2937 67.9574 62.4414 68.3722C62.592 68.7869 62.6673 69.2486 62.6673 69.7571C62.6673 70.2599 62.592 70.7187 62.4414 71.1335C62.2937 71.5483 62.082 71.9048 61.8065 72.2031C61.5337 72.5014 61.207 72.7315 60.8263 72.8935C60.4457 73.0526 60.0238 73.1321 59.5607 73.1321ZM59.5607 72.0582C59.8675 72.0582 60.1346 71.9986 60.3619 71.8793C60.5891 71.7571 60.7781 71.5895 60.9286 71.3764C61.0792 71.1605 61.1914 70.9148 61.2653 70.6392C61.3391 70.3608 61.3761 70.0668 61.3761 69.7571C61.3761 69.3452 61.3093 68.9645 61.1758 68.6151C61.0451 68.2628 60.8448 67.9801 60.5749 67.767C60.305 67.5511 59.967 67.4432 59.5607 67.4432H59.3775V72.0582H59.5607ZM66.8999 75.2287V64.2727H68.174V75.2287H66.8999ZM66.8999 73.1321C66.4368 73.1321 66.0149 73.0526 65.6342 72.8935C65.2536 72.7315 64.9254 72.5014 64.6499 72.2031C64.3743 71.9048 64.1612 71.5483 64.0107 71.1335C63.8629 70.7187 63.7891 70.2599 63.7891 69.7571C63.7891 69.2486 63.8629 68.7869 64.0107 68.3722C64.1612 67.9574 64.3743 67.6009 64.6499 67.3026C64.9254 67.0043 65.2536 66.7741 65.6342 66.6122C66.0149 66.4503 66.4368 66.3693 66.8999 66.3693H67.2152V73.1321H66.8999ZM66.8999 72.0582H67.0788V67.4432H66.8999C66.593 67.4432 66.326 67.5057 66.0987 67.6307C65.8714 67.7528 65.6825 67.9219 65.532 68.1378C65.3814 68.3509 65.2678 68.5966 65.1911 68.875C65.1172 69.1534 65.0803 69.4474 65.0803 69.7571C65.0803 70.1719 65.147 70.554 65.2805 70.9034C65.4141 71.25 65.6158 71.5298 65.8857 71.7429C66.1555 71.9531 66.4936 72.0582 66.8999 72.0582ZM68.174 73.1321H67.8544V66.3693H68.174C68.6371 66.3693 69.0589 66.4503 69.4396 66.6122C69.8203 66.7741 70.147 67.0043 70.4197 67.3026C70.6953 67.6009 70.907 67.9574 71.0547 68.3722C71.2053 68.7869 71.2805 69.2486 71.2805 69.7571C71.2805 70.2599 71.2053 70.7187 71.0547 71.1335C70.907 71.5483 70.6953 71.9048 70.4197 72.2031C70.147 72.5014 69.8203 72.7315 69.4396 72.8935C69.0589 73.0526 68.6371 73.1321 68.174 73.1321ZM68.174 72.0582C68.4808 72.0582 68.7479 71.9986 68.9751 71.8793C69.2024 71.7571 69.3913 71.5895 69.5419 71.3764C69.6925 71.1605 69.8047 70.9148 69.8786 70.6392C69.9524 70.3608 69.9893 70.0668 69.9893 69.7571C69.9893 69.3452 69.9226 68.9645 69.7891 68.6151C69.6584 68.2628 69.4581 67.9801 69.1882 67.767C68.9183 67.5511 68.5803 67.4432 68.174 67.4432H67.9908V72.0582H68.174ZM75.5131 75.2287V64.2727H76.7873V75.2287H75.5131ZM75.5131 73.1321C75.0501 73.1321 74.6282 73.0526 74.2475 72.8935C73.8668 72.7315 73.5387 72.5014 73.2631 72.2031C72.9876 71.9048 72.7745 71.5483 72.6239 71.1335C72.4762 70.7187 72.4023 70.2599 72.4023 69.7571C72.4023 69.2486 72.4762 68.7869 72.6239 68.3722C72.7745 67.9574 72.9876 67.6009 73.2631 67.3026C73.5387 67.0043 73.8668 66.7741 74.2475 66.6122C74.6282 66.4503 75.0501 66.3693 75.5131 66.3693H75.8285V73.1321H75.5131ZM75.5131 72.0582H75.6921V67.4432H75.5131C75.2063 67.4432 74.9393 67.5057 74.712 67.6307C74.4847 67.7528 74.2958 67.9219 74.1452 68.1378C73.9947 68.3509 73.881 68.5966 73.8043 68.875C73.7305 69.1534 73.6935 69.4474 73.6935 69.7571C73.6935 70.1719 73.7603 70.554 73.8938 70.9034C74.0273 71.25 74.229 71.5298 74.4989 71.7429C74.7688 71.9531 75.1069 72.0582 75.5131 72.0582ZM76.7873 73.1321H76.4677V66.3693H76.7873C77.2504 66.3693 77.6722 66.4503 78.0529 66.6122C78.4336 66.7741 78.7603 67.0043 79.033 67.3026C79.3086 67.6009 79.5202 67.9574 79.668 68.3722C79.8185 68.7869 79.8938 69.2486 79.8938 69.7571C79.8938 70.2599 79.8185 70.7187 79.668 71.1335C79.5202 71.5483 79.3086 71.9048 79.033 72.2031C78.7603 72.5014 78.4336 72.7315 78.0529 72.8935C77.6722 73.0526 77.2504 73.1321 76.7873 73.1321ZM76.7873 72.0582C77.0941 72.0582 77.3612 71.9986 77.5884 71.8793C77.8157 71.7571 78.0046 71.5895 78.1552 71.3764C78.3058 71.1605 78.418 70.9148 78.4918 70.6392C78.5657 70.3608 78.6026 70.0668 78.6026 69.7571C78.6026 69.3452 78.5359 68.9645 78.4023 68.6151C78.2717 68.2628 78.0714 67.9801 77.8015 67.767C77.5316 67.5511 77.1935 67.4432 76.7873 67.4432H76.604V72.0582H76.7873ZM84.1264 75.2287V64.2727H85.4006V75.2287H84.1264ZM84.1264 73.1321C83.6634 73.1321 83.2415 73.0526 82.8608 72.8935C82.4801 72.7315 82.152 72.5014 81.8764 72.2031C81.6009 71.9048 81.3878 71.5483 81.2372 71.1335C81.0895 70.7187 81.0156 70.2599 81.0156 69.7571C81.0156 69.2486 81.0895 68.7869 81.2372 68.3722C81.3878 67.9574 81.6009 67.6009 81.8764 67.3026C82.152 67.0043 82.4801 66.7741 82.8608 66.6122C83.2415 66.4503 83.6634 66.3693 84.1264 66.3693H84.4418V73.1321H84.1264ZM84.1264 72.0582H84.3054V67.4432H84.1264C83.8196 67.4432 83.5526 67.5057 83.3253 67.6307C83.098 67.7528 82.9091 67.9219 82.7585 68.1378C82.608 68.3509 82.4943 68.5966 82.4176 68.875C82.3438 69.1534 82.3068 69.4474 82.3068 69.7571C82.3068 70.1719 82.3736 70.554 82.5071 70.9034C82.6406 71.25 82.8423 71.5298 83.1122 71.7429C83.3821 71.9531 83.7202 72.0582 84.1264 72.0582ZM85.4006 73.1321H85.081V66.3693H85.4006C85.8636 66.3693 86.2855 66.4503 86.6662 66.6122C87.0469 66.7741 87.3736 67.0043 87.6463 67.3026C87.9219 67.6009 88.1335 67.9574 88.2812 68.3722C88.4318 68.7869 88.5071 69.2486 88.5071 69.7571C88.5071 70.2599 88.4318 70.7187 88.2812 71.1335C88.1335 71.5483 87.9219 71.9048 87.6463 72.2031C87.3736 72.5014 87.0469 72.7315 86.6662 72.8935C86.2855 73.0526 85.8636 73.1321 85.4006 73.1321ZM85.4006 72.0582C85.7074 72.0582 85.9744 71.9986 86.2017 71.8793C86.429 71.7571 86.6179 71.5895 86.7685 71.3764C86.919 71.1605 87.0312 70.9148 87.1051 70.6392C87.179 70.3608 87.2159 70.0668 87.2159 69.7571C87.2159 69.3452 87.1491 68.9645 87.0156 68.6151C86.8849 68.2628 86.6847 67.9801 86.4148 67.767C86.1449 67.5511 85.8068 67.4432 85.4006 67.4432H85.2173V72.0582H85.4006ZM92.7397 75.2287V64.2727H94.0138V75.2287H92.7397ZM92.7397 73.1321C92.2766 73.1321 91.8548 73.0526 91.4741 72.8935C91.0934 72.7315 90.7653 72.5014 90.4897 72.2031C90.2141 71.9048 90.0011 71.5483 89.8505 71.1335C89.7028 70.7187 89.6289 70.2599 89.6289 69.7571C89.6289 69.2486 89.7028 68.7869 89.8505 68.3722C90.0011 67.9574 90.2141 67.6009 90.4897 67.3026C90.7653 67.0043 91.0934 66.7741 91.4741 66.6122C91.8548 66.4503 92.2766 66.3693 92.7397 66.3693H93.055V73.1321H92.7397ZM92.7397 72.0582H92.9187V67.4432H92.7397C92.4329 67.4432 92.1658 67.5057 91.9386 67.6307C91.7113 67.7528 91.5224 67.9219 91.3718 68.1378C91.2212 68.3509 91.1076 68.5966 91.0309 68.875C90.957 69.1534 90.9201 69.4474 90.9201 69.7571C90.9201 70.1719 90.9869 70.554 91.1204 70.9034C91.2539 71.25 91.4556 71.5298 91.7255 71.7429C91.9954 71.9531 92.3335 72.0582 92.7397 72.0582ZM94.0138 73.1321H93.6942V66.3693H94.0138C94.4769 66.3693 94.8988 66.4503 95.2795 66.6122C95.6602 66.7741 95.9869 67.0043 96.2596 67.3026C96.5352 67.6009 96.7468 67.9574 96.8945 68.3722C97.0451 68.7869 97.1204 69.2486 97.1204 69.7571C97.1204 70.2599 97.0451 70.7187 96.8945 71.1335C96.7468 71.5483 96.5352 71.9048 96.2596 72.2031C95.9869 72.5014 95.6602 72.7315 95.2795 72.8935C94.8988 73.0526 94.4769 73.1321 94.0138 73.1321ZM94.0138 72.0582C94.3207 72.0582 94.5877 71.9986 94.815 71.8793C95.0423 71.7571 95.2312 71.5895 95.3817 71.3764C95.5323 71.1605 95.6445 70.9148 95.7184 70.6392C95.7923 70.3608 95.8292 70.0668 95.8292 69.7571C95.8292 69.3452 95.7624 68.9645 95.6289 68.6151C95.4982 68.2628 95.2979 67.9801 95.0281 67.767C94.7582 67.5511 94.4201 67.4432 94.0138 67.4432H93.8306V72.0582H94.0138ZM101.353 75.2287V64.2727H102.627V75.2287H101.353ZM101.353 73.1321C100.89 73.1321 100.468 73.0526 100.087 72.8935C99.7067 72.7315 99.3786 72.5014 99.103 72.2031C98.8274 71.9048 98.6143 71.5483 98.4638 71.1335C98.3161 70.7187 98.2422 70.2599 98.2422 69.7571C98.2422 69.2486 98.3161 68.7869 98.4638 68.3722C98.6143 67.9574 98.8274 67.6009 99.103 67.3026C99.3786 67.0043 99.7067 66.7741 100.087 66.6122C100.468 66.4503 100.89 66.3693 101.353 66.3693H101.668V73.1321H101.353ZM101.353 72.0582H101.532V67.4432H101.353C101.046 67.4432 100.779 67.5057 100.552 67.6307C100.325 67.7528 100.136 67.9219 99.9851 68.1378C99.8345 68.3509 99.7209 68.5966 99.6442 68.875C99.5703 69.1534 99.5334 69.4474 99.5334 69.7571C99.5334 70.1719 99.6001 70.554 99.7337 70.9034C99.8672 71.25 100.069 71.5298 100.339 71.7429C100.609 71.9531 100.947 72.0582 101.353 72.0582ZM102.627 73.1321H102.308V66.3693H102.627C103.09 66.3693 103.512 66.4503 103.893 66.6122C104.273 66.7741 104.6 67.0043 104.873 67.3026C105.148 67.6009 105.36 67.9574 105.508 68.3722C105.658 68.7869 105.734 69.2486 105.734 69.7571C105.734 70.2599 105.658 70.7187 105.508 71.1335C105.36 71.5483 105.148 71.9048 104.873 72.2031C104.6 72.5014 104.273 72.7315 103.893 72.8935C103.512 73.0526 103.09 73.1321 102.627 73.1321ZM102.627 72.0582C102.934 72.0582 103.201 71.9986 103.428 71.8793C103.656 71.7571 103.844 71.5895 103.995 71.3764C104.146 71.1605 104.258 70.9148 104.332 70.6392C104.406 70.3608 104.442 70.0668 104.442 69.7571C104.442 69.3452 104.376 68.9645 104.242 68.6151C104.112 68.2628 103.911 67.9801 103.641 67.767C103.371 67.5511 103.033 67.4432 102.627 67.4432H102.444V72.0582H102.627ZM109.966 75.2287V64.2727H111.24V75.2287H109.966ZM109.966 73.1321C109.503 73.1321 109.081 73.0526 108.701 72.8935C108.32 72.7315 107.992 72.5014 107.716 72.2031C107.441 71.9048 107.228 71.5483 107.077 71.1335C106.929 70.7187 106.855 70.2599 106.855 69.7571C106.855 69.2486 106.929 68.7869 107.077 68.3722C107.228 67.9574 107.441 67.6009 107.716 67.3026C107.992 67.0043 108.32 66.7741 108.701 66.6122C109.081 66.4503 109.503 66.3693 109.966 66.3693H110.282V73.1321H109.966ZM109.966 72.0582H110.145V67.4432H109.966C109.659 67.4432 109.392 67.5057 109.165 67.6307C108.938 67.7528 108.749 67.9219 108.598 68.1378C108.448 68.3509 108.334 68.5966 108.257 68.875C108.184 69.1534 108.147 69.4474 108.147 69.7571C108.147 70.1719 108.213 70.554 108.347 70.9034C108.48 71.25 108.682 71.5298 108.952 71.7429C109.222 71.9531 109.56 72.0582 109.966 72.0582ZM111.24 73.1321H110.921V66.3693H111.24C111.703 66.3693 112.125 66.4503 112.506 66.6122C112.887 66.7741 113.213 67.0043 113.486 67.3026C113.762 67.6009 113.973 67.9574 114.121 68.3722C114.272 68.7869 114.347 69.2486 114.347 69.7571C114.347 70.2599 114.272 70.7187 114.121 71.1335C113.973 71.5483 113.762 71.9048 113.486 72.2031C113.213 72.5014 112.887 72.7315 112.506 72.8935C112.125 73.0526 111.703 73.1321 111.24 73.1321ZM111.24 72.0582C111.547 72.0582 111.814 71.9986 112.042 71.8793C112.269 71.7571 112.458 71.5895 112.608 71.3764C112.759 71.1605 112.871 70.9148 112.945 70.6392C113.019 70.3608 113.056 70.0668 113.056 69.7571C113.056 69.3452 112.989 68.9645 112.855 68.6151C112.725 68.2628 112.525 67.9801 112.255 67.767C111.985 67.5511 111.647 67.4432 111.24 67.4432H111.057V72.0582H111.24ZM118.58 75.2287V64.2727H119.854V75.2287H118.58ZM118.58 73.1321C118.116 73.1321 117.695 73.0526 117.314 72.8935C116.933 72.7315 116.605 72.5014 116.33 72.2031C116.054 71.9048 115.841 71.5483 115.69 71.1335C115.543 70.7187 115.469 70.2599 115.469 69.7571C115.469 69.2486 115.543 68.7869 115.69 68.3722C115.841 67.9574 116.054 67.6009 116.33 67.3026C116.605 67.0043 116.933 66.7741 117.314 66.6122C117.695 66.4503 118.116 66.3693 118.58 66.3693H118.895V73.1321H118.58ZM118.58 72.0582H118.759V67.4432H118.58C118.273 67.4432 118.006 67.5057 117.778 67.6307C117.551 67.7528 117.362 67.9219 117.212 68.1378C117.061 68.3509 116.947 68.5966 116.871 68.875C116.797 69.1534 116.76 69.4474 116.76 69.7571C116.76 70.1719 116.827 70.554 116.96 70.9034C117.094 71.25 117.295 71.5298 117.565 71.7429C117.835 71.9531 118.173 72.0582 118.58 72.0582ZM119.854 73.1321H119.534V66.3693H119.854C120.317 66.3693 120.739 66.4503 121.119 66.6122C121.5 66.7741 121.827 67.0043 122.099 67.3026C122.375 67.6009 122.587 67.9574 122.734 68.3722C122.885 68.7869 122.96 69.2486 122.96 69.7571C122.96 70.2599 122.885 70.7187 122.734 71.1335C122.587 71.5483 122.375 71.9048 122.099 72.2031C121.827 72.5014 121.5 72.7315 121.119 72.8935C120.739 73.0526 120.317 73.1321 119.854 73.1321ZM119.854 72.0582C120.161 72.0582 120.428 71.9986 120.655 71.8793C120.882 71.7571 121.071 71.5895 121.222 71.3764C121.372 71.1605 121.484 70.9148 121.558 70.6392C121.632 70.3608 121.669 70.0668 121.669 69.7571C121.669 69.3452 121.602 68.9645 121.469 68.6151C121.338 68.2628 121.138 67.9801 120.868 67.767C120.598 67.5511 120.26 67.4432 119.854 67.4432H119.67V72.0582H119.854ZM127.193 75.2287V64.2727H128.467V75.2287H127.193ZM127.193 73.1321C126.73 73.1321 126.308 73.0526 125.927 72.8935C125.547 72.7315 125.218 72.5014 124.943 72.2031C124.667 71.9048 124.454 71.5483 124.304 71.1335C124.156 70.7187 124.082 70.2599 124.082 69.7571C124.082 69.2486 124.156 68.7869 124.304 68.3722C124.454 67.9574 124.667 67.6009 124.943 67.3026C125.218 67.0043 125.547 66.7741 125.927 66.6122C126.308 66.4503 126.73 66.3693 127.193 66.3693H127.508V73.1321H127.193ZM127.193 72.0582H127.372V67.4432H127.193C126.886 67.4432 126.619 67.5057 126.392 67.6307C126.164 67.7528 125.975 67.9219 125.825 68.1378C125.674 68.3509 125.561 68.5966 125.484 68.875C125.41 69.1534 125.373 69.4474 125.373 69.7571C125.373 70.1719 125.44 70.554 125.574 70.9034C125.707 71.25 125.909 71.5298 126.179 71.7429C126.449 71.9531 126.787 72.0582 127.193 72.0582ZM128.467 73.1321H128.147V66.3693H128.467C128.93 66.3693 129.352 66.4503 129.733 66.6122C130.113 66.7741 130.44 67.0043 130.713 67.3026C130.988 67.6009 131.2 67.9574 131.348 68.3722C131.498 68.7869 131.574 69.2486 131.574 69.7571C131.574 70.2599 131.498 70.7187 131.348 71.1335C131.2 71.5483 130.988 71.9048 130.713 72.2031C130.44 72.5014 130.113 72.7315 129.733 72.8935C129.352 73.0526 128.93 73.1321 128.467 73.1321ZM128.467 72.0582C128.774 72.0582 129.041 71.9986 129.268 71.8793C129.495 71.7571 129.684 71.5895 129.835 71.3764C129.985 71.1605 130.098 70.9148 130.172 70.6392C130.245 70.3608 130.282 70.0668 130.282 69.7571C130.282 69.3452 130.216 68.9645 130.082 68.6151C129.951 68.2628 129.751 67.9801 129.481 67.767C129.211 67.5511 128.873 67.4432 128.467 67.4432H128.284V72.0582H128.467ZM135.806 75.2287V64.2727H137.08V75.2287H135.806ZM135.806 73.1321C135.343 73.1321 134.921 73.0526 134.54 72.8935C134.16 72.7315 133.832 72.5014 133.556 72.2031C133.281 71.9048 133.067 71.5483 132.917 71.1335C132.769 70.7187 132.695 70.2599 132.695 69.7571C132.695 69.2486 132.769 68.7869 132.917 68.3722C133.067 67.9574 133.281 67.6009 133.556 67.3026C133.832 67.0043 134.16 66.7741 134.54 66.6122C134.921 66.4503 135.343 66.3693 135.806 66.3693H136.121V73.1321H135.806ZM135.806 72.0582H135.985V67.4432H135.806C135.499 67.4432 135.232 67.5057 135.005 67.6307C134.778 67.7528 134.589 67.9219 134.438 68.1378C134.288 68.3509 134.174 68.5966 134.097 68.875C134.023 69.1534 133.987 69.4474 133.987 69.7571C133.987 70.1719 134.053 70.554 134.187 70.9034C134.32 71.25 134.522 71.5298 134.792 71.7429C135.062 71.9531 135.4 72.0582 135.806 72.0582ZM137.08 73.1321H136.761V66.3693H137.08C137.543 66.3693 137.965 66.4503 138.346 66.6122C138.727 66.7741 139.053 67.0043 139.326 67.3026C139.602 67.6009 139.813 67.9574 139.961 68.3722C140.112 68.7869 140.187 69.2486 140.187 69.7571C140.187 70.2599 140.112 70.7187 139.961 71.1335C139.813 71.5483 139.602 71.9048 139.326 72.2031C139.053 72.5014 138.727 72.7315 138.346 72.8935C137.965 73.0526 137.543 73.1321 137.08 73.1321ZM137.08 72.0582C137.387 72.0582 137.654 71.9986 137.881 71.8793C138.109 71.7571 138.298 71.5895 138.448 71.3764C138.599 71.1605 138.711 70.9148 138.785 70.6392C138.859 70.3608 138.896 70.0668 138.896 69.7571C138.896 69.3452 138.829 68.9645 138.695 68.6151C138.565 68.2628 138.364 67.9801 138.094 67.767C137.825 67.5511 137.487 67.4432 137.08 67.4432H136.897V72.0582H137.08ZM144.419 75.2287V64.2727H145.694V75.2287H144.419ZM144.419 73.1321C143.956 73.1321 143.534 73.0526 143.154 72.8935C142.773 72.7315 142.445 72.5014 142.169 72.2031C141.894 71.9048 141.681 71.5483 141.53 71.1335C141.382 70.7187 141.309 70.2599 141.309 69.7571C141.309 69.2486 141.382 68.7869 141.53 68.3722C141.681 67.9574 141.894 67.6009 142.169 67.3026C142.445 67.0043 142.773 66.7741 143.154 66.6122C143.534 66.4503 143.956 66.3693 144.419 66.3693H144.735V73.1321H144.419ZM144.419 72.0582H144.598V67.4432H144.419C144.113 67.4432 143.846 67.5057 143.618 67.6307C143.391 67.7528 143.202 67.9219 143.051 68.1378C142.901 68.3509 142.787 68.5966 142.711 68.875C142.637 69.1534 142.6 69.4474 142.6 69.7571C142.6 70.1719 142.667 70.554 142.8 70.9034C142.934 71.25 143.135 71.5298 143.405 71.7429C143.675 71.9531 144.013 72.0582 144.419 72.0582ZM145.694 73.1321H145.374V66.3693H145.694C146.157 66.3693 146.578 66.4503 146.959 66.6122C147.34 66.7741 147.667 67.0043 147.939 67.3026C148.215 67.6009 148.426 67.9574 148.574 68.3722C148.725 68.7869 148.8 69.2486 148.8 69.7571C148.8 70.2599 148.725 70.7187 148.574 71.1335C148.426 71.5483 148.215 71.9048 147.939 72.2031C147.667 72.5014 147.34 72.7315 146.959 72.8935C146.578 73.0526 146.157 73.1321 145.694 73.1321ZM145.694 72.0582C146 72.0582 146.267 71.9986 146.495 71.8793C146.722 71.7571 146.911 71.5895 147.061 71.3764C147.212 71.1605 147.324 70.9148 147.398 70.6392C147.472 70.3608 147.509 70.0668 147.509 69.7571C147.509 69.3452 147.442 68.9645 147.309 68.6151C147.178 68.2628 146.978 67.9801 146.708 67.767C146.438 67.5511 146.1 67.4432 145.694 67.4432H145.51V72.0582H145.694ZM153.033 75.2287V64.2727H154.307V75.2287H153.033ZM153.033 73.1321C152.57 73.1321 152.148 73.0526 151.767 72.8935C151.386 72.7315 151.058 72.5014 150.783 72.2031C150.507 71.9048 150.294 71.5483 150.143 71.1335C149.996 70.7187 149.922 70.2599 149.922 69.7571C149.922 69.2486 149.996 68.7869 150.143 68.3722C150.294 67.9574 150.507 67.6009 150.783 67.3026C151.058 67.0043 151.386 66.7741 151.767 66.6122C152.148 66.4503 152.57 66.3693 153.033 66.3693H153.348V73.1321H153.033ZM153.033 72.0582H153.212V67.4432H153.033C152.726 67.4432 152.459 67.5057 152.232 67.6307C152.004 67.7528 151.815 67.9219 151.665 68.1378C151.514 68.3509 151.401 68.5966 151.324 68.875C151.25 69.1534 151.213 69.4474 151.213 69.7571C151.213 70.1719 151.28 70.554 151.413 70.9034C151.547 71.25 151.749 71.5298 152.018 71.7429C152.288 71.9531 152.626 72.0582 153.033 72.0582ZM154.307 73.1321H153.987V66.3693H154.307C154.77 66.3693 155.192 66.4503 155.572 66.6122C155.953 66.7741 156.28 67.0043 156.553 67.3026C156.828 67.6009 157.04 67.9574 157.188 68.3722C157.338 68.7869 157.413 69.2486 157.413 69.7571C157.413 70.2599 157.338 70.7187 157.188 71.1335C157.04 71.5483 156.828 71.9048 156.553 72.2031C156.28 72.5014 155.953 72.7315 155.572 72.8935C155.192 73.0526 154.77 73.1321 154.307 73.1321ZM154.307 72.0582C154.614 72.0582 154.881 71.9986 155.108 71.8793C155.335 71.7571 155.524 71.5895 155.675 71.3764C155.825 71.1605 155.938 70.9148 156.011 70.6392C156.085 70.3608 156.122 70.0668 156.122 69.7571C156.122 69.3452 156.055 68.9645 155.922 68.6151C155.791 68.2628 155.591 67.9801 155.321 67.767C155.051 67.5511 154.713 67.4432 154.307 67.4432H154.124V72.0582H154.307ZM161.646 75.2287V64.2727H162.92V75.2287H161.646ZM161.646 73.1321C161.183 73.1321 160.761 73.0526 160.38 72.8935C160 72.7315 159.672 72.5014 159.396 72.2031C159.12 71.9048 158.907 71.5483 158.757 71.1335C158.609 70.7187 158.535 70.2599 158.535 69.7571C158.535 69.2486 158.609 68.7869 158.757 68.3722C158.907 67.9574 159.12 67.6009 159.396 67.3026C159.672 67.0043 160 66.7741 160.38 66.6122C160.761 66.4503 161.183 66.3693 161.646 66.3693H161.961V73.1321H161.646ZM161.646 72.0582H161.825V67.4432H161.646C161.339 67.4432 161.072 67.5057 160.845 67.6307C160.618 67.7528 160.429 67.9219 160.278 68.1378C160.127 68.3509 160.014 68.5966 159.937 68.875C159.863 69.1534 159.826 69.4474 159.826 69.7571C159.826 70.1719 159.893 70.554 160.027 70.9034C160.16 71.25 160.362 71.5298 160.632 71.7429C160.902 71.9531 161.24 72.0582 161.646 72.0582ZM162.92 73.1321H162.6V66.3693H162.92C163.383 66.3693 163.805 66.4503 164.186 66.6122C164.566 66.7741 164.893 67.0043 165.166 67.3026C165.441 67.6009 165.653 67.9574 165.801 68.3722C165.951 68.7869 166.027 69.2486 166.027 69.7571C166.027 70.2599 165.951 70.7187 165.801 71.1335C165.653 71.5483 165.441 71.9048 165.166 72.2031C164.893 72.5014 164.566 72.7315 164.186 72.8935C163.805 73.0526 163.383 73.1321 162.92 73.1321ZM162.92 72.0582C163.227 72.0582 163.494 71.9986 163.721 71.8793C163.949 71.7571 164.137 71.5895 164.288 71.3764C164.439 71.1605 164.551 70.9148 164.625 70.6392C164.699 70.3608 164.735 70.0668 164.735 69.7571C164.735 69.3452 164.669 68.9645 164.535 68.6151C164.404 68.2628 164.204 67.9801 163.934 67.767C163.664 67.5511 163.326 67.4432 162.92 67.4432H162.737V72.0582H162.92ZM170.259 75.2287V64.2727H171.533V75.2287H170.259ZM170.259 73.1321C169.796 73.1321 169.374 73.0526 168.994 72.8935C168.613 72.7315 168.285 72.5014 168.009 72.2031C167.734 71.9048 167.521 71.5483 167.37 71.1335C167.222 70.7187 167.148 70.2599 167.148 69.7571C167.148 69.2486 167.222 68.7869 167.37 68.3722C167.521 67.9574 167.734 67.6009 168.009 67.3026C168.285 67.0043 168.613 66.7741 168.994 66.6122C169.374 66.4503 169.796 66.3693 170.259 66.3693H170.575V73.1321H170.259ZM170.259 72.0582H170.438V67.4432H170.259C169.952 67.4432 169.685 67.5057 169.458 67.6307C169.231 67.7528 169.042 67.9219 168.891 68.1378C168.741 68.3509 168.627 68.5966 168.55 68.875C168.477 69.1534 168.44 69.4474 168.44 69.7571C168.44 70.1719 168.506 70.554 168.64 70.9034C168.773 71.25 168.975 71.5298 169.245 71.7429C169.515 71.9531 169.853 72.0582 170.259 72.0582ZM171.533 73.1321H171.214V66.3693H171.533C171.996 66.3693 172.418 66.4503 172.799 66.6122C173.18 66.7741 173.506 67.0043 173.779 67.3026C174.055 67.6009 174.266 67.9574 174.414 68.3722C174.565 68.7869 174.64 69.2486 174.64 69.7571C174.64 70.2599 174.565 70.7187 174.414 71.1335C174.266 71.5483 174.055 71.9048 173.779 72.2031C173.506 72.5014 173.18 72.7315 172.799 72.8935C172.418 73.0526 171.996 73.1321 171.533 73.1321ZM171.533 72.0582C171.84 72.0582 172.107 71.9986 172.335 71.8793C172.562 71.7571 172.751 71.5895 172.901 71.3764C173.052 71.1605 173.164 70.9148 173.238 70.6392C173.312 70.3608 173.349 70.0668 173.349 69.7571C173.349 69.3452 173.282 68.9645 173.148 68.6151C173.018 68.2628 172.817 67.9801 172.548 67.767C172.278 67.5511 171.94 67.4432 171.533 67.4432H171.35V72.0582H171.533ZM178.873 75.2287V64.2727H180.147V75.2287H178.873ZM178.873 73.1321C178.409 73.1321 177.988 73.0526 177.607 72.8935C177.226 72.7315 176.898 72.5014 176.623 72.2031C176.347 71.9048 176.134 71.5483 175.983 71.1335C175.836 70.7187 175.762 70.2599 175.762 69.7571C175.762 69.2486 175.836 68.7869 175.983 68.3722C176.134 67.9574 176.347 67.6009 176.623 67.3026C176.898 67.0043 177.226 66.7741 177.607 66.6122C177.988 66.4503 178.409 66.3693 178.873 66.3693H179.188V73.1321H178.873ZM178.873 72.0582H179.051V67.4432H178.873C178.566 67.4432 178.299 67.5057 178.071 67.6307C177.844 67.7528 177.655 67.9219 177.505 68.1378C177.354 68.3509 177.24 68.5966 177.164 68.875C177.09 69.1534 177.053 69.4474 177.053 69.7571C177.053 70.1719 177.12 70.554 177.253 70.9034C177.387 71.25 177.588 71.5298 177.858 71.7429C178.128 71.9531 178.466 72.0582 178.873 72.0582ZM180.147 73.1321H179.827V66.3693H180.147C180.61 66.3693 181.032 66.4503 181.412 66.6122C181.793 66.7741 182.12 67.0043 182.392 67.3026C182.668 67.6009 182.88 67.9574 183.027 68.3722C183.178 68.7869 183.253 69.2486 183.253 69.7571C183.253 70.2599 183.178 70.7187 183.027 71.1335C182.88 71.5483 182.668 71.9048 182.392 72.2031C182.12 72.5014 181.793 72.7315 181.412 72.8935C181.032 73.0526 180.61 73.1321 180.147 73.1321ZM180.147 72.0582C180.453 72.0582 180.721 71.9986 180.948 71.8793C181.175 71.7571 181.364 71.5895 181.515 71.3764C181.665 71.1605 181.777 70.9148 181.851 70.6392C181.925 70.3608 181.962 70.0668 181.962 69.7571C181.962 69.3452 181.895 68.9645 181.762 68.6151C181.631 68.2628 181.431 67.9801 181.161 67.767C180.891 67.5511 180.553 67.4432 180.147 67.4432H179.963V72.0582H180.147ZM48.1051 87.2145L50.9901 82.4545H52.3622V89H51.1136V84.2358L48.2415 89H46.8565V82.4545H48.1051V87.2145ZM57.2511 89V82.4545H59.9656C60.7042 82.4545 61.2894 82.6122 61.7212 82.9276C62.1531 83.2401 62.369 83.6648 62.369 84.2017C62.369 84.5852 62.2468 84.8892 62.0025 85.1136C61.7582 85.3381 61.4343 85.4886 61.0309 85.5653C61.3235 85.5994 61.592 85.6875 61.8363 85.8295C62.0806 85.9687 62.2766 86.1562 62.4244 86.392C62.5749 86.6278 62.6502 86.9091 62.6502 87.2358C62.6502 87.5824 62.5607 87.8892 62.3817 88.1562C62.2028 88.4205 61.9428 88.6278 61.6019 88.7784C61.2638 88.9261 60.8562 89 60.3789 89H57.2511ZM58.4485 87.9347H60.3789C60.6942 87.9347 60.9414 87.8594 61.1204 87.7088C61.2994 87.5582 61.3888 87.3537 61.3888 87.0952C61.3888 86.7912 61.2994 86.5526 61.1204 86.3793C60.9414 86.2031 60.6942 86.1151 60.3789 86.1151H58.4485V87.9347ZM58.4485 85.1818H59.9783C60.217 85.1818 60.4215 85.1477 60.592 85.0795C60.7653 85.0114 60.8974 84.9148 60.9883 84.7898C61.082 84.6619 61.1289 84.5114 61.1289 84.3381C61.1289 84.0852 61.0252 83.8878 60.8178 83.7457C60.6104 83.6037 60.3263 83.5327 59.9656 83.5327H58.4485V85.1818ZM71.6598 85.1776V86.2812H68.1143V85.1776H71.6598ZM68.4723 82.4545V89H67.2237V82.4545H68.4723ZM72.5504 82.4545V89H71.3061V82.4545H72.5504ZM77.076 89.1321C76.4311 89.1321 75.8757 88.9943 75.4098 88.7188C74.9467 88.4403 74.5888 88.0497 74.3359 87.5469C74.0859 87.0412 73.9609 86.4489 73.9609 85.7699C73.9609 85.0994 74.0859 84.5085 74.3359 83.9972C74.5888 83.4858 74.9411 83.0866 75.3928 82.7997C75.8473 82.5128 76.3786 82.3693 76.9865 82.3693C77.3558 82.3693 77.7138 82.4304 78.0604 82.5526C78.407 82.6747 78.718 82.8665 78.9936 83.1278C79.2692 83.3892 79.4865 83.7287 79.6456 84.1463C79.8047 84.5611 79.8842 85.0653 79.8842 85.6591V86.1108H74.6811V85.1562H78.6357C78.6357 84.821 78.5675 84.5241 78.4311 84.2656C78.2947 84.0043 78.103 83.7983 77.8558 83.6477C77.6115 83.4972 77.3246 83.4219 76.995 83.4219C76.6371 83.4219 76.3246 83.5099 76.0575 83.6861C75.7933 83.8594 75.5888 84.0866 75.4439 84.3679C75.3018 84.6463 75.2308 84.9489 75.2308 85.2756V86.0213C75.2308 86.4588 75.3075 86.831 75.4609 87.1378C75.6172 87.4446 75.8345 87.679 76.1129 87.8409C76.3913 88 76.7166 88.0795 77.0888 88.0795C77.3303 88.0795 77.5504 88.0455 77.7493 87.9773C77.9482 87.9062 78.12 87.8011 78.2649 87.6619C78.4098 87.5227 78.5206 87.3509 78.5973 87.1463L79.8033 87.3636C79.7067 87.7187 79.5334 88.0298 79.2834 88.2969C79.0362 88.5611 78.7251 88.767 78.3501 88.9148C77.978 89.0597 77.5533 89.1321 77.076 89.1321ZM84.055 89.1321C83.4215 89.1321 82.8761 88.9886 82.4187 88.7017C81.9641 88.4119 81.6147 88.0128 81.3704 87.5043C81.1261 86.9957 81.0039 86.4134 81.0039 85.7571C81.0039 85.0923 81.1289 84.5057 81.3789 83.9972C81.6289 83.4858 81.9812 83.0866 82.4357 82.7997C82.8903 82.5128 83.4258 82.3693 84.0423 82.3693C84.5394 82.3693 84.9826 82.4616 85.3718 82.6463C85.761 82.8281 86.0749 83.0838 86.3136 83.4134C86.555 83.7429 86.6985 84.1278 86.744 84.5682H85.5039C85.4357 84.2614 85.2795 83.9972 85.0352 83.7756C84.7937 83.554 84.4698 83.4432 84.0636 83.4432C83.7085 83.4432 83.3974 83.5369 83.1303 83.7244C82.8661 83.9091 82.6602 84.1733 82.5124 84.517C82.3647 84.858 82.2908 85.2614 82.2908 85.7273C82.2908 86.2045 82.3633 86.6165 82.5082 86.9631C82.6531 87.3097 82.8576 87.5781 83.1218 87.7685C83.3888 87.9588 83.7028 88.054 84.0636 88.054C84.305 88.054 84.5238 88.0099 84.7198 87.9219C84.9187 87.831 85.0849 87.7017 85.2184 87.5341C85.3548 87.3665 85.4499 87.1648 85.5039 86.929H86.744C86.6985 87.3523 86.5607 87.7301 86.3306 88.0625C86.1005 88.3949 85.7923 88.6562 85.4059 88.8466C85.0224 89.0369 84.5721 89.1321 84.055 89.1321ZM88.1065 89V82.4545H89.3807V85.1989H89.9943L92.1548 82.4545H93.7315L91.196 85.6378L93.7614 89H92.1804L90.2074 86.3835H89.3807V89H88.1065ZM97.2386 89.1321C96.625 89.1321 96.0895 88.9915 95.6321 88.7102C95.1747 88.429 94.8196 88.0355 94.5668 87.5298C94.3139 87.0241 94.1875 86.4332 94.1875 85.7571C94.1875 85.0781 94.3139 84.4844 94.5668 83.9759C94.8196 83.4673 95.1747 83.0724 95.6321 82.7912C96.0895 82.5099 96.625 82.3693 97.2386 82.3693C97.8523 82.3693 98.3878 82.5099 98.8452 82.7912C99.3026 83.0724 99.6577 83.4673 99.9105 83.9759C100.163 84.4844 100.29 85.0781 100.29 85.7571C100.29 86.4332 100.163 87.0241 99.9105 87.5298C99.6577 88.0355 99.3026 88.429 98.8452 88.7102C98.3878 88.9915 97.8523 89.1321 97.2386 89.1321ZM97.2429 88.0625C97.6406 88.0625 97.9702 87.9574 98.2315 87.7472C98.4929 87.5369 98.6861 87.2571 98.8111 86.9077C98.9389 86.5582 99.0028 86.1733 99.0028 85.7528C99.0028 85.3352 98.9389 84.9517 98.8111 84.6023C98.6861 84.25 98.4929 83.9673 98.2315 83.7543C97.9702 83.5412 97.6406 83.4347 97.2429 83.4347C96.8423 83.4347 96.5099 83.5412 96.2457 83.7543C95.9844 83.9673 95.7898 84.25 95.6619 84.6023C95.5369 84.9517 95.4744 85.3352 95.4744 85.7528C95.4744 86.1733 95.5369 86.5582 95.6619 86.9077C95.7898 87.2571 95.9844 87.5369 96.2457 87.7472C96.5099 87.9574 96.8423 88.0625 97.2429 88.0625ZM101.196 89L101.192 87.8963H101.426C101.608 87.8963 101.76 87.858 101.882 87.7812C102.007 87.7017 102.11 87.5682 102.189 87.3807C102.269 87.1932 102.33 86.9347 102.373 86.6051C102.415 86.2727 102.446 85.8551 102.466 85.3523L102.581 82.4545H107.15V89H105.901V83.554H103.762L103.659 85.7784C103.634 86.3182 103.578 86.7898 103.493 87.1932C103.411 87.5966 103.29 87.9332 103.131 88.2031C102.972 88.4702 102.767 88.6705 102.517 88.804C102.267 88.9347 101.963 89 101.605 89H101.196ZM109.808 84.7045H111.708C112.509 84.7045 113.126 84.9034 113.558 85.3011C113.989 85.6989 114.205 86.2116 114.205 86.8395C114.205 87.2486 114.109 87.6165 113.915 87.9432C113.722 88.2699 113.44 88.5284 113.067 88.7188C112.695 88.9062 112.242 89 111.708 89H108.849V82.4545H110.097V87.9006H111.708C112.075 87.9006 112.376 87.8054 112.612 87.6151C112.847 87.4219 112.965 87.1761 112.965 86.8778C112.965 86.5625 112.847 86.3054 112.612 86.1065C112.376 85.9048 112.075 85.804 111.708 85.804H109.808V84.7045ZM115.634 89V82.4545H116.908V85.1989H117.522L119.682 82.4545H121.259L118.723 85.6378L121.289 89H119.708L117.735 86.3835H116.908V89H115.634ZM124.766 89.1321C124.152 89.1321 123.617 88.9915 123.159 88.7102C122.702 88.429 122.347 88.0355 122.094 87.5298C121.841 87.0241 121.715 86.4332 121.715 85.7571C121.715 85.0781 121.841 84.4844 122.094 83.9759C122.347 83.4673 122.702 83.0724 123.159 82.7912C123.617 82.5099 124.152 82.3693 124.766 82.3693C125.38 82.3693 125.915 82.5099 126.373 82.7912C126.83 83.0724 127.185 83.4673 127.438 83.9759C127.691 84.4844 127.817 85.0781 127.817 85.7571C127.817 86.4332 127.691 87.0241 127.438 87.5298C127.185 88.0355 126.83 88.429 126.373 88.7102C125.915 88.9915 125.38 89.1321 124.766 89.1321ZM124.77 88.0625C125.168 88.0625 125.498 87.9574 125.759 87.7472C126.02 87.5369 126.213 87.2571 126.338 86.9077C126.466 86.5582 126.53 86.1733 126.53 85.7528C126.53 85.3352 126.466 84.9517 126.338 84.6023C126.213 84.25 126.02 83.9673 125.759 83.7543C125.498 83.5412 125.168 83.4347 124.77 83.4347C124.37 83.4347 124.037 83.5412 123.773 83.7543C123.512 83.9673 123.317 84.25 123.189 84.6023C123.064 84.9517 123.002 85.3352 123.002 85.7528C123.002 86.1733 123.064 86.5582 123.189 86.9077C123.317 87.2571 123.512 87.5369 123.773 87.7472C124.037 87.9574 124.37 88.0625 124.77 88.0625ZM135.172 89.1321C134.539 89.1321 133.993 88.9886 133.536 88.7017C133.081 88.4119 132.732 88.0128 132.488 87.5043C132.243 86.9957 132.121 86.4134 132.121 85.7571C132.121 85.0923 132.246 84.5057 132.496 83.9972C132.746 83.4858 133.098 83.0866 133.553 82.7997C134.007 82.5128 134.543 82.3693 135.159 82.3693C135.657 82.3693 136.1 82.4616 136.489 82.6463C136.878 82.8281 137.192 83.0838 137.431 83.4134C137.672 83.7429 137.816 84.1278 137.861 84.5682H136.621C136.553 84.2614 136.397 83.9972 136.152 83.7756C135.911 83.554 135.587 83.4432 135.181 83.4432C134.826 83.4432 134.515 83.5369 134.248 83.7244C133.983 83.9091 133.777 84.1733 133.63 84.517C133.482 84.858 133.408 85.2614 133.408 85.7273C133.408 86.2045 133.48 86.6165 133.625 86.9631C133.77 87.3097 133.975 87.5781 134.239 87.7685C134.506 87.9588 134.82 88.054 135.181 88.054C135.422 88.054 135.641 88.0099 135.837 87.9219C136.036 87.831 136.202 87.7017 136.336 87.5341C136.472 87.3665 136.567 87.1648 136.621 86.929H137.861C137.816 87.3523 137.678 87.7301 137.448 88.0625C137.218 88.3949 136.909 88.6562 136.523 88.8466C136.14 89.0369 135.689 89.1321 135.172 89.1321ZM138.728 83.554V82.4545H144.251V83.554H142.116V89H140.872V83.554H138.728ZM145.599 91.4545V82.4545H146.843V83.5156H146.95C147.023 83.3793 147.13 83.2216 147.269 83.0426C147.408 82.8636 147.602 82.7074 147.849 82.5739C148.096 82.4375 148.423 82.3693 148.829 82.3693C149.357 82.3693 149.829 82.5028 150.244 82.7699C150.658 83.0369 150.984 83.4219 151.219 83.9247C151.458 84.4276 151.577 85.0327 151.577 85.7401C151.577 86.4474 151.46 87.054 151.224 87.5597C150.988 88.0625 150.664 88.4503 150.252 88.723C149.84 88.9929 149.37 89.1278 148.842 89.1278C148.444 89.1278 148.119 89.0611 147.866 88.9276C147.616 88.794 147.42 88.6378 147.278 88.4588C147.136 88.2798 147.026 88.1207 146.95 87.9815H146.873V91.4545H145.599ZM146.847 85.7273C146.847 86.1875 146.914 86.5909 147.048 86.9375C147.181 87.2841 147.374 87.5554 147.627 87.7514C147.88 87.9446 148.19 88.0412 148.556 88.0412C148.937 88.0412 149.255 87.9403 149.511 87.7386C149.766 87.5341 149.96 87.2571 150.09 86.9077C150.224 86.5582 150.29 86.1648 150.29 85.7273C150.29 85.2955 150.225 84.9077 150.094 84.5639C149.967 84.2202 149.773 83.9489 149.515 83.75C149.259 83.5511 148.94 83.4517 148.556 83.4517C148.187 83.4517 147.874 83.5469 147.619 83.7372C147.366 83.9276 147.174 84.1932 147.043 84.5341C146.913 84.875 146.847 85.2727 146.847 85.7273ZM155.762 89.1321C155.148 89.1321 154.613 88.9915 154.156 88.7102C153.698 88.429 153.343 88.0355 153.09 87.5298C152.837 87.0241 152.711 86.4332 152.711 85.7571C152.711 85.0781 152.837 84.4844 153.09 83.9759C153.343 83.4673 153.698 83.0724 154.156 82.7912C154.613 82.5099 155.148 82.3693 155.762 82.3693C156.376 82.3693 156.911 82.5099 157.369 82.7912C157.826 83.0724 158.181 83.4673 158.434 83.9759C158.687 84.4844 158.813 85.0781 158.813 85.7571C158.813 86.4332 158.687 87.0241 158.434 87.5298C158.181 88.0355 157.826 88.429 157.369 88.7102C156.911 88.9915 156.376 89.1321 155.762 89.1321ZM155.766 88.0625C156.164 88.0625 156.494 87.9574 156.755 87.7472C157.016 87.5369 157.21 87.2571 157.335 86.9077C157.462 86.5582 157.526 86.1733 157.526 85.7528C157.526 85.3352 157.462 84.9517 157.335 84.6023C157.21 84.25 157.016 83.9673 156.755 83.7543C156.494 83.5412 156.164 83.4347 155.766 83.4347C155.366 83.4347 155.033 83.5412 154.769 83.7543C154.508 83.9673 154.313 84.25 154.185 84.6023C154.06 84.9517 153.998 85.3352 153.998 85.7528C153.998 86.1733 154.06 86.5582 154.185 86.9077C154.313 87.2571 154.508 87.5369 154.769 87.7472C155.033 87.9574 155.366 88.0625 155.766 88.0625ZM160.235 89V82.4545H161.51V85.1989H162.123L164.284 82.4545H165.86L163.325 85.6378L165.89 89H164.309L162.336 86.3835H161.51V89H160.235Z" fill="#2F3040" fill-opacity="0.72"/>
<defs>
<filter id="filter0_i_1_509" x="0" y="0" width="400" height="124" filterUnits="userSpaceOnUse" color-interpolation-filters="sRGB">
<feFlood flood-opacity="0" result="BackgroundImageFix"/>
<feBlend mode="normal" in="SourceGraphic" in2="BackgroundImageFix" result="shape"/>
<feColorMatrix in="SourceAlpha" type="matrix" values="0 0 0 0 0 0 0 0 0 0 0 0 0 0 0 0 0 0 127 0" result="hardAlpha"/>
<feOffset dy="4"/>
<feGaussianBlur stdDeviation="2"/>
<feComposite in2="hardAlpha" operator="arithmetic" k2="-1" k3="1"/>
<feColorMatrix type="matrix" values="0 0 0 0 0 0 0 0 0 0 0 0 0 0 0 0 0 0 0.25 0"/>
<feBlend mode="normal" in2="shape" result="effect1_innerShadow_1_509"/>
</filter>
</defs>
</svg>
